<svg xmlns="http://www.w3.org/2000/svg" width="150pt" height="150pt" viewBox="0 0 150 150" version="1.1" class="iconadda">
<g>
<g id="Cart_VI0Hb3k-0"><path style=" stroke:none;fill-rule:nonzero;fill:#000001;fill-opacity:1;" d="M 53.59375 106.203125 L 126.855469 106.203125 C 129.304688 106.203125 131.4375 104.191406 131.4375 101.492188 C 131.4375 98.792969 129.304688 96.785156 126.855469 96.785156 L 54.660156 96.785156 C 51.082031 96.785156 48.882812 94.273438 48.320312 90.445312 L 47.316406 83.851562 L 126.980469 83.851562 C 136.148438 83.851562 140.855469 78.203125 142.175781 69.222656 L 147.195312 36.015625 C 147.320312 35.199219 147.445312 34.195312 147.445312 33.628906 C 147.445312 30.617188 145.1875 28.542969 141.734375 28.542969 L 39.214844 28.542969 L 38.023438 20.570312 C 37.394531 15.738281 35.636719 13.289062 29.234375 13.289062 L 7.199219 13.289062 C 4.6875 13.289062 2.554688 15.484375 2.554688 17.996094 C 2.554688 20.570312 4.6875 22.769531 7.199219 22.769531 L 28.417969 22.769531 L 38.460938 91.699219 C 39.78125 100.613281 44.488281 106.203125 53.59375 106.203125 Z M 136.773438 38.023438 L 132.316406 68.09375 C 131.816406 71.988281 129.742188 74.371094 126.039062 74.371094 L 45.933594 74.433594 L 40.597656 38.023438 Z M 58.550781 136.710938 C 64.203125 136.710938 68.722656 132.253906 68.722656 126.542969 C 68.722656 120.890625 64.203125 116.371094 58.550781 116.371094 C 52.839844 116.371094 48.320312 120.890625 48.320312 126.542969 C 48.320312 132.253906 52.839844 136.710938 58.550781 136.710938 Z M 117.25 136.710938 C 122.964844 136.710938 127.484375 132.253906 127.484375 126.542969 C 127.484375 120.890625 122.964844 116.371094 117.25 116.371094 C 111.601562 116.371094 107.015625 120.890625 107.015625 126.542969 C 107.015625 132.253906 111.601562 136.710938 117.25 136.710938 Z M 117.25 136.710938 " />
</g></g>
</svg>