<svg xmlns="http://www.w3.org/2000/svg" width="750pt" height="750pt" viewBox="0 0 750 750" version="1.1" class="iconadda">
<g id="surface53591">
<g id="character_builder_plant-0"><path style=" stroke:none;fill-rule:nonzero;fill:rgb(83.137255%,93.72549%,79.607843%);fill-opacity:1;" d="M 601.078125 553.207031 C 599.652344 556.011719 598.152344 558.792969 596.578125 561.546875 C 584.695312 582.371094 569.300781 600.984375 551.078125 616.566406 C 498.480469 661.707031 430.566406 675.890625 372.039062 659.917969 C 345.511719 652.671875 317.84375 649.042969 289.785156 648.292969 C 218.753906 646.394531 158.316406 613.289062 128.535156 561.546875 C 126.960938 558.816406 125.476562 556.035156 124.082031 553.207031 L 124.078125 553.207031 C 115.964844 536.714844 110.980469 518.855469 109.378906 500.542969 C 107.511719 478.792969 110.023438 456.886719 116.765625 436.125 C 117.003906 435.375 117.246094 434.625 117.515625 433.875 C 118.25 431.671875 119.03125 429.476562 119.855469 427.296875 C 120.132812 426.546875 120.425781 425.796875 120.71875 425.046875 C 121.257812 423.6875 121.804688 422.332031 122.375 420.980469 C 122.71875 420.148438 123.078125 419.316406 123.441406 418.492188 C 137.691406 385.84375 161.691406 356.105469 192.441406 332.566406 C 193.765625 331.566406 195.109375 330.566406 196.46875 329.566406 C 229.175781 305.675781 266.976562 289.695312 306.898438 282.886719 L 307.09375 282.886719 C 316.84375 281.214844 324.195312 272.386719 323.8125 262.824219 C 323.527344 255.878906 323.800781 248.925781 324.628906 242.023438 C 324.792969 240.683594 324.976562 239.339844 325.175781 237.996094 C 329.347656 210.769531 342.359375 185.496094 364.078125 166.851562 C 397.316406 138.351562 442.828125 132.292969 483.941406 146.738281 L 483.945312 146.738281 C 491.660156 149.410156 499.125 152.761719 506.25 156.75 C 521.023438 165.09375 534.222656 175.957031 545.25 188.851562 C 577.710938 226.675781 587.25 275.804688 574.546875 317.425781 C 570.226562 331.546875 573.285156 346.195312 582.347656 356.71875 C 582.40625 356.777344 582.460938 356.847656 582.511719 356.90625 L 582.511719 356.902344 C 597.859375 374.804688 609.144531 395.816406 615.59375 418.5 C 616.433594 421.421875 617.183594 424.359375 617.84375 427.3125 C 618.503906 430.265625 619.097656 433.207031 619.621094 436.132812 C 626.410156 474.824219 619.949219 516.089844 601.082031 553.207031 Z M 601.078125 553.207031 " />
</g><g id="character_builder_plant-1"><path style=" stroke:none;fill-rule:nonzero;fill:rgb(90.196078%,96.470588%,87.843137%);fill-opacity:1;" d="M 506.25 156.75 L 506.25 427.273438 L 119.886719 427.273438 C 120.164062 426.523438 120.457031 425.773438 120.75 425.023438 C 121.289062 423.664062 121.835938 422.308594 122.40625 420.957031 C 122.75 420.125 123.109375 419.292969 123.472656 418.46875 C 137.722656 385.820312 161.722656 356.082031 192.472656 332.542969 C 193.796875 331.542969 195.140625 330.542969 196.5 329.542969 C 229.203125 305.652344 267.003906 289.671875 306.929688 282.863281 L 307.125 282.863281 C 316.875 281.191406 324.226562 272.363281 323.84375 262.800781 C 323.558594 255.855469 323.832031 248.902344 324.660156 242.003906 C 324.824219 240.664062 325.007812 239.320312 325.207031 237.976562 C 329.378906 210.75 342.390625 185.476562 364.109375 166.832031 L 364.109375 166.828125 C 379.605469 153.53125 398.390625 144.636719 418.5 141.082031 C 439.957031 137.195312 462.578125 139.160156 484.003906 146.691406 C 491.703125 149.382812 499.144531 152.75 506.25 156.75 Z M 506.25 156.75 " />
</g><g id="character_builder_plant-2"><path style=" stroke:none;fill-rule:nonzero;fill:rgb(95.294118%,100%,93.333333%);fill-opacity:0.65;" d="M 506.25 156.75 L 506.25 427.273438 L 247.058594 427.273438 C 240.691406 421.273438 233.378906 414.957031 233.984375 406.460938 C 234.246094 402.800781 236.046875 399.433594 238.050781 396.367188 C 251.972656 375.03125 276.152344 363.210938 298.644531 351.253906 C 339.648438 329.457031 379.457031 303.394531 408.414062 267.097656 C 417.105469 256.199219 424.964844 243.847656 426.472656 230.019531 C 427.980469 216.191406 421.417969 200.613281 408.414062 195.59375 C 401.027344 192.734375 390.542969 191.679688 389.273438 183.855469 C 388.652344 179.984375 390.9375 176.304688 393.179688 173.09375 C 400.980469 161.929688 409.433594 151.242188 418.5 141.082031 C 439.957031 137.195312 462.578125 139.160156 484.003906 146.691406 C 491.703125 149.382812 499.144531 152.75 506.25 156.75 Z M 506.25 156.75 " />
</g><g id="character_builder_plant-3"><path style=" stroke:none;fill-rule:nonzero;fill:rgb(65.490196%,79.215686%,60%);fill-opacity:1;" d="M 608.121094 537.75 C 607.300781 539.773438 606.445312 541.792969 605.546875 543.800781 C 604.148438 546.957031 602.648438 550.089844 601.046875 553.199219 C 600.675781 553.929688 600.300781 554.65625 599.921875 555.382812 C 599.546875 556.132812 599.171875 556.832031 598.765625 557.550781 C 598.054688 558.886719 597.3125 560.214844 596.5625 561.539062 L 128.5625 561.539062 C 128.269531 561.027344 127.976562 560.519531 127.699219 560.039062 C 127.332031 559.402344 126.949219 558.765625 126.640625 558.117188 C 126.332031 557.472656 125.890625 556.691406 125.5 555.972656 L 125.503906 555.976562 C 125.472656 555.921875 125.445312 555.867188 125.421875 555.808594 C 124.972656 554.953125 124.535156 554.089844 124.109375 553.230469 C 122.609375 550.15625 121.195312 547.023438 119.871094 543.832031 C 119.0625 541.832031 118.289062 539.816406 117.554688 537.78125 C 113.269531 525.773438 110.53125 513.265625 109.410156 500.566406 C 107.542969 478.816406 110.054688 456.910156 116.796875 436.148438 C 117.742188 433.195312 118.765625 430.253906 119.871094 427.328125 L 617.871094 427.328125 C 618.535156 430.253906 619.128906 433.191406 619.648438 436.148438 C 625.5 469.5 621.472656 504.847656 608.121094 537.75 Z M 608.121094 537.75 " />
</g><g id="character_builder_plant-4"><path style=" stroke:none;fill-rule:nonzero;fill:rgb(65.490196%,79.215686%,60%);fill-opacity:1;" d="M 617.871094 427.304688 L 492.808594 427.304688 L 483.996094 146.691406 C 490.042969 148.816406 495.9375 151.355469 501.628906 154.296875 C 518.269531 162.898438 533.082031 174.640625 545.25 188.878906 C 577.710938 226.703125 587.25 275.832031 574.546875 317.453125 C 570.226562 331.574219 573.285156 346.222656 582.347656 356.746094 C 582.40625 356.804688 582.460938 356.875 582.511719 356.933594 C 597.855469 374.824219 609.140625 395.828125 615.59375 418.5 C 616.433594 421.414062 617.195312 424.351562 617.875 427.304688 Z M 617.871094 427.304688 " />
</g><g id="character_builder_plant-5"><path style=" stroke:none;fill-rule:nonzero;fill:rgb(70.196078%,84.705882%,64.313725%);fill-opacity:1;" d="M 601.078125 553.207031 C 600.707031 553.9375 600.332031 554.664062 599.953125 555.390625 C 599.578125 556.140625 599.203125 556.839844 598.796875 557.558594 C 598.085938 558.894531 597.34375 560.222656 596.59375 561.546875 C 596.390625 561.898438 596.195312 562.246094 595.984375 562.597656 C 594.820312 564.628906 593.605469 566.648438 592.363281 568.648438 C 581.125 586.621094 567.214844 602.78125 551.113281 616.566406 C 545.078125 621.75 538.757812 626.585938 532.175781 631.058594 C 482.847656 664.597656 423.792969 674.035156 372.074219 659.917969 C 345.546875 652.671875 317.878906 649.042969 289.820312 648.292969 C 222.066406 646.5 163.976562 616.304688 132.929688 568.652344 C 131.628906 566.652344 130.378906 564.636719 129.179688 562.601562 C 128.96875 562.257812 128.765625 561.902344 128.566406 561.550781 C 128.273438 561.039062 127.980469 560.53125 127.703125 560.050781 C 127.335938 559.414062 126.953125 558.777344 126.644531 558.128906 C 126.335938 557.484375 125.894531 556.703125 125.503906 555.984375 C 125.472656 555.929688 125.445312 555.875 125.421875 555.816406 C 124.972656 554.960938 124.535156 554.097656 124.109375 553.238281 Z M 601.078125 553.207031 " />
</g><g id="character_builder_plant-6"><path style=" stroke:none;fill-rule:nonzero;fill:rgb(62.352941%,79.607843%,55.686275%);fill-opacity:1;" d="M 601.078125 553.207031 C 600.707031 553.9375 600.332031 554.664062 599.953125 555.390625 C 599.578125 556.140625 599.203125 556.839844 598.796875 557.558594 C 598.085938 558.894531 597.34375 560.222656 596.59375 561.546875 C 596.390625 561.898438 596.195312 562.246094 595.984375 562.597656 C 594.820312 564.628906 593.605469 566.648438 592.363281 568.648438 C 581.125 586.621094 567.214844 602.78125 551.113281 616.566406 C 545.078125 621.75 538.757812 626.585938 532.175781 631.058594 C 461.472656 620.695312 388.4375 626.882812 317.039062 619.109375 L 316.769531 619.109375 C 309.351562 618.210938 306.375 610.859375 308.519531 605.152344 C 309.632812 602.242188 312.046875 600.019531 315.039062 599.152344 L 355 586.5 L 388.800781 575.863281 C 391.320312 575.066406 394 574.167969 395.601562 572.066406 C 398.421875 568.382812 396.351562 562.660156 392.542969 560.015625 C 389.683594 558.027344 386.226562 557.308594 382.71875 556.941406 C 380.746094 556.738281 378.757812 556.664062 376.777344 556.65625 C 346.328125 556.558594 315.816406 554.660156 285.277344 553.191406 Z M 601.078125 553.207031 " />
</g><g id="character_builder_plant-7"><path style=" stroke:none;fill-rule:nonzero;fill:rgb(73.72549%,87.058824%,68.627451%);fill-opacity:1;" d="M 196.5 329.550781 L 196.5 427.3125 L 192.472656 427.3125 L 192.472656 332.566406 C 193.816406 331.546875 195.160156 330.542969 196.5 329.550781 Z M 196.5 329.550781 " />
</g><g id="character_builder_plant-8"><path style=" stroke:none;fill-rule:nonzero;fill:rgb(73.72549%,87.058824%,68.627451%);fill-opacity:1;" d="M 483.996094 237.953125 L 483.996094 241.980469 L 324.679688 241.980469 C 324.84375 240.640625 325.027344 239.296875 325.226562 237.953125 Z M 483.996094 237.953125 " />
</g><g id="character_builder_plant-9"><path style=" stroke:none;fill-rule:nonzero;fill:rgb(73.72549%,87.058824%,68.627451%);fill-opacity:1;" d="M 619.648438 436.125 L 116.8125 436.125 C 117.050781 435.375 117.292969 434.625 117.5625 433.875 C 118.3125 431.671875 119.0625 429.480469 119.902344 427.296875 C 120.179688 426.546875 120.472656 425.796875 120.765625 425.046875 C 121.304688 423.6875 121.851562 422.332031 122.421875 420.980469 C 122.765625 420.148438 123.125 419.316406 123.488281 418.492188 L 615.59375 418.492188 C 616.433594 421.414062 617.183594 424.351562 617.84375 427.304688 C 618.503906 430.257812 619.105469 433.199219 619.652344 436.125 Z M 619.648438 436.125 " />
</g><g id="character_builder_plant-10"><path style=" stroke:none;fill-rule:nonzero;fill:rgb(73.72549%,87.058824%,68.627451%);fill-opacity:1;" d="M 501.628906 154.296875 L 501.628906 427.296875 L 483.996094 427.296875 L 483.996094 146.691406 C 490.042969 148.816406 495.9375 151.355469 501.628906 154.296875 Z M 501.628906 154.296875 " />
</g><g id="character_builder_plant-11"><path style=" stroke:none;fill-rule:nonzero;fill:rgb(54.509804%,68.627451%,48.235294%);fill-opacity:1;" d="M 605.550781 543.808594 C 604.152344 546.964844 602.652344 550.097656 601.050781 553.207031 C 600.679688 553.9375 600.304688 554.664062 599.925781 555.390625 C 599.550781 556.140625 599.175781 556.839844 598.769531 557.558594 C 598.058594 558.894531 597.316406 560.222656 596.566406 561.546875 C 596.363281 561.898438 596.167969 562.246094 595.957031 562.597656 L 129.195312 562.597656 C 128.984375 562.253906 128.78125 561.898438 128.582031 561.546875 C 128.289062 561.035156 127.996094 560.527344 127.71875 560.046875 C 127.351562 559.410156 126.96875 558.773438 126.660156 558.125 C 126.351562 557.480469 125.910156 556.699219 125.519531 555.980469 L 125.519531 555.984375 C 125.488281 555.929688 125.460938 555.875 125.4375 555.816406 C 124.988281 554.960938 124.550781 554.097656 124.125 553.238281 C 122.625 550.164062 121.210938 547.03125 119.886719 543.839844 Z M 605.550781 543.808594 " />
</g><g id="character_builder_plant-12"><path style=" stroke:none;fill-rule:nonzero;fill:rgb(90.196078%,96.470588%,87.843137%);fill-opacity:1;" d="M 402.75 301.058594 C 407.4375 294.242188 411.5625 286.808594 417.960938 281.558594 C 421.710938 278.453125 426.820312 276.160156 431.460938 277.6875 C 435.914062 279.1875 438.683594 283.882812 439.125 288.554688 C 439.566406 293.226562 438.089844 297.855469 436.351562 302.210938 C 422.25 337.363281 388.5 363.589844 351.046875 369.3125 C 347.296875 369.882812 343.425781 370.25 339.855469 369.035156 C 336.285156 367.820312 333.105469 364.625 333.105469 360.851562 C 333.03125 347.773438 357.855469 341.398438 366.261719 336.101562 L 366.261719 336.105469 C 380.664062 327 393.074219 315.078125 402.75 301.058594 Z M 402.75 301.058594 " />
</g><g id="character_builder_plant-13"><path style=" stroke:none;fill-rule:nonzero;fill:rgb(90.196078%,96.470588%,87.843137%);fill-opacity:1;" d="M 361.550781 385.972656 C 361.230469 387.703125 361.945312 389.457031 363.382812 390.472656 C 364.207031 390.90625 365.121094 391.144531 366.050781 391.164062 C 371.941406 391.617188 377.796875 389.9375 382.550781 386.4375 C 386.171875 383.746094 391.316406 378.121094 391.550781 373.273438 C 391.785156 368.429688 386.734375 368.164062 382.214844 368.773438 C 375.066406 369.75 362.640625 378.605469 361.550781 385.972656 Z M 361.550781 385.972656 " />
</g><g id="character_builder_plant-14"><path style=" stroke:none;fill-rule:nonzero;fill:rgb(54.509804%,68.627451%,48.235294%);fill-opacity:1;" d="M 510.890625 508.664062 C 510.621094 497.316406 507.09375 486.488281 502.820312 476.070312 L 502.824219 476.070312 C 498.832031 466.351562 494.039062 456.984375 488.496094 448.058594 C 477.304688 430.070312 463.210938 414.0625 446.789062 400.679688 C 446.039062 400.078125 444.972656 401.128906 445.722656 401.746094 L 445.726562 401.746094 C 461.738281 414.765625 475.523438 430.304688 486.546875 447.75 C 491.902344 456.230469 496.570312 465.128906 500.503906 474.351562 C 505.144531 485.25 509.105469 496.679688 509.390625 508.632812 L 509.390625 508.636719 C 509.390625 509.050781 509.726562 509.386719 510.140625 509.386719 C 510.558594 509.386719 510.890625 509.050781 510.890625 508.636719 Z M 510.890625 508.664062 " />
</g><g id="character_builder_plant-15"><path style=" stroke:none;fill-rule:nonzero;fill:rgb(41.568627%,53.72549%,34.509804%);fill-opacity:1;" d="M 489.554688 442.042969 C 478.585938 425.363281 465.148438 410.445312 449.707031 397.792969 C 444.878906 393.855469 437.933594 400.71875 442.808594 404.691406 C 457.644531 416.777344 470.5625 431.042969 481.125 447 C 484.574219 452.25 493.035156 447.335938 489.554688 442.074219 Z M 489.554688 442.042969 " />
</g><g id="character_builder_plant-16"><path style=" stroke:none;fill-rule:nonzero;fill:rgb(54.509804%,68.627451%,48.235294%);fill-opacity:1;" d="M 520.824219 512.664062 C 507.570312 452.292969 509.414062 389.585938 526.191406 330.097656 C 530.996094 313.085938 537.011719 296.441406 544.191406 280.289062 C 544.582031 279.410156 543.292969 278.648438 542.902344 279.539062 C 517.574219 336.703125 506.839844 399.265625 511.671875 461.601562 C 513.03125 478.914062 515.601562 496.113281 519.359375 513.066406 C 519.570312 514.003906 521.015625 513.605469 520.808594 512.667969 Z M 520.824219 512.664062 " />
</g><g id="character_builder_plant-17"><path style=" stroke:none;fill-rule:nonzero;fill:rgb(54.509804%,68.627451%,48.235294%);fill-opacity:1;" d="M 528.308594 515.445312 C 535.4375 434.703125 564.390625 357.421875 612.066406 291.871094 C 612.636719 291.082031 611.316406 290.332031 610.769531 291.121094 C 562.933594 356.890625 533.894531 434.4375 526.769531 515.453125 C 526.6875 516.414062 528.1875 516.414062 528.269531 515.453125 Z M 528.308594 515.445312 " />
</g><g id="character_builder_plant-18"><path style=" stroke:none;fill-rule:nonzero;fill:rgb(54.509804%,68.627451%,48.235294%);fill-opacity:1;" d="M 544.328125 514.15625 C 549.984375 469.90625 571.949219 428.328125 604.753906 398.175781 C 614.097656 389.601562 624.292969 382.003906 635.183594 375.511719 C 635.523438 375.292969 635.628906 374.851562 635.429688 374.5 C 635.226562 374.152344 634.789062 374.027344 634.433594 374.210938 C 595.636719 397.386719 565.929688 434.625 551.339844 477.351562 C 547.269531 489.300781 544.421875 501.632812 542.835938 514.15625 C 542.707031 515.109375 544.207031 515.101562 544.335938 514.15625 Z M 544.328125 514.15625 " />
</g><g id="character_builder_plant-19"><path style=" stroke:none;fill-rule:nonzero;fill:rgb(41.568627%,53.72549%,34.509804%);fill-opacity:1;" d="M 588.96875 423.503906 C 602.671875 406.375 619.304688 391.808594 638.09375 380.484375 C 645.269531 376.1875 638.738281 364.929688 631.523438 369.234375 C 611.757812 381.089844 594.238281 396.339844 579.773438 414.285156 C 577.5625 417.015625 577.101562 420.816406 579.773438 423.488281 C 582.023438 425.738281 586.757812 426.234375 588.976562 423.488281 Z M 588.96875 423.503906 " />
</g><g id="character_builder_plant-20"><path style=" stroke:none;fill-rule:nonzero;fill:rgb(54.509804%,68.627451%,48.235294%);fill-opacity:1;" d="M 610.5 292.246094 C 610.578125 292.613281 610.484375 292.992188 610.25 293.285156 C 610.011719 293.574219 609.660156 293.742188 609.285156 293.746094 C 603.675781 293.71875 598.328125 291.367188 594.515625 287.25 C 588.179688 280.453125 585.378906 272.191406 584.480469 269.003906 L 584.484375 269.003906 C 584.425781 268.742188 584.511719 268.472656 584.707031 268.289062 C 584.902344 268.109375 585.179688 268.046875 585.433594 268.125 C 588.589844 269.300781 596.820312 272.761719 602.886719 278.699219 C 606.640625 282.414062 609.277344 287.105469 610.5 292.246094 Z M 610.5 292.246094 " />
</g><g id="character_builder_plant-21"><path style=" stroke:none;fill-rule:nonzero;fill:rgb(54.509804%,68.627451%,48.235294%);fill-opacity:1;" d="M 610.011719 292.546875 C 609.925781 292.917969 610.011719 293.308594 610.25 293.605469 C 610.484375 293.90625 610.847656 294.082031 611.226562 294.082031 C 616.839844 294.042969 622.1875 291.675781 625.988281 287.542969 C 632.324219 280.742188 635.128906 272.476562 636.03125 269.296875 C 636.089844 269.03125 636.007812 268.753906 635.808594 268.574219 C 635.609375 268.390625 635.328125 268.328125 635.070312 268.410156 C 631.921875 269.59375 623.691406 273.050781 617.625 278.984375 C 613.871094 282.707031 611.234375 287.402344 610.011719 292.546875 Z M 610.011719 292.546875 " />
</g><g id="character_builder_plant-22"><path style=" stroke:none;fill-rule:nonzero;fill:rgb(54.509804%,68.627451%,48.235294%);fill-opacity:1;" d="M 534.585938 302.199219 C 534.714844 302.554688 534.671875 302.953125 534.472656 303.277344 C 534.273438 303.601562 533.933594 303.816406 533.558594 303.863281 C 527.976562 304.484375 522.390625 302.757812 518.128906 299.101562 C 511.042969 293.101562 507.292969 285.203125 506.023438 282.152344 L 506.023438 282.148438 C 505.933594 281.894531 505.984375 281.613281 506.160156 281.410156 C 506.335938 281.203125 506.609375 281.109375 506.871094 281.160156 C 510.140625 281.960938 518.722656 284.4375 525.441406 289.621094 C 529.601562 292.878906 532.769531 297.234375 534.585938 302.199219 Z M 534.585938 302.199219 " />
</g><g id="character_builder_plant-23"><path style=" stroke:none;fill-rule:nonzero;fill:rgb(54.509804%,68.627451%,48.235294%);fill-opacity:1;" d="M 533.925781 302.363281 C 533.652344 302.628906 533.519531 303.007812 533.5625 303.386719 C 533.605469 303.765625 533.820312 304.105469 534.140625 304.304688 C 538.914062 307.261719 544.699219 308.109375 550.117188 306.636719 C 559.117188 304.25 565.867188 298.753906 568.328125 296.535156 C 568.515625 296.34375 568.589844 296.070312 568.519531 295.8125 C 568.449219 295.554688 568.25 295.351562 567.988281 295.28125 C 564.6875 294.605469 555.882812 293.144531 547.589844 294.9375 C 542.429688 296.089844 537.699219 298.660156 533.925781 302.363281 Z M 533.925781 302.363281 " />
</g><g id="character_builder_plant-24"><path style=" stroke:none;fill-rule:nonzero;fill:rgb(54.509804%,68.627451%,48.235294%);fill-opacity:1;" d="M 526.582031 325.746094 C 526.757812 326.089844 526.761719 326.492188 526.601562 326.839844 C 526.4375 327.1875 526.125 327.441406 525.75 327.523438 C 520.285156 328.8125 514.535156 327.773438 509.863281 324.660156 C 502.101562 319.550781 497.421875 312.1875 495.800781 309.308594 C 495.679688 309.0625 495.703125 308.769531 495.859375 308.546875 C 496.015625 308.320312 496.28125 308.199219 496.550781 308.226562 C 499.886719 308.625 508.699219 310.042969 516 314.375 L 516 314.378906 C 520.523438 317.101562 524.1875 321.042969 526.582031 325.746094 Z M 526.582031 325.746094 " />
</g><g id="character_builder_plant-25"><path style=" stroke:none;fill-rule:nonzero;fill:rgb(54.509804%,68.627451%,48.235294%);fill-opacity:1;" d="M 526.132812 325.898438 C 525.894531 326.195312 525.804688 326.589844 525.890625 326.960938 C 525.976562 327.332031 526.230469 327.644531 526.574219 327.808594 C 531.664062 330.179688 537.511719 330.328125 542.714844 328.222656 C 551.347656 324.796875 557.421875 318.53125 559.605469 316.042969 C 559.773438 315.832031 559.8125 315.546875 559.710938 315.296875 C 559.609375 315.046875 559.382812 314.871094 559.117188 314.835938 C 555.765625 314.550781 546.847656 314.152344 538.820312 316.914062 L 538.824219 316.914062 C 533.835938 318.660156 529.4375 321.773438 526.132812 325.898438 Z M 526.132812 325.898438 " />
</g><g id="character_builder_plant-26"><path style=" stroke:none;fill-rule:nonzero;fill:rgb(54.509804%,68.627451%,48.235294%);fill-opacity:1;" d="M 598.117188 311.300781 C 598.195312 311.675781 598.097656 312.066406 597.851562 312.359375 C 597.605469 312.652344 597.238281 312.816406 596.859375 312.800781 C 591.246094 312.574219 585.984375 310.027344 582.324219 305.765625 C 576.21875 298.761719 573.699219 290.40625 572.902344 287.1875 L 572.902344 287.191406 C 572.855469 286.925781 572.949219 286.65625 573.15625 286.484375 C 573.359375 286.3125 573.640625 286.261719 573.890625 286.351562 C 576.996094 287.632812 585.101562 291.367188 590.96875 297.503906 C 594.59375 301.34375 597.070312 306.125 598.117188 311.300781 Z M 598.117188 311.300781 " />
</g><g id="character_builder_plant-27"><path style=" stroke:none;fill-rule:nonzero;fill:rgb(54.509804%,68.627451%,48.235294%);fill-opacity:1;" d="M 597.644531 311.324219 C 597.335938 311.546875 597.144531 311.902344 597.128906 312.28125 C 597.109375 312.664062 597.269531 313.03125 597.554688 313.28125 C 601.824219 316.925781 607.414062 318.632812 612.988281 318 C 622.226562 317.023438 629.765625 312.621094 632.535156 310.808594 C 632.75 310.648438 632.863281 310.386719 632.832031 310.121094 C 632.800781 309.851562 632.628906 309.625 632.386719 309.515625 C 629.238281 308.339844 620.753906 305.554688 612.277344 306.050781 C 607.003906 306.410156 601.933594 308.238281 597.644531 311.324219 Z M 597.644531 311.324219 " />
</g><g id="character_builder_plant-28"><path style=" stroke:none;fill-rule:nonzero;fill:rgb(54.509804%,68.627451%,48.235294%);fill-opacity:1;" d="M 522.105469 340.941406 C 522.390625 341.195312 522.546875 341.5625 522.527344 341.945312 C 522.507812 342.324219 522.316406 342.675781 522.007812 342.898438 C 517.410156 346.125 511.683594 347.292969 506.191406 346.132812 C 497.085938 344.273438 490.007812 339.164062 487.441406 337.09375 C 487.242188 336.914062 487.15625 336.644531 487.210938 336.382812 C 487.265625 336.121094 487.457031 335.910156 487.710938 335.828125 C 490.964844 334.957031 499.710938 333 508.058594 334.328125 C 513.265625 335.175781 518.132812 337.46875 522.105469 340.941406 Z M 522.105469 340.941406 " />
</g><g id="character_builder_plant-29"><path style=" stroke:none;fill-rule:nonzero;fill:rgb(54.509804%,68.627451%,48.235294%);fill-opacity:1;" d="M 522.953125 340.941406 C 522.667969 341.195312 522.511719 341.566406 522.53125 341.945312 C 522.554688 342.328125 522.746094 342.679688 523.058594 342.898438 C 527.652344 346.121094 533.378906 347.292969 538.867188 346.132812 C 547.972656 344.273438 555.050781 339.164062 557.617188 337.09375 C 557.816406 336.914062 557.902344 336.644531 557.847656 336.382812 C 557.792969 336.121094 557.601562 335.910156 557.347656 335.828125 C 554.101562 334.957031 545.394531 333 537.007812 334.328125 C 531.796875 335.179688 526.929688 337.472656 522.953125 340.941406 Z M 522.953125 340.941406 " />
</g><g id="character_builder_plant-30"><path style=" stroke:none;fill-rule:nonzero;fill:rgb(54.509804%,68.627451%,48.235294%);fill-opacity:1;" d="M 587.761719 326.820312 C 587.894531 327.179688 587.855469 327.585938 587.652344 327.914062 C 587.449219 328.242188 587.109375 328.457031 586.726562 328.5 C 581.144531 329.089844 575.566406 327.335938 571.328125 323.65625 C 564.261719 317.609375 560.558594 309.714844 559.328125 306.644531 C 559.242188 306.394531 559.296875 306.117188 559.472656 305.914062 C 559.648438 305.714844 559.914062 305.621094 560.175781 305.671875 C 563.4375 306.488281 572.003906 309 578.699219 314.214844 L 578.699219 314.210938 C 582.835938 317.488281 585.972656 321.855469 587.761719 326.820312 Z M 587.761719 326.820312 " />
</g><g id="character_builder_plant-31"><path style=" stroke:none;fill-rule:nonzero;fill:rgb(54.509804%,68.627451%,48.235294%);fill-opacity:1;" d="M 588.503906 327.234375 C 588.132812 327.316406 587.816406 327.5625 587.648438 327.902344 C 587.480469 328.246094 587.476562 328.644531 587.640625 328.988281 C 590.09375 334.035156 594.535156 337.839844 599.902344 339.488281 C 608.765625 342.277344 617.429688 341.25 620.691406 340.6875 C 620.953125 340.628906 621.160156 340.433594 621.238281 340.179688 C 621.316406 339.921875 621.253906 339.644531 621.074219 339.449219 C 618.652344 337.109375 611.984375 331.199219 604.019531 328.25 L 604.019531 328.253906 C 599.042969 326.46875 593.667969 326.117188 588.503906 327.234375 Z M 588.503906 327.234375 " />
</g><g id="character_builder_plant-32"><path style=" stroke:none;fill-rule:nonzero;fill:rgb(54.509804%,68.627451%,48.235294%);fill-opacity:1;" d="M 517.921875 361.671875 C 518.167969 361.886719 518.300781 362.203125 518.285156 362.53125 C 518.269531 362.859375 518.105469 363.160156 517.835938 363.351562 C 513.890625 366.121094 508.96875 367.128906 504.246094 366.136719 C 498.355469 364.800781 492.84375 362.144531 488.128906 358.363281 C 487.945312 358.21875 487.863281 357.980469 487.910156 357.75 C 487.960938 357.519531 488.136719 357.335938 488.363281 357.277344 C 491.152344 356.527344 498.636719 354.847656 505.839844 355.980469 L 505.835938 355.980469 C 510.320312 356.707031 514.503906 358.679688 517.921875 361.671875 Z M 517.921875 361.671875 " />
</g><g id="character_builder_plant-33"><path style=" stroke:none;fill-rule:nonzero;fill:rgb(54.509804%,68.627451%,48.235294%);fill-opacity:1;" d="M 517.777344 361.671875 C 517.53125 361.886719 517.394531 362.203125 517.414062 362.53125 C 517.429688 362.859375 517.59375 363.160156 517.859375 363.351562 C 521.808594 366.121094 526.730469 367.128906 531.449219 366.136719 C 537.339844 364.800781 542.851562 362.144531 547.566406 358.363281 C 547.75 358.21875 547.835938 357.980469 547.785156 357.75 C 547.738281 357.519531 547.5625 357.335938 547.335938 357.277344 C 544.546875 356.527344 537.0625 354.847656 529.859375 355.980469 C 525.378906 356.707031 521.191406 358.679688 517.777344 361.671875 Z M 517.777344 361.671875 " />
</g><g id="character_builder_plant-34"><path style=" stroke:none;fill-rule:nonzero;fill:rgb(54.509804%,68.627451%,48.235294%);fill-opacity:1;" d="M 579.097656 343.828125 C 579.21875 344.132812 579.199219 344.476562 579.035156 344.761719 C 578.875 345.046875 578.589844 345.242188 578.265625 345.292969 C 573.492188 345.992188 568.644531 344.679688 564.878906 341.671875 C 560.214844 337.828125 556.484375 332.976562 553.972656 327.480469 C 553.875 327.265625 553.902344 327.011719 554.050781 326.828125 C 554.199219 326.644531 554.4375 326.558594 554.671875 326.609375 C 557.5 327.203125 564.9375 329.0625 570.863281 333.308594 C 574.535156 335.980469 577.386719 339.625 579.097656 343.828125 Z M 579.097656 343.828125 " />
</g><g id="character_builder_plant-35"><path style=" stroke:none;fill-rule:nonzero;fill:rgb(54.509804%,68.627451%,48.235294%);fill-opacity:1;" d="M 579 343.761719 C 578.695312 343.847656 578.441406 344.066406 578.3125 344.355469 C 578.183594 344.644531 578.1875 344.976562 578.324219 345.261719 C 580.601562 349.515625 584.542969 352.628906 589.207031 353.859375 C 595.070312 355.316406 601.1875 355.425781 607.09375 354.171875 C 607.328125 354.125 607.511719 353.949219 607.574219 353.722656 C 607.632812 353.492188 607.558594 353.25 607.378906 353.09375 C 605.21875 351.171875 599.292969 346.34375 592.378906 344.09375 C 588.039062 342.734375 583.402344 342.621094 579 343.761719 Z M 579 343.761719 " />
</g><g id="character_builder_plant-36"><path style=" stroke:none;fill-rule:nonzero;fill:rgb(54.509804%,68.627451%,48.235294%);fill-opacity:1;" d="M 555.316406 395.46875 C 555.453125 395.777344 555.4375 396.128906 555.273438 396.425781 C 555.109375 396.71875 554.816406 396.921875 554.484375 396.96875 C 549.710938 397.671875 544.859375 396.359375 541.09375 393.34375 C 536.433594 389.503906 532.703125 384.65625 530.191406 379.164062 C 530.09375 378.949219 530.121094 378.699219 530.269531 378.515625 C 530.414062 378.332031 530.648438 378.246094 530.878906 378.292969 C 533.714844 378.878906 541.152344 380.738281 547.078125 384.992188 L 547.078125 384.988281 C 550.746094 387.648438 553.597656 391.277344 555.316406 395.46875 Z M 555.316406 395.46875 " />
</g><g id="character_builder_plant-37"><path style=" stroke:none;fill-rule:nonzero;fill:rgb(54.509804%,68.627451%,48.235294%);fill-opacity:1;" d="M 555.179688 395.398438 C 554.875 395.484375 554.621094 395.703125 554.492188 395.992188 C 554.363281 396.28125 554.367188 396.613281 554.503906 396.898438 C 556.777344 401.15625 560.722656 404.273438 565.386719 405.503906 C 571.25 406.957031 577.367188 407.0625 583.273438 405.808594 C 583.507812 405.761719 583.691406 405.589844 583.753906 405.359375 C 583.8125 405.128906 583.738281 404.886719 583.558594 404.730469 C 581.398438 402.808594 575.472656 397.941406 568.558594 395.730469 C 564.21875 394.371094 559.582031 394.253906 555.179688 395.398438 Z M 555.179688 395.398438 " />
</g><g id="character_builder_plant-38"><path style=" stroke:none;fill-rule:nonzero;fill:rgb(54.509804%,68.627451%,48.235294%);fill-opacity:1;" d="M 514.546875 379.738281 C 514.820312 379.914062 515.003906 380.207031 515.035156 380.535156 C 515.070312 380.859375 514.953125 381.183594 514.71875 381.414062 C 511.25 384.75 506.554688 386.503906 501.75 386.25 C 495.71875 385.824219 489.867188 384.027344 484.636719 381 C 484.429688 380.882812 484.3125 380.660156 484.324219 380.425781 C 484.335938 380.191406 484.480469 379.984375 484.695312 379.890625 C 487.34375 378.726562 494.445312 375.929688 501.773438 375.945312 C 506.300781 376 510.722656 377.3125 514.546875 379.738281 Z M 514.546875 379.738281 " />
</g><g id="character_builder_plant-39"><path style=" stroke:none;fill-rule:nonzero;fill:rgb(54.509804%,68.627451%,48.235294%);fill-opacity:1;" d="M 515.167969 380.039062 C 514.851562 380.132812 514.597656 380.363281 514.476562 380.667969 C 514.351562 380.972656 514.375 381.316406 514.539062 381.601562 C 516.957031 385.777344 521 388.765625 525.703125 389.851562 C 531.613281 391.109375 537.726562 391.011719 543.59375 389.566406 C 543.820312 389.507812 543.996094 389.328125 544.050781 389.097656 C 544.101562 388.871094 544.023438 388.628906 543.847656 388.476562 C 541.597656 386.625 535.539062 381.960938 528.523438 379.964844 C 524.152344 378.742188 519.527344 378.769531 515.167969 380.039062 Z M 515.167969 380.039062 " />
</g><g id="character_builder_plant-40"><path style=" stroke:none;fill-rule:nonzero;fill:rgb(54.509804%,68.627451%,48.235294%);fill-opacity:1;" d="M 571.222656 358.628906 C 571.4375 358.875 571.523438 359.210938 571.464844 359.53125 C 571.402344 359.855469 571.199219 360.132812 570.90625 360.285156 C 566.613281 362.480469 561.597656 362.796875 557.0625 361.15625 C 551.410156 359.019531 546.320312 355.625 542.175781 351.234375 C 542.015625 351.0625 541.964844 350.8125 542.046875 350.59375 C 542.125 350.375 542.324219 350.21875 542.558594 350.191406 C 545.421875 349.839844 553.058594 349.207031 560.046875 351.324219 C 564.382812 352.664062 568.253906 355.195312 571.222656 358.628906 Z M 571.222656 358.628906 " />
</g><g id="character_builder_plant-41"><path style=" stroke:none;fill-rule:nonzero;fill:rgb(54.509804%,68.627451%,48.235294%);fill-opacity:1;" d="M 571.734375 359.09375 C 571.40625 359.089844 571.09375 359.238281 570.890625 359.496094 C 570.6875 359.75 570.609375 360.085938 570.683594 360.40625 C 571.796875 365.097656 574.808594 369.113281 579 371.496094 C 584.308594 374.40625 590.207031 376.066406 596.25 376.359375 C 596.484375 376.367188 596.707031 376.246094 596.820312 376.042969 C 596.9375 375.835938 596.929688 375.585938 596.796875 375.390625 C 595.199219 372.984375 590.714844 366.765625 584.570312 362.835938 L 584.574219 362.835938 C 580.726562 360.414062 576.277344 359.117188 571.734375 359.09375 Z M 571.734375 359.09375 " />
</g><g id="character_builder_plant-42"><path style=" stroke:none;fill-rule:nonzero;fill:rgb(54.509804%,68.627451%,48.235294%);fill-opacity:1;" d="M 512.609375 397.320312 C 512.835938 397.460938 512.980469 397.695312 513.007812 397.957031 C 513.039062 398.21875 512.941406 398.480469 512.753906 398.664062 C 509.953125 401.347656 506.164062 402.75 502.289062 402.53125 C 497.445312 402.191406 492.738281 400.753906 488.527344 398.332031 C 488.367188 398.234375 488.273438 398.054688 488.28125 397.867188 C 488.292969 397.679688 488.40625 397.511719 488.578125 397.433594 C 490.707031 396.503906 496.445312 394.253906 502.3125 394.269531 L 502.3125 394.265625 C 505.960938 394.304688 509.53125 395.359375 512.609375 397.320312 Z M 512.609375 397.320312 " />
</g><g id="character_builder_plant-43"><path style=" stroke:none;fill-rule:nonzero;fill:rgb(54.509804%,68.627451%,48.235294%);fill-opacity:1;" d="M 513.105469 397.5 C 512.863281 397.601562 512.675781 397.804688 512.605469 398.058594 C 512.53125 398.3125 512.578125 398.582031 512.730469 398.796875 C 514.988281 401.949219 518.460938 404.019531 522.308594 404.511719 C 527.132812 405.058594 532.023438 404.503906 536.601562 402.886719 C 536.78125 402.820312 536.910156 402.664062 536.933594 402.472656 C 536.957031 402.285156 536.875 402.097656 536.714844 401.992188 C 534.792969 400.6875 529.558594 397.433594 523.792969 396.382812 C 520.195312 395.746094 516.492188 396.132812 513.105469 397.5 Z M 513.105469 397.5 " />
</g><g id="character_builder_plant-44"><path style=" stroke:none;fill-rule:nonzero;fill:rgb(54.509804%,68.627451%,48.235294%);fill-opacity:1;" d="M 550.273438 408 C 550.5 408.140625 550.644531 408.378906 550.671875 408.640625 C 550.695312 408.90625 550.601562 409.167969 550.410156 409.351562 C 547.617188 412.046875 543.832031 413.460938 539.953125 413.25 C 535.109375 412.910156 530.402344 411.472656 526.191406 409.042969 C 526.03125 408.945312 525.933594 408.769531 525.945312 408.582031 C 525.957031 408.390625 526.074219 408.226562 526.246094 408.148438 C 528.375 407.21875 534.113281 404.96875 539.980469 404.984375 L 539.976562 404.984375 C 543.625 405.011719 547.191406 406.054688 550.273438 408 Z M 550.273438 408 " />
</g><g id="character_builder_plant-45"><path style=" stroke:none;fill-rule:nonzero;fill:rgb(54.509804%,68.627451%,48.235294%);fill-opacity:1;" d="M 550.769531 408.203125 C 550.527344 408.300781 550.34375 408.507812 550.269531 408.761719 C 550.195312 409.011719 550.242188 409.285156 550.394531 409.5 C 552.65625 412.652344 556.125 414.722656 559.972656 415.214844 C 564.800781 415.761719 569.6875 415.207031 574.265625 413.585938 C 574.449219 413.523438 574.574219 413.363281 574.601562 413.175781 C 574.625 412.988281 574.539062 412.800781 574.378906 412.695312 C 572.457031 411.390625 567.214844 408.136719 561.449219 407.078125 C 557.855469 406.449219 554.15625 406.839844 550.769531 408.203125 Z M 550.769531 408.203125 " />
</g><g id="character_builder_plant-46"><path style=" stroke:none;fill-rule:nonzero;fill:rgb(54.509804%,68.627451%,48.235294%);fill-opacity:1;" d="M 563.332031 375.105469 C 563.503906 375.304688 563.570312 375.574219 563.515625 375.832031 C 563.460938 376.089844 563.292969 376.308594 563.054688 376.425781 C 559.578125 378.140625 555.542969 378.335938 551.917969 376.957031 C 547.402344 375.167969 543.351562 372.375 540.074219 368.789062 C 539.945312 368.652344 539.90625 368.449219 539.972656 368.273438 C 540.039062 368.09375 540.203125 367.96875 540.390625 367.949219 C 542.699219 367.703125 548.859375 367.296875 554.4375 369.082031 C 557.90625 370.21875 560.988281 372.304688 563.332031 375.105469 Z M 563.332031 375.105469 " />
</g><g id="character_builder_plant-47"><path style=" stroke:none;fill-rule:nonzero;fill:rgb(54.509804%,68.627451%,48.235294%);fill-opacity:1;" d="M 563.753906 375.433594 C 563.488281 375.457031 563.25 375.597656 563.105469 375.816406 C 562.960938 376.035156 562.921875 376.308594 563.003906 376.558594 C 564.207031 380.246094 566.886719 383.265625 570.40625 384.898438 C 574.84375 386.878906 579.671875 387.824219 584.527344 387.667969 C 584.71875 387.660156 584.886719 387.546875 584.96875 387.375 C 585.046875 387.203125 585.023438 387 584.902344 386.851562 C 583.460938 385.027344 579.457031 380.339844 574.273438 377.597656 L 574.273438 377.59375 C 571.039062 375.902344 567.394531 375.15625 563.753906 375.433594 Z M 563.753906 375.433594 " />
</g><g id="character_builder_plant-48"><path style=" stroke:none;fill-rule:nonzero;fill:rgb(54.509804%,68.627451%,48.235294%);fill-opacity:1;" d="M 511.214844 411.585938 C 511.457031 411.683594 511.644531 411.886719 511.71875 412.140625 C 511.796875 412.390625 511.753906 412.664062 511.605469 412.882812 C 509.359375 416.042969 505.902344 418.128906 502.058594 418.640625 C 497.230469 419.214844 492.339844 418.6875 487.746094 417.097656 C 487.570312 417.03125 487.445312 416.875 487.421875 416.6875 C 487.398438 416.503906 487.480469 416.320312 487.636719 416.210938 C 489.550781 414.890625 494.769531 411.605469 500.527344 410.519531 C 504.121094 409.871094 507.820312 410.242188 511.214844 411.585938 Z M 511.214844 411.585938 " />
</g><g id="character_builder_plant-49"><path style=" stroke:none;fill-rule:nonzero;fill:rgb(54.509804%,68.627451%,48.235294%);fill-opacity:1;" d="M 512.300781 411.585938 C 512.058594 411.683594 511.871094 411.886719 511.796875 412.140625 C 511.722656 412.390625 511.765625 412.664062 511.914062 412.882812 C 514.15625 416.042969 517.617188 418.128906 521.460938 418.640625 C 526.28125 419.214844 531.171875 418.6875 535.761719 417.097656 C 535.941406 417.035156 536.066406 416.878906 536.09375 416.691406 C 536.117188 416.503906 536.035156 416.320312 535.882812 416.210938 C 533.96875 414.890625 528.75 411.605469 522.992188 410.519531 L 522.988281 410.519531 C 519.398438 409.871094 515.695312 410.238281 512.300781 411.585938 Z M 512.300781 411.585938 " />
</g><g id="character_builder_plant-50"><path style=" stroke:none;fill-rule:nonzero;fill:rgb(54.509804%,68.627451%,48.235294%);fill-opacity:1;" d="M 545.128906 423.585938 C 545.34375 423.738281 545.472656 423.984375 545.484375 424.246094 C 545.496094 424.507812 545.390625 424.761719 545.191406 424.933594 C 542.238281 427.453125 538.371094 428.632812 534.515625 428.191406 C 529.695312 427.566406 525.078125 425.851562 521.015625 423.179688 C 520.859375 423.074219 520.773438 422.890625 520.792969 422.703125 C 520.816406 422.511719 520.945312 422.351562 521.121094 422.289062 C 523.296875 421.488281 529.160156 419.574219 535.011719 419.941406 C 538.660156 420.183594 542.164062 421.445312 545.128906 423.585938 Z M 545.128906 423.585938 " />
</g><g id="character_builder_plant-51"><path style=" stroke:none;fill-rule:nonzero;fill:rgb(54.509804%,68.627451%,48.235294%);fill-opacity:1;" d="M 546.1875 423.855469 C 545.925781 423.886719 545.691406 424.039062 545.554688 424.265625 C 545.421875 424.492188 545.394531 424.769531 545.488281 425.015625 C 546.890625 428.632812 549.734375 431.507812 553.335938 432.945312 C 557.871094 434.683594 562.746094 435.371094 567.585938 434.949219 C 567.773438 434.933594 567.9375 434.8125 568.011719 434.636719 C 568.082031 434.460938 568.046875 434.257812 567.921875 434.113281 C 566.382812 432.375 562.132812 427.902344 556.8125 425.441406 L 556.816406 425.445312 C 553.488281 423.933594 549.808594 423.382812 546.1875 423.855469 Z M 546.1875 423.855469 " />
</g><g id="character_builder_plant-52"><path style=" stroke:none;fill-rule:nonzero;fill:rgb(54.509804%,68.627451%,48.235294%);fill-opacity:1;" d="M 511.171875 425.625 C 511.34375 425.695312 511.476562 425.84375 511.53125 426.023438 C 511.585938 426.203125 511.554688 426.398438 511.449219 426.554688 C 509.832031 428.832031 507.34375 430.335938 504.578125 430.703125 C 501.109375 431.117188 497.59375 430.738281 494.296875 429.59375 C 494.167969 429.546875 494.074219 429.433594 494.054688 429.296875 C 494.035156 429.160156 494.09375 429.027344 494.203125 428.949219 C 497.003906 427 500.15625 425.609375 503.484375 424.859375 C 506.066406 424.390625 508.730469 424.65625 511.171875 425.625 Z M 511.171875 425.625 " />
</g><g id="character_builder_plant-53"><path style=" stroke:none;fill-rule:nonzero;fill:rgb(54.509804%,68.627451%,48.235294%);fill-opacity:1;" d="M 511.6875 425.625 C 511.511719 425.695312 511.378906 425.84375 511.324219 426.023438 C 511.273438 426.203125 511.304688 426.398438 511.410156 426.554688 C 513.023438 428.832031 515.515625 430.332031 518.28125 430.703125 C 521.75 431.117188 525.269531 430.738281 528.570312 429.59375 C 528.699219 429.542969 528.789062 429.429688 528.804688 429.292969 C 528.824219 429.160156 528.765625 429.027344 528.652344 428.949219 C 525.851562 427 522.703125 425.609375 519.375 424.859375 C 516.792969 424.390625 514.128906 424.65625 511.6875 425.625 Z M 511.6875 425.625 " />
</g><g id="character_builder_plant-54"><path style=" stroke:none;fill-rule:nonzero;fill:rgb(54.509804%,68.627451%,48.235294%);fill-opacity:1;" d="M 541.636719 435.523438 C 541.800781 435.617188 541.914062 435.78125 541.945312 435.96875 C 541.976562 436.152344 541.917969 436.34375 541.792969 436.484375 C 539.894531 438.527344 537.230469 439.695312 534.441406 439.703125 C 530.953125 439.664062 527.515625 438.832031 524.390625 437.273438 C 524.269531 437.210938 524.191406 437.085938 524.191406 436.949219 C 524.191406 436.8125 524.269531 436.6875 524.390625 436.628906 C 527.425781 435.050781 530.738281 434.078125 534.140625 433.769531 C 536.753906 433.644531 539.351562 434.253906 541.636719 435.523438 Z M 541.636719 435.523438 " />
</g><g id="character_builder_plant-55"><path style=" stroke:none;fill-rule:nonzero;fill:rgb(54.509804%,68.627451%,48.235294%);fill-opacity:1;" d="M 542.152344 435.59375 C 541.96875 435.640625 541.820312 435.769531 541.742188 435.941406 C 541.664062 436.113281 541.667969 436.308594 541.753906 436.476562 C 543.0625 438.941406 545.335938 440.753906 548.03125 441.480469 C 551.417969 442.335938 554.953125 442.417969 558.375 441.710938 C 558.507812 441.683594 558.613281 441.585938 558.648438 441.453125 C 558.683594 441.320312 558.640625 441.179688 558.539062 441.089844 C 556.023438 438.792969 553.078125 437.011719 549.878906 435.839844 C 547.375 435.035156 544.699219 434.949219 542.152344 435.59375 Z M 542.152344 435.59375 " />
</g><g id="character_builder_plant-56"><path style=" stroke:none;fill-rule:nonzero;fill:rgb(54.509804%,68.627451%,48.235294%);fill-opacity:1;" d="M 538.5 448.265625 C 538.664062 448.363281 538.777344 448.523438 538.804688 448.710938 C 538.835938 448.898438 538.777344 449.089844 538.648438 449.226562 C 536.757812 451.277344 534.097656 452.445312 531.308594 452.453125 C 527.8125 452.40625 524.375 451.570312 521.25 450 C 521.128906 449.9375 521.050781 449.8125 521.050781 449.675781 C 521.050781 449.539062 521.128906 449.414062 521.25 449.355469 C 524.285156 447.78125 527.597656 446.808594 531 446.496094 C 533.617188 446.382812 536.210938 446.996094 538.5 448.265625 Z M 538.5 448.265625 " />
</g><g id="character_builder_plant-57"><path style=" stroke:none;fill-rule:nonzero;fill:rgb(54.509804%,68.627451%,48.235294%);fill-opacity:1;" d="M 539.039062 448.335938 C 538.855469 448.382812 538.703125 448.511719 538.625 448.683594 C 538.546875 448.859375 538.554688 449.058594 538.640625 449.226562 C 539.945312 451.691406 542.21875 453.5 544.914062 454.222656 C 548.296875 455.085938 551.835938 455.164062 555.253906 454.453125 C 555.390625 454.429688 555.5 454.328125 555.535156 454.199219 C 555.570312 454.066406 555.53125 453.921875 555.425781 453.832031 C 552.902344 451.539062 549.960938 449.753906 546.757812 448.582031 C 544.257812 447.785156 541.585938 447.699219 539.039062 448.335938 Z M 539.039062 448.335938 " />
</g><g id="character_builder_plant-58"><path style=" stroke:none;fill-rule:nonzero;fill:rgb(57.254902%,72.941176%,49.803922%);fill-opacity:1;" d="M 560.738281 494.484375 L 557.804688 503.65625 L 545.804688 541.15625 C 545.234375 542.949219 543.015625 544.207031 540.464844 544.207031 L 514.5 544.207031 C 511.941406 544.207031 509.730469 542.945312 509.152344 541.15625 L 494.585938 495.675781 L 494.195312 494.453125 Z M 560.738281 494.484375 " />
</g><g id="character_builder_plant-59"><path style=" stroke:none;fill-rule:nonzero;fill:rgb(51.764706%,68.627451%,44.313725%);fill-opacity:1;" d="M 557.8125 503.65625 C 557.210938 503.65625 530.8125 504.226562 520.171875 515.769531 C 509.910156 526.90625 537.558594 531.054688 532.5 544.230469 L 514.539062 544.230469 C 511.980469 544.230469 509.769531 542.96875 509.191406 541.179688 L 494.625 495.707031 C 508.875 495.953125 554.289062 497.253906 557.8125 503.65625 Z M 557.8125 503.65625 " />
</g><g id="character_builder_plant-60"><path style=" stroke:none;fill-rule:nonzero;fill:rgb(57.254902%,72.941176%,49.803922%);fill-opacity:1;" d="M 490.933594 488.871094 L 563.40625 488.871094 C 565.035156 488.871094 566.355469 490.5 566.355469 491.820312 L 566.355469 499.597656 C 566.355469 501.226562 565.035156 502.546875 563.40625 502.546875 L 490.933594 502.546875 C 489.304688 502.546875 487.984375 500.917969 487.984375 499.597656 L 487.984375 491.820312 C 487.984375 490.191406 489.304688 488.871094 490.933594 488.871094 Z M 490.933594 488.871094 " />
</g><g id="character_builder_plant-61"><path style=" stroke:none;fill-rule:nonzero;fill:rgb(62.352941%,79.607843%,55.686275%);fill-opacity:1;" d="M 382.476562 594.324219 C 382.476562 600.4375 340.085938 605.390625 287.796875 605.390625 C 235.507812 605.390625 193.117188 600.4375 193.117188 594.324219 C 193.117188 588.207031 235.507812 583.253906 287.796875 583.253906 C 340.085938 583.253906 382.476562 588.207031 382.476562 594.324219 " />
</g><g id="character_builder_plant-62"><path style=" stroke:none;fill-rule:nonzero;fill:rgb(58.039216%,75.686275%,50.588235%);fill-opacity:1;" d="M 382.5 594.316406 C 382.5 599.605469 350.851562 604.019531 308.511719 605.125 L 308.511719 605.121094 C 309.625 602.210938 312.039062 599.992188 315.03125 599.121094 L 355 586.5 C 372.003906 588.515625 382.503906 591.277344 382.503906 594.316406 Z M 382.5 594.316406 " />
</g><g id="character_builder_plant-63"><path style=" stroke:none;fill-rule:nonzero;fill:rgb(0.392157%,0.392157%,0.392157%);fill-opacity:1;" d="M 165.832031 278.746094 L 159.75 276.375 C 156.660156 274.925781 154.125 272.511719 152.527344 269.496094 L 159.195312 248.570312 L 197.804688 243.476562 L 202.628906 227.15625 L 207.339844 240.046875 L 205.839844 262.382812 L 179.90625 274.953125 Z M 165.832031 278.746094 " />
</g><g id="character_builder_plant-64"><path style=" stroke:none;fill-rule:nonzero;fill:rgb(0.392157%,0.392157%,0.392157%);fill-opacity:1;" d="M 222.351562 180.976562 C 202.933594 184.050781 190.851562 201.617188 190.851562 201.617188 L 198.402344 215.117188 L 170.96875 229.832031 C 163.566406 250.308594 152.527344 257.066406 166.328125 278.695312 C 173.128906 278.523438 195.449219 276.210938 213.261719 254.695312 L 221.460938 219.234375 L 217.15625 217.074219 Z M 222.351562 180.976562 " />
</g><g id="character_builder_plant-65"><path style=" stroke:none;fill-rule:nonzero;fill:rgb(20.784314%,20.784314%,20.784314%);fill-opacity:1;" d="M 318.816406 342.515625 L 329.292969 330.417969 L 318.800781 319.03125 L 303.742188 296.15625 L 289.640625 265.675781 L 208.875 293.449219 L 212.054688 337.542969 L 219.449219 369.09375 L 271.003906 411.125 Z M 318.816406 342.515625 " />
</g><g id="character_builder_plant-66"><path style=" stroke:none;fill-rule:nonzero;fill:rgb(97.647059%,63.529412%,57.647059%);fill-opacity:1;" d="M 216.871094 115.5 L 227.746094 108.046875 L 262.628906 112.9375 L 270.878906 128.296875 C 270.878906 128.296875 265.996094 137.632812 267.765625 145.285156 L 261.519531 159.003906 L 247.605469 157.503906 L 237 149.695312 L 224.25 138.25 Z M 216.871094 115.5 " />
</g><g id="character_builder_plant-67"><path style=" stroke:none;fill-rule:nonzero;fill:rgb(7.843137%,7.843137%,7.843137%);fill-opacity:1;" d="M 333.703125 533.761719 L 324.449219 541.359375 L 317.847656 546.78125 C 316.519531 545.941406 315.207031 545.09375 313.910156 544.238281 C 312.316406 543.183594 310.738281 542.117188 309.183594 541.042969 C 304.007812 537.441406 299.097656 533.746094 294.445312 529.949219 C 289.398438 525.839844 284.648438 521.625 280.195312 517.304688 L 280.199219 517.304688 C 270.101562 507.5625 260.980469 496.855469 252.960938 485.339844 C 213 427.890625 210.75 364.785156 212.054688 337.542969 L 212.054688 337.546875 C 215.859375 338.765625 219.746094 339.710938 223.6875 340.371094 C 223.6875 340.371094 223.6875 340.332031 223.6875 340.296875 C 223.816406 339.546875 224.675781 334.296875 226.035156 326 C 228.089844 326.128906 233.371094 326.179688 233.371094 326.179688 L 285.242188 449.996094 L 292.269531 462.136719 L 293.335938 463.964844 L 295.585938 467.910156 L 295.914062 468.472656 L 305.84375 485.640625 L 307.390625 488.316406 Z M 333.703125 533.761719 " />
</g><g id="character_builder_plant-68"><path style=" stroke:none;fill-rule:nonzero;fill:rgb(0.392157%,0.392157%,0.392157%);fill-opacity:1;" d="M 317.84375 546.75 L 309.75 571.417969 C 309.085938 572.886719 309.523438 574.621094 310.804688 575.601562 C 312.085938 576.582031 313.875 576.550781 315.121094 575.527344 L 346.472656 550.777344 L 346.46875 550.777344 C 347.800781 549.6875 348.535156 548.035156 348.453125 546.316406 C 348.371094 544.597656 347.484375 543.023438 346.058594 542.0625 L 333.714844 533.761719 Z M 317.84375 546.75 " />
</g><g id="character_builder_plant-69"><path style=" stroke:none;fill-rule:nonzero;fill:rgb(97.647059%,63.529412%,57.647059%);fill-opacity:1;" d="M 274.824219 160.5 C 261.519531 187.066406 248.574219 167.210938 248.574219 167.210938 L 248.191406 163.332031 L 248.140625 162.738281 L 247.625 157.449219 L 247.621094 157.453125 C 245.523438 159.019531 243.300781 160.414062 240.976562 161.617188 C 239.8125 162.253906 238.480469 162.953125 236.964844 163.695312 C 234.488281 164.925781 232.570312 164.976562 231.03125 164.308594 C 230.433594 164.050781 229.882812 163.691406 229.410156 163.246094 C 228.179688 162.007812 227.199219 160.542969 226.53125 158.933594 C 226.53125 158.851562 226.449219 158.769531 226.417969 158.6875 C 225.886719 157.515625 225.421875 156.308594 224.96875 155.175781 C 224.96875 155.109375 224.910156 155.027344 224.878906 154.964844 C 224.417969 153.613281 223.761719 152.332031 222.9375 151.164062 C 222.605469 150.695312 222.113281 150.367188 221.558594 150.234375 C 220.347656 150.09375 219.253906 149.441406 218.558594 148.441406 C 217.351562 146.632812 217.742188 143.84375 218.941406 141.691406 C 220.710938 138.457031 217.164062 128.371094 216.398438 120.757812 C 216.335938 120.132812 216.316406 119.507812 216.335938 118.882812 C 216.386719 117.746094 216.566406 116.617188 216.871094 115.523438 C 219.335938 116.652344 221.945312 117.4375 224.625 117.855469 C 224.625 117.855469 224.796875 117.855469 225.105469 117.929688 C 233.867188 119.308594 242.617188 117.929688 247.417969 121.679688 C 252.929688 126.039062 254.582031 129.179688 255.039062 130.988281 C 254.988281 126.074219 257.09375 121.101562 262.304688 121.507812 C 268.125 121.949219 264.390625 135.089844 264.390625 135.089844 L 264.992188 136.882812 L 267.753906 145.28125 L 272.636719 155.839844 Z M 274.824219 160.5 " />
</g><g id="character_builder_plant-70"><path style=" stroke:none;fill-rule:nonzero;fill:rgb(96.470588%,51.764706%,45.490196%);fill-opacity:1;" d="M 232.164062 161.40625 L 231 164.308594 C 230.402344 164.050781 229.855469 163.695312 229.378906 163.253906 C 228.152344 162.011719 227.175781 160.542969 226.507812 158.933594 L 230.023438 159.734375 L 231.433594 160.058594 C 231.722656 160.117188 231.972656 160.304688 232.113281 160.5625 C 232.25 160.824219 232.269531 161.132812 232.164062 161.40625 Z M 232.164062 161.40625 " />
</g><g id="character_builder_plant-71"><path style=" stroke:none;fill-rule:nonzero;fill:rgb(96.470588%,51.764706%,45.490196%);fill-opacity:1;" d="M 230.511719 157.589844 L 230.039062 159.726562 L 226.5 158.929688 C 226.453125 158.847656 226.417969 158.765625 226.378906 158.683594 C 225.847656 157.511719 225.390625 156.296875 224.929688 155.179688 L 229.699219 156.34375 L 229.703125 156.34375 C 230.265625 156.46875 230.628906 157.023438 230.511719 157.589844 Z M 230.511719 157.589844 " />
</g><g id="character_builder_plant-72"><path style=" stroke:none;fill-rule:nonzero;fill:rgb(43.137255%,28.627451%,23.921569%);fill-opacity:1;" d="M 277.378906 123.308594 C 270.808594 136.15625 269.070312 135.007812 267.777344 145.285156 L 264.386719 135.109375 C 264.386719 135.109375 266.914062 127.480469 263.914062 124.363281 L 263.917969 124.359375 C 263.410156 123.839844 262.773438 123.46875 262.074219 123.277344 C 258.324219 122.21875 254.535156 127.335938 255.128906 132.710938 C 254.894531 133.027344 254.527344 133.214844 254.136719 133.214844 C 253.792969 133.21875 253.460938 133.082031 253.21875 132.835938 C 252.976562 132.589844 252.84375 132.253906 252.855469 131.910156 C 252.871094 130.804688 252.726562 129.703125 252.421875 128.640625 C 251.535156 125.851562 249.78125 123.417969 247.417969 121.695312 C 241.089844 116.679688 227.917969 120.707031 216.871094 115.5 C 212.667969 113.5 209.144531 110.304688 206.738281 106.320312 C 206.117188 105.332031 206.039062 104.097656 206.539062 103.042969 C 207.039062 101.988281 208.039062 101.261719 209.199219 101.113281 C 215.191406 100.382812 221.03125 98.707031 226.5 96.148438 C 228.203125 95.332031 229.847656 94.394531 231.421875 93.34375 C 248.730469 81.734375 262.628906 77.742188 272.710938 98.285156 C 272.726562 98.246094 283.945312 110.464844 277.382812 123.304688 Z M 277.378906 123.308594 " />
</g><g id="character_builder_plant-73"><path style=" stroke:none;fill-rule:nonzero;fill:rgb(99.215686%,68.235294%,45.098039%);fill-opacity:1;" d="M 230.371094 160.777344 L 219.046875 189.277344 C 218.484375 190.703125 216.921875 191.449219 215.460938 190.996094 L 208.5 188.875 L 203.324219 187.269531 L 203.324219 187.265625 C 201.980469 186.855469 201.121094 185.542969 201.285156 184.148438 L 203.746094 162.324219 L 204.578125 154.875 C 204.609375 154.589844 204.761719 154.328125 204.996094 154.160156 C 205.230469 153.992188 205.527344 153.933594 205.808594 153.996094 L 229.644531 159.417969 L 229.640625 159.421875 C 229.933594 159.480469 230.183594 159.667969 230.324219 159.929688 C 230.464844 160.191406 230.480469 160.5 230.371094 160.777344 Z M 230.371094 160.777344 " />
</g><g id="character_builder_plant-74"><path style=" stroke:none;fill-rule:nonzero;fill:rgb(98.823529%,79.215686%,65.490196%);fill-opacity:1;" d="M 228.75 156.953125 L 228.554688 157.832031 L 228.277344 159.097656 L 206.585938 154.164062 L 207.199219 151.726562 L 207.203125 151.726562 C 207.347656 151.167969 207.914062 150.832031 208.46875 150.976562 L 227.96875 155.722656 C 228.519531 155.855469 228.863281 156.398438 228.75 156.953125 Z M 228.75 156.953125 " />
</g><g id="character_builder_plant-75"><path style=" stroke:none;fill-rule:nonzero;fill:rgb(20.784314%,20.784314%,20.784314%);fill-opacity:1;" d="M 319.148438 322.761719 C 319.148438 322.761719 301.5 339.195312 264.339844 340.371094 L 265.359375 322.792969 L 266.507812 303.164062 L 274.824219 160.5 L 296.035156 167.25 L 301.585938 169.003906 L 314.035156 172.941406 C 314.035156 172.941406 321.585938 194.601562 318.339844 226.191406 C 318.039062 229.09375 317.65625 232.078125 317.164062 235.140625 C 316.828125 237.253906 316.535156 239.421875 316.277344 241.628906 L 316.273438 241.628906 C 315.09375 252.988281 314.707031 264.414062 315.113281 275.828125 C 315.429688 286.972656 316.253906 297.429688 317.070312 305.632812 C 317.207031 306.921875 317.332031 308.144531 317.453125 309.316406 L 317.453125 309.445312 C 318.359375 317.613281 319.148438 322.765625 319.148438 322.765625 Z M 319.148438 322.761719 " />
</g><g id="character_builder_plant-76"><path style=" stroke:none;fill-rule:nonzero;fill:rgb(86.666667%,58.823529%,40%);fill-opacity:1;" d="M 213.496094 175.042969 C 215.410156 176.976562 217.496094 178.734375 219.726562 180.292969 C 220.695312 180.910156 220.992188 182.191406 220.394531 183.171875 L 219.210938 185.167969 C 218.320312 186.664062 216.648438 187.515625 214.914062 187.351562 C 212.933594 187.199219 210.992188 186.707031 209.183594 185.894531 C 208.914062 185.757812 208.59375 185.789062 208.359375 185.980469 C 208.128906 186.171875 208.03125 186.484375 208.117188 186.773438 C 208.285156 187.46875 208.417969 188.175781 208.515625 188.886719 L 203.339844 187.28125 C 201.996094 186.871094 201.136719 185.558594 201.300781 184.164062 L 203.761719 162.339844 L 211.863281 160.539062 L 211.859375 160.539062 C 212.140625 160.472656 212.433594 160.554688 212.644531 160.75 C 212.855469 160.949219 212.953125 161.234375 212.910156 161.519531 C 212.800781 162.867188 212.113281 164.105469 211.019531 164.902344 C 210.867188 165 210.777344 165.167969 210.777344 165.347656 C 210.777344 165.527344 210.867188 165.695312 211.019531 165.796875 L 220.5 171.503906 C 220.785156 171.671875 220.964844 171.972656 220.980469 172.304688 C 220.996094 172.632812 220.84375 172.949219 220.574219 173.144531 C 219.5625 173.847656 217.621094 174.546875 214.148438 173.847656 L 214.148438 173.851562 C 213.839844 173.777344 213.519531 173.917969 213.367188 174.199219 C 213.214844 174.476562 213.265625 174.820312 213.496094 175.042969 Z M 213.496094 175.042969 " />
</g><g id="character_builder_plant-77"><path style=" stroke:none;fill-rule:nonzero;fill:rgb(97.647059%,63.529412%,57.647059%);fill-opacity:1;" d="M 211.972656 173.558594 C 213.886719 175.492188 215.972656 177.25 218.203125 178.808594 C 219.171875 179.425781 219.46875 180.707031 218.871094 181.6875 L 217.6875 183.683594 C 216.796875 185.179688 215.125 186.03125 213.390625 185.863281 C 211.410156 185.71875 209.472656 185.226562 207.660156 184.410156 C 207.394531 184.265625 207.066406 184.296875 206.832031 184.492188 C 206.597656 184.683594 206.5 184.996094 206.585938 185.289062 C 207.285156 188.160156 207.964844 193.675781 204.011719 196.285156 L 204.015625 196.28125 C 202.761719 197.082031 201.703125 198.15625 200.925781 199.425781 L 197.003906 206.25 L 188.800781 194.398438 L 190.5625 191.921875 L 190.558594 191.925781 C 191.390625 190.765625 191.90625 189.410156 192.058594 187.996094 L 193.695312 172.855469 L 193.695312 172.851562 C 193.816406 171.746094 194.121094 170.671875 194.59375 169.664062 L 197.339844 163.925781 C 198.019531 162.515625 199.304688 161.492188 200.835938 161.152344 L 210.347656 159.039062 L 210.34375 159.039062 C 210.625 158.972656 210.917969 159.054688 211.128906 159.25 C 211.339844 159.449219 211.4375 159.734375 211.394531 160.019531 C 211.289062 161.371094 210.59375 162.605469 209.496094 163.402344 C 209.347656 163.5 209.253906 163.667969 209.253906 163.847656 C 209.253906 164.027344 209.347656 164.195312 209.496094 164.296875 L 218.945312 170.019531 L 218.949219 170.015625 C 219.234375 170.1875 219.414062 170.488281 219.429688 170.820312 C 219.445312 171.148438 219.292969 171.464844 219.023438 171.660156 C 218.011719 172.363281 216.070312 173.0625 212.597656 172.363281 L 212.59375 172.363281 C 212.292969 172.3125 211.988281 172.460938 211.847656 172.734375 C 211.703125 173.003906 211.753906 173.339844 211.972656 173.558594 Z M 211.972656 173.558594 " />
</g><g id="character_builder_plant-78"><path style=" stroke:none;fill-rule:nonzero;fill:rgb(20.784314%,20.784314%,20.784314%);fill-opacity:1;" d="M 248.558594 167.25 C 245.925781 200.398438 233.785156 278.03125 227.484375 317.09375 C 227.0625 319.734375 226.667969 322.195312 226.300781 324.453125 C 226.21875 324.984375 226.136719 325.511719 226.054688 326.019531 C 224.695312 334.320312 223.804688 339.566406 223.707031 340.316406 L 223.707031 340.390625 L 223.703125 340.386719 C 219.761719 339.722656 215.875 338.78125 212.070312 337.558594 C 207.765625 336.261719 203.503906 334.796875 200.492188 333.726562 L 200.488281 333.726562 C 197.949219 332.820312 196.34375 330.308594 196.589844 327.621094 C 198.488281 307.371094 202.003906 284.226562 205.851562 262.371094 C 208.429688 247.695312 211.160156 233.601562 213.644531 221.398438 C 214.03125 219.507812 214.40625 217.664062 214.769531 215.871094 C 218.902344 195.890625 222.097656 182.082031 222.351562 181.019531 L 222.351562 180.953125 L 225.523438 179.289062 L 239.601562 171.902344 Z M 248.558594 167.25 " />
</g><g id="character_builder_plant-79"><path style=" stroke:none;fill-rule:nonzero;fill:rgb(7.843137%,7.843137%,7.843137%);fill-opacity:1;" d="M 248.558594 167.25 C 245.925781 200.398438 233.785156 278.03125 227.484375 317.09375 C 226.96875 320.355469 226.480469 323.339844 226.050781 326.019531 C 224.691406 334.320312 223.800781 339.566406 223.703125 340.316406 C 224.304688 335.472656 224.847656 330.695312 225.339844 325.984375 C 225.714844 322.421875 226.089844 318.90625 226.375 315.4375 C 228.773438 288.949219 229.496094 265.121094 229.375 245.085938 C 229.164062 204.390625 225.519531 179.339844 225.519531 179.339844 L 239.597656 171.953125 Z M 248.558594 167.25 " />
</g><g id="character_builder_plant-80"><path style=" stroke:none;fill-rule:nonzero;fill:rgb(7.843137%,7.843137%,7.843137%);fill-opacity:1;" d="M 296.03125 167.25 C 296.03125 167.25 280.28125 238.351562 270.089844 300.832031 C 268.882812 308.242188 267.75 315.539062 266.730469 322.582031 C 265.839844 328.746094 265.035156 334.722656 264.339844 340.410156 L 265.359375 322.832031 L 266.507812 303.203125 L 274.824219 160.5 Z M 296.03125 167.25 " />
</g><g id="character_builder_plant-81"><path style=" stroke:none;fill-rule:nonzero;fill:rgb(20.784314%,20.784314%,20.784314%);fill-opacity:1;" d="M 318 355.84375 C 315.945312 381.875 310.453125 418.152344 296.039062 445.265625 L 295.890625 453.15625 L 295.644531 466.363281 L 295.644531 467.863281 L 294.472656 529.925781 L 294.1875 543 L 293.550781 576.644531 L 273 576.644531 C 273 576.644531 272.46875 574.628906 271.5 570.863281 C 268.351562 558.324219 260.640625 526.402344 252.890625 485.363281 C 244.152344 439.066406 235.371094 381.113281 233.015625 326.183594 C 233.015625 325.914062 233.015625 325.628906 233.015625 325.359375 L 233.359375 326.183594 C 241.226562 326.117188 251.710938 325.261719 265.332031 322.816406 L 264.3125 340.394531 C 294.859375 339.425781 312.214844 328.15625 317.433594 324.164062 C 318.566406 323.300781 319.121094 322.785156 319.121094 322.785156 C 319.121094 322.785156 319.121094 323.257812 319.121094 324.164062 C 319.21875 328.070312 319.234375 340.078125 317.996094 355.84375 Z M 318 355.84375 " />
</g><g id="character_builder_plant-82"><path style=" stroke:none;fill-rule:nonzero;fill:rgb(7.843137%,7.843137%,7.843137%);fill-opacity:1;" d="M 318 355.84375 C 315.945312 381.875 310.453125 418.152344 296.039062 445.265625 C 318.261719 375.082031 264.34375 340.371094 264.34375 340.371094 C 294.890625 339.402344 312.246094 328.132812 317.464844 324.140625 L 319.175781 324.140625 C 319.222656 328.070312 319.234375 340.078125 318 355.84375 Z M 318 355.84375 " />
</g><g id="character_builder_plant-83"><path style=" stroke:none;fill-rule:nonzero;fill:rgb(0.392157%,0.392157%,0.392157%);fill-opacity:1;" d="M 273 576.660156 L 248.859375 591.324219 C 247.410156 592.039062 246.648438 593.65625 247.015625 595.226562 C 247.386719 596.800781 248.789062 597.910156 250.402344 597.90625 L 292.589844 597.90625 C 294.308594 597.90625 295.925781 597.09375 296.953125 595.714844 C 297.976562 594.332031 298.289062 592.550781 297.796875 590.902344 L 293.53125 576.652344 Z M 273 576.660156 " />
</g><g id="character_builder_plant-84"><path style=" stroke:none;fill-rule:nonzero;fill:rgb(57.647059%,57.647059%,57.647059%);fill-opacity:1;" d="M 274.824219 160.5 L 266.507812 303.164062 L 265.359375 322.792969 C 238.734375 328.125 228.105469 326.109375 226.050781 325.980469 C 226.476562 323.304688 226.964844 320.316406 227.484375 317.054688 C 233.542969 279.464844 245.019531 206.160156 248.222656 171.148438 C 248.351562 169.777344 248.457031 168.464844 248.558594 167.210938 C 248.558594 167.25 264.921875 171 274.824219 160.5 Z M 274.824219 160.5 " />
</g><g id="character_builder_plant-85"><path style=" stroke:none;fill-rule:nonzero;fill:rgb(0.392157%,0.392157%,0.392157%);fill-opacity:1;" d="M 321.511719 336.75 C 299.925781 347.542969 264.339844 340.363281 264.339844 340.363281 C 301.511719 339.1875 319.148438 322.753906 319.148438 322.753906 C 319.148438 322.753906 323.039062 317.367188 321.511719 336.75 Z M 321.511719 336.75 " />
</g><g id="character_builder_plant-86"><path style=" stroke:none;fill-rule:nonzero;fill:rgb(96.470588%,51.764706%,45.490196%);fill-opacity:1;" d="M 267.75 145.28125 L 264.359375 135.097656 C 261.628906 138.886719 258.96875 136.816406 258.96875 136.816406 C 258.96875 136.816406 255.527344 151.320312 247.578125 157.464844 L 248.53125 167.214844 C 248.53125 167.214844 254.53125 162.535156 257.441406 150.535156 L 257.4375 150.53125 C 257.972656 148.378906 259.417969 146.5625 261.394531 145.554688 C 263.375 144.546875 265.691406 144.445312 267.75 145.28125 Z M 267.75 145.28125 " />
</g><g id="character_builder_plant-87"><path style=" stroke:none;fill-rule:nonzero;fill:rgb(7.843137%,7.843137%,7.843137%);fill-opacity:1;" d="M 296.03125 445.265625 L 295.777344 459 L 291.324219 455.445312 C 290.171875 454.542969 289.53125 453.136719 289.605469 451.679688 C 289.675781 450.21875 290.457031 448.886719 291.691406 448.101562 Z M 296.03125 445.265625 " />
</g><g id="character_builder_plant-88"><path style=" stroke:none;fill-rule:nonzero;fill:rgb(7.843137%,7.843137%,7.843137%);fill-opacity:1;" d="M 200.363281 244.328125 C 190.832031 261.285156 177.863281 277.800781 166.296875 278.699219 C 165.667969 278.761719 165.03125 278.761719 164.398438 278.699219 L 164.25 278.699219 C 161.109375 278.429688 158.09375 276.898438 155.308594 273.808594 C 154.164062 272.535156 153.21875 271.09375 152.503906 269.535156 C 168.15625 290.25 199.648438 245.289062 200.363281 244.328125 Z M 200.363281 244.328125 " />
</g><g id="character_builder_plant-89"><path style=" stroke:none;fill-rule:nonzero;fill:rgb(96.470588%,51.764706%,45.490196%);fill-opacity:1;" d="M 200.925781 199.410156 L 198.839844 202.921875 L 188.796875 194.402344 Z M 200.925781 199.410156 " />
</g><g id="character_builder_plant-90"><path style=" stroke:none;fill-rule:nonzero;fill:rgb(44.705882%,44.705882%,44.705882%);fill-opacity:1;" d="M 254.175781 171.300781 C 260.175781 170.550781 269.511719 168.066406 274.824219 160.507812 C 264.925781 171.007812 248.574219 167.210938 248.574219 167.210938 C 248.46875 168.464844 248.363281 169.777344 248.238281 171.148438 C 245.035156 206.160156 233.5625 279.464844 227.5 317.054688 C 227.078125 319.695312 226.683594 322.15625 226.316406 324.414062 C 226.234375 324.945312 226.152344 325.472656 226.070312 325.980469 C 226.429688 325.980469 227.058594 326.085938 227.984375 326.175781 L 229.410156 326.289062 C 234.546875 326.664062 245.503906 326.777344 265.410156 322.792969 C 241.523438 321.59375 243.914062 300.539062 245.625 264 C 246.789062 239.289062 247.957031 194.25 248.363281 177.832031 L 248.355469 177.832031 C 248.429688 174.523438 250.894531 171.753906 254.175781 171.300781 Z M 254.175781 171.300781 " />
</g><g id="character_builder_plant-91"><path style=" stroke:none;fill-rule:nonzero;fill:rgb(7.843137%,7.843137%,7.843137%);fill-opacity:1;" d="M 315.113281 275.804688 C 307.5 265.238281 302.722656 250.5 299.828125 238.621094 C 299.332031 236.585938 300.246094 234.472656 302.066406 233.445312 C 303.890625 232.414062 306.171875 232.722656 307.65625 234.195312 C 310.367188 236.847656 313.246094 239.324219 316.273438 241.605469 C 315.09375 252.964844 314.707031 264.390625 315.113281 275.804688 Z M 315.113281 275.804688 " />
</g><g id="character_builder_plant-92"><path style=" stroke:none;fill-rule:nonzero;fill:rgb(7.843137%,7.843137%,7.843137%);fill-opacity:1;" d="M 346.035156 249.082031 L 343.851562 257.070312 C 343.851562 257.070312 341.242188 256.09375 337.199219 254.175781 Z M 346.035156 249.082031 " />
</g><g id="character_builder_plant-93"><path style=" stroke:none;fill-rule:nonzero;fill:rgb(96.470588%,51.764706%,45.490196%);fill-opacity:1;" d="M 332.804688 315.691406 L 324.210938 318.382812 C 323.679688 318.546875 323.238281 318.921875 322.988281 319.417969 C 322.738281 319.914062 322.703125 320.492188 322.890625 321.015625 L 318 319.253906 L 318.808594 319.035156 C 319.171875 318.605469 319.574219 318.210938 320.011719 317.859375 C 321.675781 316.523438 322.71875 315.542969 324.847656 315.730469 L 332.8125 315.691406 Z M 332.804688 315.691406 " />
</g><g id="character_builder_plant-94"><path style=" stroke:none;fill-rule:nonzero;fill:rgb(97.647059%,63.529412%,57.647059%);fill-opacity:1;" d="M 346.5 321 L 345.324219 328.5 L 344.949219 330.863281 C 344.882812 331.320312 344.792969 331.761719 344.679688 332.214844 L 344.675781 332.210938 C 344.320312 333.703125 343.761719 335.132812 343.019531 336.472656 L 339 343.726562 C 338.113281 345.324219 336.292969 346.164062 334.5 345.800781 L 319.964844 342.851562 C 319.785156 342.8125 319.605469 342.769531 319.433594 342.714844 L 319.433594 342.71875 C 318.03125 342.324219 316.789062 341.503906 315.871094 340.371094 L 315.324219 339.6875 L 315.324219 339.691406 C 316.617188 339.042969 317.613281 337.914062 318.089844 336.546875 L 322.710938 323.25 L 322.898438 322.71875 C 322.976562 322.5 323.023438 322.273438 323.03125 322.042969 C 323.035156 321.984375 323.035156 321.925781 323.03125 321.871094 C 323.035156 321.574219 322.984375 321.285156 322.882812 321.007812 C 322.785156 320.640625 322.785156 320.25 322.882812 319.882812 C 323.214844 318.351562 324.371094 317.128906 325.882812 316.710938 L 331.695312 314.941406 Z M 346.5 321 " />
</g><g id="character_builder_plant-95"><path style=" stroke:none;fill-rule:nonzero;fill:rgb(57.647059%,57.647059%,57.647059%);fill-opacity:1;" d="M 323.03125 322.050781 C 323.019531 322.28125 322.972656 322.507812 322.898438 322.726562 L 322.710938 323.257812 L 318.105469 336.546875 C 317.625 337.910156 316.636719 339.039062 315.34375 339.691406 L 300.125 335.132812 L 300.128906 335.128906 C 299.375 334.902344 298.746094 334.382812 298.378906 333.6875 C 298.015625 332.992188 297.945312 332.179688 298.183594 331.433594 L 302.886719 316.9375 L 302.886719 316.933594 C 303.132812 316.1875 303.667969 315.570312 304.375 315.222656 C 305.082031 314.878906 305.898438 314.832031 306.636719 315.097656 L 316.835938 318.847656 L 322.835938 321.046875 Z M 323.03125 322.050781 " />
</g><g id="character_builder_plant-96"><path style=" stroke:none;fill-rule:nonzero;fill:rgb(96.470588%,51.764706%,45.490196%);fill-opacity:1;" d="M 346.003906 324.316406 L 345.34375 328.515625 L 331.671875 314.949219 Z M 346.003906 324.316406 " />
</g><g id="character_builder_plant-97"><path style=" stroke:none;fill-rule:nonzero;fill:rgb(0.392157%,0.392157%,0.392157%);fill-opacity:1;" d="M 265.359375 322.792969 C 245.484375 326.777344 234.527344 326.664062 229.359375 326.289062 L 228.085938 326.183594 C 227.082031 326.09375 226.40625 326.011719 226.023438 325.980469 C 224.664062 334.28125 223.773438 339.527344 223.675781 340.277344 L 223.675781 340.351562 L 223.671875 340.351562 C 219.730469 339.6875 215.84375 338.742188 212.039062 337.523438 C 215.460938 339.953125 219.039062 342.15625 222.75 344.113281 C 223.9375 344.71875 225.347656 344.710938 226.53125 344.09375 C 227.710938 343.480469 228.527344 342.332031 228.710938 341.011719 L 230.152344 330.933594 C 230.191406 330.925781 251.308594 329.472656 265.355469 322.796875 Z M 265.359375 322.792969 " />
</g><g id="character_builder_plant-98"><path style=" stroke:none;fill-rule:nonzero;fill:rgb(0.392157%,0.392157%,0.392157%);fill-opacity:1;" d="M 302.488281 479.796875 L 294.433594 529.949219 L 295.605469 467.894531 L 295.933594 468.457031 Z M 302.488281 479.796875 " />
</g><g id="character_builder_plant-99"><path style=" stroke:none;fill-rule:nonzero;fill:rgb(0.392157%,0.392157%,0.392157%);fill-opacity:1;" d="M 324.441406 541.359375 L 317.839844 546.78125 C 316.511719 545.941406 315.199219 545.09375 313.902344 544.238281 Z M 324.441406 541.359375 " />
</g><g id="character_builder_plant-100"><path style=" stroke:none;fill-rule:nonzero;fill:rgb(0.392157%,0.392157%,0.392157%);fill-opacity:1;" d="M 283.207031 576.660156 L 273 576.660156 C 273 576.660156 272.46875 574.644531 271.5 570.878906 Z M 283.207031 576.660156 " />
</g><g id="character_builder_plant-101"><path style=" stroke:none;fill-rule:nonzero;fill:rgb(96.470588%,51.764706%,45.490196%);fill-opacity:1;" d="M 222.921875 151.15625 C 222.589844 150.6875 222.101562 150.359375 221.542969 150.226562 C 220.332031 150.085938 219.238281 149.433594 218.542969 148.433594 C 218.542969 148.433594 221.121094 149.542969 222.757812 148.433594 C 224.394531 147.324219 225 151.179688 222.921875 151.15625 Z M 222.921875 151.15625 " />
</g><g id="character_builder_plant-102"><path style=" stroke:none;fill-rule:nonzero;fill:rgb(96.470588%,51.764706%,45.490196%);fill-opacity:1;" d="M 224.632812 117.832031 L 216.335938 118.859375 C 216.386719 117.722656 216.566406 116.597656 216.871094 115.5 C 219.335938 116.628906 221.945312 117.414062 224.625 117.832031 Z M 224.632812 117.832031 " />
</g><g id="character_builder_plant-103"><path style=" stroke:none;fill-rule:nonzero;fill:rgb(84.705882%,68.235294%,56.862745%);fill-opacity:1;" d="M 228.523438 157.828125 L 228.246094 159.09375 L 206.554688 154.160156 Z M 228.523438 157.828125 " />
</g><g id="character_builder_plant-104"><path style=" stroke:none;fill-rule:nonzero;fill:rgb(46.666667%,46.666667%,46.666667%);fill-opacity:1;" d="M 313.28125 327.578125 C 313.28125 328.992188 312.523438 330.300781 311.296875 331.007812 C 310.070312 331.714844 308.5625 331.714844 307.335938 331.007812 C 306.109375 330.304688 305.351562 328.996094 305.347656 327.582031 C 305.34375 326.164062 306.097656 324.855469 307.320312 324.140625 C 307.273438 324.363281 307.246094 324.589844 307.246094 324.816406 C 307.242188 326.238281 308.207031 327.476562 309.585938 327.816406 C 310.964844 328.160156 312.398438 327.515625 313.058594 326.257812 C 313.210938 326.679688 313.285156 327.128906 313.28125 327.578125 Z M 313.28125 327.578125 " />
</g><g id="character_builder_plant-105"><path style=" stroke:none;fill-rule:nonzero;fill:rgb(20.784314%,20.784314%,20.784314%);fill-opacity:1;" d="M 369.039062 321.425781 C 368.289062 323.4375 367.539062 325.296875 366.878906 326.9375 C 366.339844 328.277344 365.839844 329.476562 365.378906 330.539062 C 364.851562 331.796875 363.789062 332.753906 362.484375 333.152344 C 361.183594 333.550781 359.769531 333.351562 358.628906 332.601562 L 345.984375 324.351562 L 331.652344 314.953125 L 343.855469 257.066406 C 343.855469 257.066406 341.246094 256.097656 337.203125 254.171875 C 335.09375 253.175781 332.605469 251.921875 329.882812 250.421875 L 329.878906 250.425781 C 325.140625 247.820312 320.59375 244.878906 316.273438 241.628906 C 308.324219 235.628906 300.570312 227.867188 296.023438 218.445312 C 294.667969 215.664062 293.632812 212.738281 292.933594 209.722656 C 290.015625 197.039062 291.816406 188.378906 295.453125 182.65625 C 300.703125 174.40625 309.832031 172.230469 314.03125 172.90625 C 332.097656 175.90625 370.125 209.320312 380.285156 250.433594 L 380.289062 250.433594 C 381.277344 254.652344 381.78125 258.96875 381.789062 263.300781 C 382.089844 283.152344 374.589844 306.75 369.039062 321.425781 Z M 369.039062 321.425781 " />
</g><g id="character_builder_plant-106"><path style=" stroke:none;fill-rule:nonzero;fill:rgb(20.784314%,20.784314%,20.784314%);fill-opacity:1;" d="M 378.613281 323.886719 L 374.332031 324.277344 C 373.488281 324.359375 372.644531 324.121094 371.96875 323.609375 L 351.058594 308.023438 L 356.632812 297.214844 L 375.921875 310.070312 L 375.921875 310.074219 C 378.121094 311.542969 379.746094 313.722656 380.519531 316.253906 L 381.523438 319.546875 C 381.824219 320.515625 381.667969 321.566406 381.105469 322.410156 C 380.539062 323.25 379.625 323.792969 378.613281 323.886719 Z M 378.613281 323.886719 " />
</g><g id="character_builder_plant-107"><path style=" stroke:none;fill-rule:nonzero;fill:rgb(7.843137%,7.843137%,7.843137%);fill-opacity:1;" d="M 369.039062 321.425781 C 368.289062 323.441406 367.539062 325.296875 366.878906 326.9375 L 351.0625 308.023438 Z M 369.039062 321.425781 " />
</g><g id="character_builder_plant-108"><path style=" stroke:none;fill-rule:nonzero;fill:rgb(7.843137%,7.843137%,7.843137%);fill-opacity:1;" d="M 184.449219 200.574219 C 181.9375 203.4375 178.375 207.648438 174.363281 212.730469 L 169.324219 208.457031 L 169.320312 208.453125 C 168.558594 207.8125 168.121094 206.871094 168.121094 205.875 L 168.121094 198.703125 C 168.121094 197.804688 168.476562 196.945312 169.113281 196.3125 C 169.75 195.675781 170.613281 195.320312 171.511719 195.324219 L 177.75 195.324219 C 178.640625 195.320312 179.492188 195.671875 180.128906 196.296875 Z M 184.449219 200.574219 " />
</g><g id="character_builder_plant-109"><path style=" stroke:none;fill-rule:nonzero;fill:rgb(20.784314%,20.784314%,20.784314%);fill-opacity:1;" d="M 210.324219 212.664062 C 212.128906 214.1875 212.8125 216.664062 212.046875 218.902344 C 208.898438 227.695312 204.996094 236.195312 200.378906 244.3125 C 199.667969 245.273438 168.175781 290.226562 152.515625 269.484375 C 145.097656 253.050781 163.992188 224.84375 177.207031 208.058594 C 180.582031 203.792969 183.574219 200.257812 185.691406 197.851562 C 187.632812 195.601562 188.820312 194.363281 188.820312 194.363281 Z M 210.324219 212.664062 " />
</g><g id="character_builder_plant-110"><path style=" stroke:none;fill-rule:nonzero;fill:rgb(34.901961%,21.176471%,17.647059%);fill-opacity:1;" d="M 277.378906 123.308594 C 270.808594 136.15625 269.070312 135.007812 267.777344 145.285156 L 264.386719 135.109375 C 264.386719 135.109375 266.914062 127.480469 263.914062 124.363281 C 268.414062 118.183594 263.644531 108.417969 265.460938 102.335938 C 267.671875 94.917969 258.824219 87.636719 248.554688 92.0625 C 238.289062 96.488281 226.496094 96.15625 226.496094 96.15625 L 226.5 96.148438 C 228.203125 95.332031 229.847656 94.394531 231.421875 93.34375 C 248.730469 81.734375 262.628906 77.742188 272.710938 98.285156 C 272.726562 98.246094 283.945312 110.464844 277.382812 123.304688 Z M 277.378906 123.308594 " />
</g><g id="character_builder_plant-111"><path style=" stroke:none;fill-rule:nonzero;fill:rgb(34.901961%,21.176471%,17.647059%);fill-opacity:1;" d="M 252.421875 128.640625 C 251.535156 125.851562 249.78125 123.417969 247.417969 121.695312 C 241.089844 116.679688 227.917969 120.707031 216.871094 115.5 C 223.746094 116.199219 230.695312 115.429688 237.253906 113.25 C 248.195312 109.566406 252.375 117.53125 252.417969 128.640625 Z M 252.421875 128.640625 " />
</g><g id="character_builder_plant-112"><path style=" stroke:none;fill-rule:nonzero;fill:rgb(57.647059%,57.647059%,57.647059%);fill-opacity:1;" d="M 262.679688 591.179688 C 262.472656 591.132812 262.289062 591.011719 262.171875 590.835938 C 259.546875 586.9375 256.960938 586.5625 256.921875 586.5625 L 256.921875 586.558594 C 256.480469 586.5 256.167969 586.101562 256.214844 585.660156 C 256.230469 585.441406 256.332031 585.238281 256.5 585.097656 C 256.664062 584.957031 256.882812 584.890625 257.101562 584.910156 C 257.238281 584.910156 260.425781 585.308594 263.507812 589.890625 L 263.503906 589.890625 C 263.75 590.261719 263.65625 590.761719 263.289062 591.015625 C 263.113281 591.148438 262.894531 591.207031 262.679688 591.179688 Z M 262.679688 591.179688 " />
</g><g id="character_builder_plant-113"><path style=" stroke:none;fill-rule:nonzero;fill:rgb(57.647059%,57.647059%,57.647059%);fill-opacity:1;" d="M 265.925781 588.75 C 265.71875 588.710938 265.535156 588.589844 265.417969 588.414062 C 262.792969 584.507812 260.207031 584.140625 260.167969 584.132812 L 260.167969 584.128906 C 259.722656 584.082031 259.402344 583.679688 259.453125 583.234375 C 259.5 582.789062 259.902344 582.46875 260.347656 582.515625 C 260.484375 582.515625 263.671875 582.914062 266.753906 587.503906 C 267 587.875 266.902344 588.378906 266.535156 588.628906 C 266.355469 588.75 266.136719 588.792969 265.925781 588.75 Z M 265.925781 588.75 " />
</g><g id="character_builder_plant-114"><path style=" stroke:none;fill-rule:nonzero;fill:rgb(57.647059%,57.647059%,57.647059%);fill-opacity:1;" d="M 269.902344 586.359375 C 269.695312 586.316406 269.511719 586.191406 269.390625 586.011719 C 266.773438 582.113281 264.179688 581.738281 264.140625 581.738281 C 263.699219 581.683594 263.382812 581.28125 263.429688 580.835938 C 263.445312 580.621094 263.546875 580.417969 263.714844 580.277344 C 263.882812 580.132812 264.097656 580.066406 264.316406 580.085938 C 264.453125 580.085938 267.644531 580.484375 270.722656 585.074219 L 270.71875 585.074219 C 270.839844 585.253906 270.886719 585.472656 270.84375 585.683594 C 270.804688 585.894531 270.679688 586.078125 270.503906 586.199219 C 270.328125 586.324219 270.113281 586.382812 269.902344 586.359375 Z M 269.902344 586.359375 " />
</g><g id="character_builder_plant-115"><path style=" stroke:none;fill-rule:nonzero;fill:rgb(57.647059%,57.647059%,57.647059%);fill-opacity:1;" d="M 319.453125 563.917969 C 319.269531 564.019531 319.050781 564.042969 318.847656 563.984375 C 314.347656 562.6875 312.097656 564.066406 312.097656 564.082031 C 311.917969 564.203125 311.699219 564.246094 311.488281 564.203125 C 311.277344 564.160156 311.09375 564.035156 310.972656 563.859375 C 310.722656 563.484375 310.824219 562.980469 311.199219 562.734375 C 311.3125 562.660156 313.996094 560.898438 319.308594 562.425781 L 319.304688 562.425781 C 319.511719 562.484375 319.691406 562.621094 319.792969 562.8125 C 319.898438 563 319.921875 563.222656 319.859375 563.429688 C 319.804688 563.644531 319.65625 563.824219 319.453125 563.917969 Z M 319.453125 563.917969 " />
</g><g id="character_builder_plant-116"><path style=" stroke:none;fill-rule:nonzero;fill:rgb(57.647059%,57.647059%,57.647059%);fill-opacity:1;" d="M 320.398438 559.996094 C 320.210938 560.097656 319.992188 560.121094 319.785156 560.0625 C 315.285156 558.765625 313.035156 560.144531 313.035156 560.160156 C 312.855469 560.28125 312.636719 560.324219 312.425781 560.28125 C 312.214844 560.238281 312.03125 560.113281 311.910156 559.933594 C 311.660156 559.5625 311.761719 559.058594 312.136719 558.808594 C 312.242188 558.734375 314.933594 556.972656 320.246094 558.5 L 320.242188 558.503906 C 320.449219 558.5625 320.625 558.699219 320.730469 558.890625 C 320.832031 559.078125 320.859375 559.300781 320.796875 559.507812 C 320.738281 559.71875 320.59375 559.894531 320.398438 559.996094 Z M 320.398438 559.996094 " />
</g><g id="character_builder_plant-117"><path style=" stroke:none;fill-rule:nonzero;fill:rgb(57.647059%,57.647059%,57.647059%);fill-opacity:1;" d="M 321.878906 555.578125 C 321.691406 555.679688 321.472656 555.703125 321.269531 555.644531 C 316.769531 554.347656 314.519531 555.726562 314.519531 555.742188 C 314.144531 555.980469 313.648438 555.878906 313.402344 555.511719 C 313.15625 555.140625 313.253906 554.644531 313.621094 554.390625 C 313.734375 554.316406 316.417969 552.554688 321.734375 554.082031 L 321.734375 554.085938 C 322.164062 554.210938 322.410156 554.660156 322.289062 555.089844 C 322.222656 555.300781 322.074219 555.476562 321.878906 555.578125 Z M 321.878906 555.578125 " />
</g><g id="character_builder_plant-118"><path style=" stroke:none;fill-rule:nonzero;fill:rgb(7.843137%,7.843137%,7.843137%);fill-opacity:1;" d="M 381.808594 263.300781 L 381.679688 263.546875 C 378.011719 234.671875 343.691406 188.863281 316.273438 182.621094 L 316.273438 182.625 C 309.414062 181.175781 302.324219 181.175781 295.460938 182.625 C 300.710938 174.375 309.839844 172.199219 314.039062 172.875 C 332.105469 175.875 370.132812 209.289062 380.292969 250.402344 L 380.296875 250.402344 C 381.289062 254.628906 381.800781 258.957031 381.808594 263.300781 Z M 381.808594 263.300781 " />
</g><g id="character_builder_plant-119"><path style=" stroke:none;fill-rule:nonzero;fill:rgb(96.470588%,51.764706%,45.490196%);fill-opacity:1;" d="M 264.390625 135.105469 L 264.992188 136.898438 L 260.09375 140.589844 L 252.984375 157.449219 C 252.984375 157.449219 251.25 161.25 248.125 162.75 L 247.609375 157.460938 L 247.605469 157.460938 C 245.507812 159.027344 243.285156 160.421875 240.960938 161.625 C 233.355469 156.03125 243.511719 139.289062 241.277344 129.5625 C 239.289062 120.898438 227.636719 118.363281 225.105469 117.914062 C 233.867188 119.292969 242.617188 117.914062 247.417969 121.664062 C 252.929688 126.023438 254.582031 129.164062 255.039062 130.972656 C 254.988281 126.058594 257.09375 121.085938 262.304688 121.492188 C 268.125 121.964844 264.390625 135.105469 264.390625 135.105469 Z M 264.390625 135.105469 " />
</g><g id="character_builder_plant-120"><path style=" stroke:none;fill-rule:nonzero;fill:rgb(96.470588%,51.764706%,45.490196%);fill-opacity:1;" d="M 346.003906 324.335938 L 345.34375 328.511719 L 344.96875 330.875 C 344.902344 331.332031 344.8125 331.773438 344.699219 332.226562 C 344.34375 333.714844 343.785156 335.148438 343.042969 336.488281 L 339 343.726562 C 338.113281 345.324219 336.292969 346.164062 334.5 345.800781 L 319.964844 342.851562 C 319.785156 342.8125 319.605469 342.769531 319.433594 342.714844 C 320.320312 342.878906 331.074219 344.679688 334.695312 335.621094 C 339.292969 324.125 331.636719 314.949219 331.636719 314.949219 Z M 346.003906 324.335938 " />
</g></g>
</svg>