<svg xmlns="http://www.w3.org/2000/svg" width="384pt" height="384pt" viewBox="0 0 384 384" version="1.1" class="iconadda">
<g>
<g id="Contact_Support_free_icon-0"><path style=" stroke:none;fill-rule:nonzero;fill:#00366d;fill-opacity:1;" d="M 255.074219 126.785156 C 253.5625 126.785156 252.109375 126.183594 251.039062 125.113281 C 249.96875 124.042969 249.367188 122.589844 249.367188 121.078125 L 249.367188 87.980469 C 249.367188 45.765625 214.925781 11.421875 172.59375 11.421875 L 123.078125 11.421875 C 80.734375 11.421875 46.285156 45.765625 46.285156 87.980469 L 46.285156 121.078125 C 46.285156 124.230469 43.730469 126.785156 40.578125 126.785156 C 37.425781 126.785156 34.871094 124.230469 34.871094 121.078125 L 34.871094 87.980469 C 34.867188 39.464844 74.4375 0 123.078125 0 L 172.59375 0 C 221.222656 0 260.785156 39.464844 260.785156 87.976562 L 260.785156 121.074219 C 260.785156 124.226562 258.226562 126.785156 255.074219 126.785156 Z M 255.074219 126.785156 " />
</g><g id="Contact_Support_free_icon-1"><path style=" stroke:none;fill-rule:evenodd;fill:#feceb0;fill-opacity:1;" d="M 147.824219 223.386719 C 141.441406 223.386719 135.039062 222.046875 127.792969 219.375 C 122.363281 217.367188 117.105469 214.714844 112.089844 211.566406 L 112.089844 246.042969 L 149.945312 290.921875 L 187.800781 246.042969 L 187.800781 208.738281 C 181.550781 213.140625 174.84375 216.785156 167.855469 219.375 C 160.609375 222.050781 154.230469 223.386719 147.824219 223.386719 Z M 147.824219 223.386719 " />
</g><g id="Contact_Support_free_icon-2"><path style=" stroke:none;fill-rule:evenodd;fill:#feb09e;fill-opacity:1;" d="M 127.792969 245.914062 C 135.039062 248.589844 141.441406 249.925781 147.824219 249.925781 C 154.226562 249.925781 160.609375 248.585938 167.855469 245.914062 C 173.003906 243.820312 172.289062 246.691406 172.289062 252.0625 L 172.289062 264.425781 L 187.800781 246.042969 L 187.800781 208.738281 C 181.550781 213.140625 174.84375 216.785156 167.855469 219.375 C 160.609375 222.050781 154.226562 223.386719 147.824219 223.386719 C 141.441406 223.386719 135.039062 222.046875 127.792969 219.375 C 122.363281 217.367188 117.105469 214.714844 112.089844 211.566406 L 112.089844 238.105469 C 117.109375 241.253906 122.367188 243.910156 127.792969 245.914062 Z M 127.792969 245.914062 " />
</g><g id="Contact_Support_free_icon-3"><path style=" stroke:none;fill-rule:evenodd;fill:#fc4655;fill-opacity:1;" d="M 284.320312 335.429688 L 284.320312 381.714844 C 284.320312 382.320312 284.082031 382.902344 283.652344 383.332031 C 283.226562 383.761719 282.644531 384 282.039062 384 L 17.875 384 C 17.265625 384 16.6875 383.761719 16.257812 383.332031 C 15.828125 382.902344 15.589844 382.320312 15.589844 381.714844 L 15.589844 335.429688 C 15.589844 294.007812 54.871094 268.417969 88.097656 254.566406 L 149.949219 280.066406 L 211.792969 254.566406 C 245.039062 268.417969 284.324219 294.007812 284.324219 335.429688 Z M 284.320312 335.429688 " />
</g><g id="Contact_Support_free_icon-4"><path style=" stroke:none;fill-rule:evenodd;fill:#99e5fc;fill-opacity:1;" d="M 220.230469 153.460938 C 220.230469 161.097656 218.304688 169.234375 214.867188 177.324219 L 246.296875 177.324219 C 256.441406 177.324219 264.75 169.039062 264.75 158.898438 L 264.746094 137.234375 C 264.746094 130.289062 260.832031 124.203125 255.078125 121.074219 L 255.074219 121.074219 C 252.382812 119.601562 249.363281 118.832031 246.292969 118.832031 L 220.230469 118.832031 Z M 75.441406 153.460938 L 75.464844 136.78125 L 75.488281 118.828125 L 49.378906 118.832031 C 46.199219 118.832031 43.191406 119.652344 40.574219 121.074219 C 34.820312 124.203125 30.90625 130.289062 30.90625 137.234375 L 30.90625 158.898438 C 30.90625 169.039062 39.214844 177.324219 49.378906 177.324219 L 80.785156 177.324219 C 77.347656 169.234375 75.441406 161.097656 75.441406 153.460938 Z M 75.441406 153.460938 " />
</g><g id="Contact_Support_free_icon-5"><path style=" stroke:none;fill-rule:evenodd;fill:#62dbfc;fill-opacity:1;" d="M 80.808594 177.324219 C 78.257812 171.304688 76.523438 165.242188 75.832031 159.394531 L 49.378906 159.394531 C 39.210938 159.394531 30.90625 151.109375 30.90625 140.992188 L 30.90625 158.898438 C 30.90625 169.039062 39.214844 177.324219 49.378906 177.324219 Z M 219.835938 159.394531 C 219.121094 165.242188 217.414062 171.304688 214.839844 177.324219 L 246.292969 177.324219 C 256.4375 177.324219 264.746094 169.039062 264.746094 158.898438 L 264.746094 140.992188 C 264.746094 151.109375 256.4375 159.394531 246.292969 159.394531 Z M 219.835938 159.394531 " />
</g><g id="Contact_Support_free_icon-6"><path style=" stroke:none;fill-rule:evenodd;fill:#f2fbff;fill-opacity:1;" d="M 115.117188 301.257812 L 149.945312 280.070312 L 112.089844 246.046875 C 105.058594 248.140625 96.773438 250.945312 88.101562 254.570312 L 109.386719 299.492188 C 110.664062 302.167969 113.171875 302.058594 115.117188 301.261719 Z M 149.945312 280.070312 L 184.792969 301.257812 C 186.71875 302.054688 189.25 302.164062 190.503906 299.488281 L 211.789062 254.566406 C 203.113281 250.941406 194.851562 248.136719 187.800781 246.042969 Z M 149.945312 280.070312 " />
</g><g id="Contact_Support_free_icon-7"><path style=" stroke:none;fill-rule:evenodd;fill:#e84445;fill-opacity:1;" d="M 211.789062 254.566406 L 201.132812 260.832031 L 203.652344 271.738281 C 235.0625 286.171875 261.710938 306.128906 261.863281 344.535156 L 262.015625 383.996094 L 282.035156 383.996094 L 282.039062 384 C 283.300781 384 284.320312 382.976562 284.320312 381.714844 L 284.320312 335.429688 C 284.320312 294.003906 245.035156 268.414062 211.789062 254.5625 Z M 211.789062 254.566406 " />
</g><g id="Contact_Support_free_icon-8"><path style=" stroke:none;fill-rule:nonzero;fill:#e84445;fill-opacity:1;" d="M 57.6875 384 L 57.6875 355.867188 C 57.6875 354.355469 58.289062 352.902344 59.359375 351.828125 C 60.429688 350.757812 61.882812 350.15625 63.398438 350.160156 C 66.550781 350.160156 69.105469 352.710938 69.105469 355.867188 L 69.105469 384 Z M 242.222656 355.867188 L 242.222656 384 L 230.804688 384 L 230.804688 355.867188 C 230.804688 354.355469 231.40625 352.902344 232.476562 351.832031 C 233.546875 350.761719 235 350.160156 236.515625 350.160156 C 238.027344 350.160156 239.480469 350.761719 240.550781 351.832031 C 241.621094 352.902344 242.222656 354.355469 242.222656 355.867188 Z M 242.222656 355.867188 " />
</g><g id="Contact_Support_free_icon-9"><path style=" stroke:none;fill-rule:evenodd;fill:#fed05c;fill-opacity:1;" d="M 361.699219 304.921875 C 362.371094 303.746094 363.011719 302.550781 363.625 301.339844 C 377.664062 272.40625 359.773438 239.871094 323.605469 228.605469 L 323.605469 228.609375 C 320.738281 227.726562 317.828125 226.992188 314.886719 226.410156 C 300.890625 223.648438 286.613281 224.488281 273.742188 228.308594 C 258.6875 217.023438 234.890625 221.769531 240.082031 228.417969 L 249.46875 240.480469 C 242.332031 245.960938 236.511719 252.734375 232.703125 260.609375 C 218.640625 289.519531 236.53125 322.078125 272.699219 333.320312 C 307.308594 344.085938 346.117188 331.421875 361.691406 304.925781 Z M 361.699219 304.921875 " />
</g><g id="Contact_Support_free_icon-10"><path style=" stroke:none;fill-rule:evenodd;fill:#fec245;fill-opacity:1;" d="M 344.089844 292.777344 C 335.132812 311.179688 315.40625 323.675781 292.910156 327.429688 C 283.847656 328.941406 268.855469 329.027344 259.402344 327.515625 C 259.121094 327.472656 258.816406 327.40625 258.535156 327.363281 C 258.882812 327.558594 259.226562 327.75 259.59375 327.945312 L 259.597656 327.945312 C 263.792969 330.132812 268.179688 331.929688 272.707031 333.316406 C 278.265625 335.0625 283.957031 336.1875 289.644531 336.746094 C 319.214844 339.660156 348.632812 327.144531 361.699219 304.921875 C 362.371094 303.746094 363.011719 302.550781 363.625 301.339844 C 377.664062 272.40625 359.773438 239.871094 323.605469 228.605469 L 323.605469 228.609375 C 320.738281 227.726562 317.828125 226.992188 314.886719 226.410156 C 314.195312 226.28125 313.480469 226.152344 312.789062 226.023438 C 339.179688 240.414062 356.160156 267.945312 344.089844 292.78125 Z M 344.089844 292.777344 " />
</g><g id="Contact_Support_free_icon-11"><path style=" stroke:none;fill-rule:nonzero;fill:#00366d;fill-opacity:1;" d="M 324.425781 272.25 L 273.394531 272.25 C 270.242188 272.25 267.6875 269.695312 267.6875 266.539062 C 267.6875 263.386719 270.242188 260.828125 273.394531 260.828125 L 324.425781 260.828125 C 327.578125 260.828125 330.136719 263.382812 330.136719 266.539062 C 330.136719 269.691406 327.582031 272.25 324.425781 272.25 Z M 324.425781 299.84375 L 273.394531 299.84375 C 270.242188 299.84375 267.6875 297.289062 267.6875 294.132812 C 267.6875 290.980469 270.242188 288.425781 273.394531 288.425781 L 324.425781 288.425781 C 327.578125 288.425781 330.136719 290.984375 330.136719 294.136719 C 330.136719 297.289062 327.578125 299.84375 324.425781 299.84375 Z M 324.425781 299.84375 " />
</g><g id="Contact_Support_free_icon-12"><path style=" stroke:none;fill-rule:evenodd;fill:#004281;fill-opacity:1;" d="M 227.839844 102.304688 C 227.796875 43.769531 133.289062 14.554688 103.695312 52.894531 C 65.039062 56.28125 67.875 107.589844 67.875 114.363281 L 67.851562 127.804688 C 103.089844 127.804688 113.515625 118.140625 227.839844 121.980469 Z M 227.839844 102.304688 " />
</g><g id="Contact_Support_free_icon-13"><path style=" stroke:none;fill-rule:evenodd;fill:#00366d;fill-opacity:1;" d="M 125.609375 38.351562 C 162.621094 39.558594 205.410156 65.667969 205.429688 105.042969 L 205.429688 121.355469 C 212.417969 121.507812 219.878906 121.699219 227.839844 121.980469 L 227.839844 102.304688 C 227.816406 54.535156 164.847656 26.292969 125.605469 38.351562 Z M 125.609375 38.351562 " />
</g><g id="Contact_Support_free_icon-14"><path style=" stroke:none;fill-rule:evenodd;fill:#fedec0;fill-opacity:1;" d="M 98.980469 104.007812 C 86.109375 125.539062 84.011719 127.804688 67.851562 127.804688 L 67.828125 153.457031 C 67.828125 177.386719 86.667969 206.40625 112.085938 222.414062 C 117.105469 225.5625 122.359375 228.21875 127.789062 230.222656 C 135.035156 232.898438 141.4375 234.234375 147.820312 234.234375 C 154.222656 234.234375 160.605469 232.894531 167.851562 230.222656 C 174.839844 227.632812 181.542969 223.988281 187.796875 219.585938 C 211.050781 203.125 227.835938 176.023438 227.835938 153.457031 L 227.839844 121.980469 C 200.800781 121.074219 155.675781 115.464844 130.105469 101.675781 C 112.019531 91.925781 110.960938 83.984375 98.976562 104.007812 Z M 98.980469 104.007812 " />
</g><g id="Contact_Support_free_icon-15"><path style=" stroke:none;fill-rule:evenodd;fill:#feceb0;fill-opacity:1;" d="M 150.636719 234.15625 C 156.109375 233.8125 161.691406 232.515625 167.855469 230.230469 C 174.84375 227.640625 181.546875 223.996094 187.800781 219.59375 C 211.054688 203.132812 227.839844 176.03125 227.839844 153.464844 L 227.839844 121.984375 C 221.265625 121.746094 213.605469 121.25 205.429688 120.429688 L 205.429688 159.527344 C 205.429688 182.09375 188.664062 209.21875 165.390625 225.65625 C 160.71875 228.957031 155.761719 231.828125 150.636719 234.15625 Z M 150.636719 234.15625 " />
</g><g id="Contact_Support_free_icon-16"><path style=" stroke:none;fill-rule:nonzero;fill:#feb09e;fill-opacity:1;" d="M 149.921875 205.859375 L 149.878906 205.859375 C 145.820312 205.828125 141.867188 204.378906 138.132812 201.554688 L 138.128906 201.554688 C 135.679688 199.632812 135.222656 196.105469 137.101562 193.621094 C 138.976562 191.136719 142.496094 190.613281 145.015625 192.445312 C 146.734375 193.746094 148.386719 194.417969 149.921875 194.441406 C 151.472656 194.417969 153.117188 193.75 154.8125 192.460938 C 157.320312 190.601562 160.859375 191.105469 162.753906 193.589844 C 164.644531 196.074219 164.191406 199.617188 161.730469 201.542969 C 158.066406 204.335938 153.996094 205.828125 149.964844 205.859375 Z M 149.921875 205.859375 " />
</g><g id="Contact_Support_free_icon-17"><path style=" stroke:none;fill-rule:nonzero;fill:#00366d;fill-opacity:1;" d="M 115.464844 170.324219 C 113.949219 170.324219 112.496094 169.722656 111.425781 168.652344 C 110.355469 167.582031 109.753906 166.128906 109.753906 164.617188 L 109.753906 160.796875 C 109.753906 157.644531 112.308594 155.089844 115.460938 155.089844 C 118.613281 155.089844 121.167969 157.644531 121.167969 160.796875 L 121.167969 164.617188 L 121.171875 164.617188 C 121.171875 166.128906 120.570312 167.582031 119.5 168.652344 C 118.429688 169.722656 116.976562 170.324219 115.464844 170.324219 Z M 180.207031 170.324219 C 178.695312 170.324219 177.242188 169.722656 176.171875 168.652344 C 175.101562 167.582031 174.5 166.128906 174.5 164.617188 L 174.5 160.796875 C 174.5 157.644531 177.054688 155.089844 180.207031 155.089844 C 183.359375 155.089844 185.914062 157.644531 185.914062 160.796875 L 185.914062 164.617188 C 185.917969 166.128906 185.316406 167.582031 184.246094 168.652344 C 183.171875 169.722656 181.722656 170.324219 180.207031 170.324219 Z M 121.277344 147.085938 C 120.21875 147.085938 119.183594 146.792969 118.285156 146.238281 C 116.324219 145.027344 114.550781 145.046875 112.617188 146.238281 L 112.621094 146.238281 C 109.9375 147.855469 106.453125 147.011719 104.808594 144.347656 C 103.164062 141.679688 103.976562 138.1875 106.625 136.519531 C 109.417969 134.796875 112.394531 133.921875 115.460938 133.921875 C 118.515625 133.921875 121.480469 134.796875 124.277344 136.519531 C 126.453125 137.859375 127.472656 140.480469 126.773438 142.9375 C 126.078125 145.394531 123.832031 147.089844 121.277344 147.085938 Z M 186.042969 147.085938 C 184.984375 147.089844 183.949219 146.792969 183.050781 146.238281 C 181.089844 145.027344 179.320312 145.03125 177.363281 146.238281 C 174.683594 147.855469 171.195312 147.011719 169.554688 144.347656 C 167.910156 141.679688 168.71875 138.1875 171.371094 136.519531 C 174.164062 134.796875 177.140625 133.921875 180.207031 133.921875 C 183.273438 133.921875 186.25 134.796875 189.042969 136.519531 C 191.21875 137.859375 192.238281 140.480469 191.539062 142.9375 C 190.84375 145.394531 188.597656 147.089844 186.042969 147.085938 Z M 186.042969 147.085938 " />
</g><g id="Contact_Support_free_icon-18"><path style=" stroke:none;fill-rule:evenodd;fill:#def5fd;fill-opacity:1;" d="M 203.65625 271.738281 L 211.789062 254.5625 C 203.113281 250.9375 194.851562 248.132812 187.800781 246.039062 L 172.289062 259.976562 C 173.261719 260.277344 201.1875 270.59375 203.65625 271.734375 Z M 203.65625 271.738281 " />
</g></g>
</svg>