<svg xmlns="http://www.w3.org/2000/svg" width="384pt" height="384pt" viewBox="0 0 384 384" version="1.1" class="iconadda">
<g>
<g id="Delete_free_icon_9MlRVJl-0"><path style=" stroke:none;fill-rule:nonzero;fill:#e4e7ed;fill-opacity:1;" d="M 282.175781 378.363281 L 101.824219 378.363281 C 85.222656 378.363281 71.765625 364.90625 71.765625 348.304688 L 71.765625 95.8125 L 312.234375 95.8125 L 312.234375 348.304688 C 312.234375 364.90625 298.777344 378.363281 282.175781 378.363281 Z M 282.175781 378.363281 " />
</g><g id="Delete_free_icon_9MlRVJl-1"><path style=" stroke:none;fill-rule:nonzero;fill:#bababf;fill-opacity:1;" d="M 176.96875 333.277344 L 176.96875 140.902344 C 176.96875 132.601562 183.699219 125.871094 192 125.871094 C 200.300781 125.871094 207.03125 132.601562 207.03125 140.902344 L 207.03125 333.277344 C 207.03125 341.578125 200.300781 348.308594 192 348.308594 C 183.699219 348.308594 176.96875 341.578125 176.96875 333.277344 Z M 109.339844 333.277344 L 109.339844 140.902344 C 109.339844 132.601562 116.070312 125.871094 124.371094 125.871094 C 132.671875 125.871094 139.402344 132.601562 139.402344 140.902344 L 139.402344 333.277344 C 139.402344 341.578125 132.671875 348.308594 124.371094 348.308594 C 116.070312 348.308594 109.339844 341.578125 109.339844 333.277344 Z M 274.660156 333.277344 L 274.660156 140.902344 C 274.660156 132.601562 267.929688 125.871094 259.628906 125.871094 C 251.328125 125.871094 244.597656 132.601562 244.597656 140.902344 L 244.597656 333.277344 C 244.597656 341.578125 251.328125 348.308594 259.628906 348.308594 C 267.929688 348.308594 274.660156 341.578125 274.660156 333.277344 Z M 274.660156 333.277344 " />
</g><g id="Delete_free_icon_9MlRVJl-2"><path style=" stroke:none;fill-rule:nonzero;fill:#ec9c87;fill-opacity:1;" d="M 331.023438 95.8125 L 52.980469 95.8125 L 52.980469 73.269531 C 52.980469 60.820312 63.074219 50.726562 75.523438 50.726562 L 308.476562 50.726562 C 320.925781 50.726562 331.019531 60.820312 331.019531 73.269531 Z M 128.125 43.210938 L 128.125 50.726562 L 150.667969 50.726562 L 150.667969 43.210938 C 150.667969 34.910156 157.398438 28.179688 165.699219 28.179688 L 218.300781 28.179688 C 226.601562 28.179688 233.332031 34.910156 233.332031 43.210938 L 233.332031 50.726562 L 255.875 50.726562 L 255.875 43.210938 C 255.875 22.460938 239.050781 5.636719 218.300781 5.636719 L 165.699219 5.636719 C 144.949219 5.636719 128.125 22.460938 128.125 43.210938 Z M 128.125 43.210938 " />
</g><g id="Delete_free_icon_9MlRVJl-3"><path style=" stroke:none;fill-rule:nonzero;fill:#9a999d;fill-opacity:1;" d="M 192 325.761719 C 183.699219 325.761719 176.96875 319.03125 176.96875 310.730469 L 176.96875 333.273438 C 176.96875 341.574219 183.699219 348.304688 192 348.304688 C 200.300781 348.304688 207.03125 341.574219 207.03125 333.273438 L 207.03125 310.730469 C 207.03125 319.03125 200.300781 325.761719 192 325.761719 Z M 124.367188 325.761719 C 116.066406 325.761719 109.335938 319.03125 109.335938 310.730469 L 109.335938 333.273438 C 109.335938 341.574219 116.066406 348.304688 124.367188 348.304688 C 132.667969 348.304688 139.398438 341.574219 139.398438 333.273438 L 139.398438 310.730469 C 139.398438 319.03125 132.667969 325.761719 124.367188 325.761719 Z M 259.632812 325.761719 C 251.332031 325.761719 244.601562 319.03125 244.601562 310.730469 L 244.601562 333.273438 C 244.601562 341.574219 251.332031 348.304688 259.632812 348.304688 C 267.933594 348.304688 274.664062 341.574219 274.664062 333.273438 L 274.664062 310.730469 C 274.664062 319.03125 267.933594 325.761719 259.632812 325.761719 Z M 259.632812 325.761719 " />
</g><g id="Delete_free_icon_9MlRVJl-4"><path style=" stroke:none;fill-rule:nonzero;fill:#e4694b;fill-opacity:1;" d="M 52.976562 73.269531 L 331.019531 73.269531 L 331.019531 95.8125 L 52.976562 95.8125 Z M 52.976562 73.269531 " />
</g><g id="Delete_free_icon_9MlRVJl-5"><path style=" stroke:none;fill-rule:nonzero;fill:#c8d0da;fill-opacity:1;" d="M 282.175781 355.820312 L 101.824219 355.820312 C 85.222656 355.820312 71.765625 342.363281 71.765625 325.761719 L 71.765625 348.304688 C 71.765625 364.90625 85.222656 378.363281 101.824219 378.363281 L 282.175781 378.363281 C 298.777344 378.363281 312.234375 364.90625 312.234375 348.304688 L 312.234375 325.761719 C 312.234375 342.363281 298.777344 355.820312 282.175781 355.820312 Z M 282.175781 355.820312 " />
</g><g id="Delete_free_icon_9MlRVJl-6"><path style=" stroke:none;fill-rule:nonzero;fill:#fefeff;fill-opacity:1;" d="M 308.476562 78.902344 L 278.417969 78.902344 L 278.417969 67.632812 L 308.476562 67.632812 Z M 267.144531 78.902344 L 255.871094 78.902344 L 255.875 67.632812 L 267.148438 67.632812 Z M 267.144531 78.902344 " />
</g><g id="Delete_free_icon_9MlRVJl-7"><path style=" stroke:none;fill-rule:nonzero;fill:#000001;fill-opacity:1;" d="M 77.402344 348.304688 L 77.402344 325.007812 L 66.128906 325.011719 L 66.128906 348.308594 C 66.128906 367.992188 82.140625 384.003906 101.824219 384.003906 L 249.21875 384.003906 L 249.21875 372.730469 L 101.824219 372.726562 C 88.359375 372.726562 77.402344 361.769531 77.402344 348.304688 Z M 66.128906 313.738281 L 77.402344 313.738281 L 77.402344 101.449219 L 101.824219 101.449219 L 101.824219 90.175781 L 58.613281 90.175781 L 58.613281 73.269531 C 58.613281 63.945312 66.199219 56.359375 75.523438 56.359375 L 276.808594 56.359375 L 276.808594 45.089844 L 261.511719 45.089844 L 261.511719 43.210938 C 261.511719 19.382812 242.128906 0 218.300781 0 L 165.699219 0 C 141.871094 0 122.488281 19.382812 122.488281 43.210938 L 122.488281 45.089844 L 75.523438 45.089844 C 59.984375 45.089844 47.34375 57.730469 47.34375 73.269531 L 47.34375 101.449219 L 66.128906 101.449219 Z M 227.695312 45.089844 L 156.304688 45.089844 L 156.304688 43.210938 C 156.304688 38.03125 160.519531 33.816406 165.699219 33.816406 L 218.300781 33.816406 C 223.480469 33.816406 227.695312 38.03125 227.695312 43.210938 Z M 133.761719 43.210938 C 133.761719 25.601562 148.089844 11.273438 165.699219 11.273438 L 218.300781 11.273438 C 235.910156 11.273438 250.238281 25.601562 250.238281 43.210938 L 250.238281 45.089844 L 238.964844 45.089844 L 238.964844 43.210938 C 238.964844 31.816406 229.695312 22.546875 218.300781 22.546875 L 165.699219 22.546875 C 154.304688 22.542969 145.035156 31.8125 145.035156 43.210938 L 145.035156 45.089844 L 133.761719 45.089844 Z M 306.597656 348.304688 C 306.597656 361.769531 295.640625 372.726562 282.175781 372.726562 L 260.492188 372.726562 L 260.492188 384 L 282.175781 384 C 301.859375 384 317.871094 367.988281 317.871094 348.304688 L 317.871094 199.300781 L 306.597656 199.300781 Z M 306.597656 348.304688 " />
</g><g id="Delete_free_icon_9MlRVJl-8"><path style=" stroke:none;fill-rule:nonzero;fill:#000001;fill-opacity:1;" d="M 212.664062 171.816406 L 212.664062 140.898438 C 212.664062 129.503906 203.394531 120.234375 192 120.234375 C 180.605469 120.234375 171.335938 129.503906 171.335938 140.898438 L 171.335938 333.273438 C 171.335938 344.667969 180.605469 353.9375 192 353.9375 C 203.394531 353.9375 212.664062 344.667969 212.664062 333.273438 L 212.664062 183.089844 L 201.390625 183.089844 L 201.394531 333.277344 C 201.394531 338.457031 197.179688 342.671875 192 342.671875 C 186.820312 342.671875 182.605469 338.457031 182.605469 333.277344 L 182.605469 140.902344 C 182.605469 135.722656 186.820312 131.507812 192 131.507812 C 197.179688 131.507812 201.394531 135.722656 201.394531 140.902344 L 201.394531 171.820312 Z M 124.367188 353.941406 C 135.761719 353.941406 145.03125 344.671875 145.03125 333.277344 L 145.03125 140.902344 C 145.03125 129.507812 135.761719 120.238281 124.367188 120.238281 C 112.972656 120.234375 103.703125 129.503906 103.703125 140.898438 L 103.703125 333.273438 C 103.703125 344.667969 112.972656 353.9375 124.367188 353.9375 Z M 114.972656 140.898438 C 114.972656 135.71875 119.1875 131.503906 124.367188 131.503906 C 129.546875 131.503906 133.761719 135.71875 133.761719 140.898438 L 133.761719 333.273438 C 133.761719 338.453125 129.546875 342.667969 124.367188 342.667969 C 119.1875 342.667969 114.972656 338.453125 114.972656 333.273438 Z M 280.296875 333.277344 L 280.296875 140.902344 C 280.296875 129.507812 271.027344 120.238281 259.632812 120.238281 C 248.238281 120.234375 238.964844 129.503906 238.964844 140.898438 L 238.964844 333.273438 C 238.964844 344.667969 248.234375 353.9375 259.628906 353.9375 C 271.023438 353.9375 280.292969 344.667969 280.292969 333.273438 Z M 269.023438 333.277344 C 269.023438 338.457031 264.808594 342.671875 259.628906 342.671875 C 254.449219 342.671875 250.234375 338.457031 250.234375 333.277344 L 250.234375 140.902344 C 250.234375 135.722656 254.449219 131.507812 259.628906 131.507812 C 264.808594 131.507812 269.023438 135.722656 269.023438 140.902344 Z M 269.023438 333.277344 " />
</g><g id="Delete_free_icon_9MlRVJl-9"><path style=" stroke:none;fill-rule:nonzero;fill:#000001;fill-opacity:1;" d="M 308.476562 45.089844 L 288.078125 45.089844 L 288.078125 56.363281 L 308.476562 56.359375 C 317.800781 56.359375 325.382812 63.945312 325.382812 73.265625 L 325.386719 90.175781 L 113.097656 90.175781 L 113.097656 101.449219 L 306.597656 101.449219 L 306.597656 188.027344 L 317.871094 188.027344 L 317.871094 101.449219 L 336.65625 101.449219 L 336.65625 73.269531 C 336.65625 57.730469 324.015625 45.089844 308.476562 45.089844 Z M 308.476562 45.089844 " />
</g></g>
</svg>