<svg xmlns="http://www.w3.org/2000/svg" width="750pt" height="750pt" viewBox="0 0 750 750" version="1.1" class="iconadda">
<g id="surface21907">
<g id="e-commerce_shopping_d3LDEJP-0"><path style=" stroke:none;fill-rule:nonzero;fill:rgb(95.294118%,95.686275%,99.607843%);fill-opacity:1;" d="M 70.425781 372.496094 L 132.511719 372.496094 C 140.445312 372.496094 148.054688 369.34375 153.664062 363.730469 C 159.277344 358.121094 162.425781 350.511719 162.425781 342.578125 C 162.425781 317.679688 172.316406 293.804688 189.921875 276.203125 C 207.527344 258.597656 231.402344 248.707031 256.296875 248.707031 L 297.824219 248.707031 C 305.761719 248.710938 313.371094 245.558594 318.984375 239.949219 C 324.597656 234.335938 327.75 226.726562 327.75 218.789062 L 327.75 206.113281 C 327.75 198.179688 330.902344 190.570312 336.511719 184.960938 C 342.125 179.347656 349.734375 176.199219 357.667969 176.199219 C 365.605469 176.195312 373.21875 173.039062 378.828125 167.421875 C 384.4375 161.804688 387.585938 154.1875 387.578125 146.25 L 387.578125 133.988281 C 387.574219 126.050781 390.726562 118.441406 396.339844 112.832031 C 401.949219 107.21875 409.558594 104.066406 417.496094 104.070312 L 680.046875 104.070312 C 689.84375 104.070312 699.238281 107.960938 706.167969 114.886719 C 713.09375 121.8125 716.992188 131.203125 717 141 C 717 150.804688 713.105469 160.207031 706.171875 167.140625 C 699.238281 174.074219 689.835938 177.96875 680.03125 177.96875 L 655.417969 177.96875 C 646.039062 177.964844 637.046875 181.691406 630.414062 188.320312 C 623.785156 194.953125 620.058594 203.945312 620.0625 213.324219 C 620.0625 222.699219 623.789062 231.691406 630.417969 238.320312 C 637.046875 244.953125 646.039062 248.675781 655.417969 248.675781 L 656.519531 248.675781 C 676.351562 248.675781 695.367188 256.554688 709.390625 270.574219 C 723.414062 284.597656 731.292969 303.613281 731.296875 323.445312 C 731.296875 343.277344 723.417969 362.296875 709.394531 376.320312 C 695.371094 390.34375 676.351562 398.21875 656.519531 398.21875 L 644.453125 398.21875 C 629.75 398.21875 615.652344 404.058594 605.253906 414.457031 C 594.859375 424.851562 589.019531 438.949219 589.019531 453.652344 C 589.019531 468.355469 594.859375 482.453125 605.253906 492.847656 C 615.652344 503.246094 629.75 509.085938 644.453125 509.085938 L 675.066406 509.085938 C 685.324219 509.085938 695.15625 513.160156 702.410156 520.414062 C 709.660156 527.664062 713.734375 537.5 713.738281 547.753906 C 713.738281 558.011719 709.664062 567.847656 702.410156 575.097656 C 695.160156 582.351562 685.324219 586.425781 675.066406 586.425781 L 115.859375 586.425781 C 107.925781 586.425781 100.316406 583.273438 94.707031 577.664062 C 89.09375 572.050781 85.941406 564.441406 85.941406 556.507812 L 85.941406 551.925781 C 85.933594 543.996094 82.777344 536.394531 77.167969 530.789062 C 71.558594 525.183594 63.953125 522.039062 56.023438 522.039062 C 46.128906 522.039062 36.632812 518.105469 29.636719 511.105469 C 22.636719 504.109375 18.703125 494.617188 18.703125 484.71875 L 18.703125 424.207031 C 18.714844 410.496094 24.167969 397.34375 33.863281 387.648438 C 43.5625 377.953125 56.710938 372.503906 70.425781 372.496094 Z M 70.425781 372.496094 " />
</g><g id="e-commerce_shopping_d3LDEJP-1"><path style=" stroke:none;fill-rule:nonzero;fill:rgb(82.352941%,83.921569%,98.039216%);fill-opacity:1;" d="M 92.011719 147.382812 L 685.433594 147.382812 C 692.5 147.382812 698.230469 154.449219 698.230469 160.179688 L 698.230469 488.746094 C 698.230469 495.8125 692.5 501.542969 685.433594 501.542969 L 92.011719 501.542969 C 84.945312 501.542969 79.214844 494.476562 79.214844 488.746094 L 79.214844 160.179688 C 79.214844 153.113281 84.945312 147.382812 92.011719 147.382812 Z M 92.011719 147.382812 " />
</g><g id="e-commerce_shopping_d3LDEJP-2"><path style=" stroke:none;fill-rule:nonzero;fill:rgb(73.72549%,74.901961%,96.470588%);fill-opacity:1;" d="M 92.011719 147.382812 L 685.425781 147.382812 C 688.824219 147.375 692.085938 148.71875 694.492188 151.121094 C 696.898438 153.519531 698.25 156.777344 698.25 160.175781 L 698.25 177.671875 L 79.214844 177.671875 L 79.214844 160.175781 C 79.214844 153.109375 84.945312 147.382812 92.011719 147.382812 Z M 92.011719 147.382812 " />
</g><g id="e-commerce_shopping_d3LDEJP-3"><path style=" stroke:none;fill-rule:nonzero;fill:rgb(100%,100%,100%);fill-opacity:1;" d="M 168.441406 162.53125 C 168.441406 166.566406 165.171875 169.835938 161.136719 169.835938 C 157.101562 169.835938 153.832031 166.566406 153.832031 162.53125 C 153.832031 158.5 157.101562 155.226562 161.136719 155.226562 C 165.171875 155.226562 168.441406 158.5 168.441406 162.53125 " />
</g><g id="e-commerce_shopping_d3LDEJP-4"><path style=" stroke:none;fill-rule:nonzero;fill:rgb(100%,100%,100%);fill-opacity:1;" d="M 141.171875 162.53125 C 141.171875 166.566406 137.902344 169.835938 133.867188 169.835938 C 129.832031 169.835938 126.5625 166.566406 126.5625 162.53125 C 126.5625 158.5 129.832031 155.226562 133.867188 155.226562 C 137.902344 155.226562 141.171875 158.5 141.171875 162.53125 " />
</g><g id="e-commerce_shopping_d3LDEJP-5"><path style=" stroke:none;fill-rule:nonzero;fill:rgb(100%,100%,100%);fill-opacity:1;" d="M 195.71875 162.53125 C 195.71875 166.566406 192.449219 169.835938 188.414062 169.835938 C 184.378906 169.835938 181.109375 166.566406 181.109375 162.53125 C 181.109375 158.5 184.378906 155.226562 188.414062 155.226562 C 192.449219 155.226562 195.71875 158.5 195.71875 162.53125 " />
</g><g id="e-commerce_shopping_d3LDEJP-6"><path style=" stroke:none;fill-rule:nonzero;fill:rgb(95.294118%,95.686275%,99.607843%);fill-opacity:1;" d="M 140.976562 195.644531 L 215.363281 195.644531 C 220.101562 195.644531 223.941406 200.382812 223.941406 204.222656 L 223.941406 305.824219 C 223.941406 310.5625 220.101562 314.402344 215.363281 314.402344 L 140.976562 314.402344 C 136.238281 314.402344 132.398438 309.664062 132.398438 305.824219 L 132.398438 204.222656 C 132.398438 199.484375 136.238281 195.644531 140.976562 195.644531 Z M 140.976562 195.644531 " />
</g><g id="e-commerce_shopping_d3LDEJP-7"><path style=" stroke:none;fill-rule:nonzero;fill:rgb(73.72549%,74.901961%,96.470588%);fill-opacity:1;" d="M 158.363281 328.199219 C 158.363281 332.683594 154.730469 336.316406 150.246094 336.316406 C 145.765625 336.316406 142.132812 332.683594 142.132812 328.199219 C 142.132812 323.71875 145.765625 320.085938 150.246094 320.085938 C 154.730469 320.085938 158.363281 323.71875 158.363281 328.199219 " />
</g><g id="e-commerce_shopping_d3LDEJP-8"><path style=" stroke:none;fill-rule:nonzero;fill:rgb(73.72549%,74.901961%,96.470588%);fill-opacity:1;" d="M 164.871094 322.492188 L 203.234375 322.492188 C 204.347656 322.492188 205.25 323.605469 205.25 324.507812 L 205.25 324.703125 C 205.25 325.816406 204.347656 326.71875 203.234375 326.71875 L 164.871094 326.71875 C 163.757812 326.71875 162.855469 325.605469 162.855469 324.703125 L 162.855469 324.507812 C 162.855469 323.394531 163.757812 322.492188 164.871094 322.492188 Z M 164.871094 322.492188 " />
</g><g id="e-commerce_shopping_d3LDEJP-9"><path style=" stroke:none;fill-rule:nonzero;fill:rgb(73.72549%,74.901961%,96.470588%);fill-opacity:1;" d="M 164.96875 329.683594 L 184.027344 329.683594 C 185.195312 329.683594 186.140625 330.851562 186.140625 331.796875 C 186.140625 332.964844 185.195312 333.910156 184.027344 333.910156 L 164.96875 333.910156 C 163.800781 333.910156 162.855469 332.742188 162.855469 331.796875 C 162.855469 330.628906 163.800781 329.683594 164.96875 329.683594 Z M 164.96875 329.683594 " />
</g><g id="e-commerce_shopping_d3LDEJP-10"><path style=" stroke:none;fill-rule:nonzero;fill:rgb(95.294118%,95.686275%,99.607843%);fill-opacity:1;" d="M 140.976562 350.65625 L 215.363281 350.65625 C 220.101562 350.65625 223.941406 355.394531 223.941406 359.234375 L 223.941406 460.835938 C 223.941406 465.574219 220.101562 469.414062 215.363281 469.414062 L 140.976562 469.414062 C 136.238281 469.414062 132.398438 464.675781 132.398438 460.835938 L 132.398438 359.234375 C 132.398438 354.496094 136.238281 350.65625 140.976562 350.65625 Z M 140.976562 350.65625 " />
</g><g id="e-commerce_shopping_d3LDEJP-11"><path style=" stroke:none;fill-rule:nonzero;fill:rgb(73.72549%,74.901961%,96.470588%);fill-opacity:1;" d="M 158.363281 483.21875 C 158.363281 487.699219 154.730469 491.332031 150.246094 491.332031 C 145.765625 491.332031 142.132812 487.699219 142.132812 483.21875 C 142.132812 478.734375 145.765625 475.101562 150.246094 475.101562 C 154.730469 475.101562 158.363281 478.734375 158.363281 483.21875 " />
</g><g id="e-commerce_shopping_d3LDEJP-12"><path style=" stroke:none;fill-rule:nonzero;fill:rgb(73.72549%,74.901961%,96.470588%);fill-opacity:1;" d="M 164.871094 477.503906 L 203.234375 477.503906 C 204.347656 477.503906 205.25 478.617188 205.25 479.519531 L 205.25 479.714844 C 205.25 480.828125 204.347656 481.730469 203.234375 481.730469 L 164.871094 481.730469 C 163.757812 481.730469 162.855469 480.617188 162.855469 479.714844 L 162.855469 479.519531 C 162.855469 478.40625 163.757812 477.503906 164.871094 477.503906 Z M 164.871094 477.503906 " />
</g><g id="e-commerce_shopping_d3LDEJP-13"><path style=" stroke:none;fill-rule:nonzero;fill:rgb(73.72549%,74.901961%,96.470588%);fill-opacity:1;" d="M 164.96875 484.703125 L 184.027344 484.703125 C 185.195312 484.703125 186.140625 485.871094 186.140625 486.816406 C 186.140625 487.984375 185.195312 488.929688 184.027344 488.929688 L 164.96875 488.929688 C 163.800781 488.929688 162.855469 487.761719 162.855469 486.816406 C 162.855469 485.648438 163.800781 484.703125 164.96875 484.703125 Z M 164.96875 484.703125 " />
</g><g id="e-commerce_shopping_d3LDEJP-14"><path style=" stroke:none;fill-rule:nonzero;fill:rgb(95.294118%,95.686275%,99.607843%);fill-opacity:1;" d="M 278.257812 195.644531 L 352.644531 195.644531 C 357.382812 195.644531 361.222656 200.382812 361.222656 204.222656 L 361.222656 305.824219 C 361.222656 310.5625 357.382812 314.402344 352.644531 314.402344 L 278.257812 314.402344 C 273.519531 314.402344 269.679688 309.664062 269.679688 305.824219 L 269.679688 204.222656 C 269.679688 199.484375 273.519531 195.644531 278.257812 195.644531 Z M 278.257812 195.644531 " />
</g><g id="e-commerce_shopping_d3LDEJP-15"><path style=" stroke:none;fill-rule:nonzero;fill:rgb(73.72549%,74.901961%,96.470588%);fill-opacity:1;" d="M 295.640625 328.199219 C 295.640625 332.683594 292.007812 336.316406 287.527344 336.316406 C 283.046875 336.316406 279.414062 332.683594 279.414062 328.199219 C 279.414062 323.71875 283.046875 320.085938 287.527344 320.085938 C 292.007812 320.085938 295.640625 323.71875 295.640625 328.199219 " />
</g><g id="e-commerce_shopping_d3LDEJP-16"><path style=" stroke:none;fill-rule:nonzero;fill:rgb(73.72549%,74.901961%,96.470588%);fill-opacity:1;" d="M 302.152344 322.492188 L 340.515625 322.492188 C 341.628906 322.492188 342.53125 323.605469 342.53125 324.507812 L 342.53125 324.703125 C 342.53125 325.816406 341.628906 326.71875 340.515625 326.71875 L 302.152344 326.71875 C 301.039062 326.71875 300.136719 325.605469 300.136719 324.703125 L 300.136719 324.507812 C 300.136719 323.394531 301.039062 322.492188 302.152344 322.492188 Z M 302.152344 322.492188 " />
</g><g id="e-commerce_shopping_d3LDEJP-17"><path style=" stroke:none;fill-rule:nonzero;fill:rgb(73.72549%,74.901961%,96.470588%);fill-opacity:1;" d="M 302.25 329.683594 L 321.308594 329.683594 C 322.476562 329.683594 323.421875 330.851562 323.421875 331.796875 C 323.421875 332.964844 322.476562 333.910156 321.308594 333.910156 L 302.25 333.910156 C 301.082031 333.910156 300.136719 332.742188 300.136719 331.796875 C 300.136719 330.628906 301.082031 329.683594 302.25 329.683594 Z M 302.25 329.683594 " />
</g><g id="e-commerce_shopping_d3LDEJP-18"><path style=" stroke:none;fill-rule:nonzero;fill:rgb(95.294118%,95.686275%,99.607843%);fill-opacity:1;" d="M 278.257812 350.65625 L 352.644531 350.65625 C 357.382812 350.65625 361.222656 355.394531 361.222656 359.234375 L 361.222656 460.835938 C 361.222656 465.574219 357.382812 469.414062 352.644531 469.414062 L 278.257812 469.414062 C 273.519531 469.414062 269.679688 464.675781 269.679688 460.835938 L 269.679688 359.234375 C 269.679688 354.496094 273.519531 350.65625 278.257812 350.65625 Z M 278.257812 350.65625 " />
</g><g id="e-commerce_shopping_d3LDEJP-19"><path style=" stroke:none;fill-rule:nonzero;fill:rgb(73.72549%,74.901961%,96.470588%);fill-opacity:1;" d="M 295.640625 483.21875 C 295.640625 487.699219 292.007812 491.332031 287.527344 491.332031 C 283.046875 491.332031 279.414062 487.699219 279.414062 483.21875 C 279.414062 478.734375 283.046875 475.101562 287.527344 475.101562 C 292.007812 475.101562 295.640625 478.734375 295.640625 483.21875 " />
</g><g id="e-commerce_shopping_d3LDEJP-20"><path style=" stroke:none;fill-rule:nonzero;fill:rgb(73.72549%,74.901961%,96.470588%);fill-opacity:1;" d="M 302.152344 477.503906 L 340.515625 477.503906 C 341.628906 477.503906 342.53125 478.617188 342.53125 479.519531 L 342.53125 479.714844 C 342.53125 480.828125 341.628906 481.730469 340.515625 481.730469 L 302.152344 481.730469 C 301.039062 481.730469 300.136719 480.617188 300.136719 479.714844 L 300.136719 479.519531 C 300.136719 478.40625 301.039062 477.503906 302.152344 477.503906 Z M 302.152344 477.503906 " />
</g><g id="e-commerce_shopping_d3LDEJP-21"><path style=" stroke:none;fill-rule:nonzero;fill:rgb(73.72549%,74.901961%,96.470588%);fill-opacity:1;" d="M 302.25 484.703125 L 321.308594 484.703125 C 322.476562 484.703125 323.421875 485.871094 323.421875 486.816406 C 323.421875 487.984375 322.476562 488.929688 321.308594 488.929688 L 302.25 488.929688 C 301.082031 488.929688 300.136719 487.761719 300.136719 486.816406 C 300.136719 485.648438 301.082031 484.703125 302.25 484.703125 Z M 302.25 484.703125 " />
</g><g id="e-commerce_shopping_d3LDEJP-22"><path style=" stroke:none;fill-rule:nonzero;fill:rgb(95.294118%,95.686275%,99.607843%);fill-opacity:1;" d="M 415.539062 195.644531 L 489.925781 195.644531 C 494.664062 195.644531 498.503906 200.382812 498.503906 204.222656 L 498.503906 305.824219 C 498.503906 310.5625 494.664062 314.402344 489.925781 314.402344 L 415.539062 314.402344 C 410.800781 314.402344 406.960938 309.664062 406.960938 305.824219 L 406.960938 204.222656 C 406.960938 199.484375 410.800781 195.644531 415.539062 195.644531 Z M 415.539062 195.644531 " />
</g><g id="e-commerce_shopping_d3LDEJP-23"><path style=" stroke:none;fill-rule:nonzero;fill:rgb(73.72549%,74.901961%,96.470588%);fill-opacity:1;" d="M 432.921875 328.199219 C 432.921875 332.683594 429.289062 336.316406 424.808594 336.316406 C 420.324219 336.316406 416.691406 332.683594 416.691406 328.199219 C 416.691406 323.71875 420.324219 320.085938 424.808594 320.085938 C 429.289062 320.085938 432.921875 323.71875 432.921875 328.199219 " />
</g><g id="e-commerce_shopping_d3LDEJP-24"><path style=" stroke:none;fill-rule:nonzero;fill:rgb(73.72549%,74.901961%,96.470588%);fill-opacity:1;" d="M 439.433594 322.492188 L 477.796875 322.492188 C 478.910156 322.492188 479.8125 323.605469 479.8125 324.507812 L 479.8125 324.703125 C 479.8125 325.816406 478.910156 326.71875 477.796875 326.71875 L 439.433594 326.71875 C 438.320312 326.71875 437.417969 325.605469 437.417969 324.703125 L 437.417969 324.507812 C 437.417969 323.394531 438.320312 322.492188 439.433594 322.492188 Z M 439.433594 322.492188 " />
</g><g id="e-commerce_shopping_d3LDEJP-25"><path style=" stroke:none;fill-rule:nonzero;fill:rgb(73.72549%,74.901961%,96.470588%);fill-opacity:1;" d="M 439.53125 329.683594 L 458.589844 329.683594 C 459.757812 329.683594 460.703125 330.851562 460.703125 331.796875 C 460.703125 332.964844 459.757812 333.910156 458.589844 333.910156 L 439.53125 333.910156 C 438.363281 333.910156 437.417969 332.742188 437.417969 331.796875 C 437.417969 330.628906 438.363281 329.683594 439.53125 329.683594 Z M 439.53125 329.683594 " />
</g><g id="e-commerce_shopping_d3LDEJP-26"><path style=" stroke:none;fill-rule:nonzero;fill:rgb(95.294118%,95.686275%,99.607843%);fill-opacity:1;" d="M 415.539062 350.65625 L 489.925781 350.65625 C 494.664062 350.65625 498.503906 355.394531 498.503906 359.234375 L 498.503906 460.835938 C 498.503906 465.574219 494.664062 469.414062 489.925781 469.414062 L 415.539062 469.414062 C 410.800781 469.414062 406.960938 464.675781 406.960938 460.835938 L 406.960938 359.234375 C 406.960938 354.496094 410.800781 350.65625 415.539062 350.65625 Z M 415.539062 350.65625 " />
</g><g id="e-commerce_shopping_d3LDEJP-27"><path style=" stroke:none;fill-rule:nonzero;fill:rgb(73.72549%,74.901961%,96.470588%);fill-opacity:1;" d="M 432.921875 483.21875 C 432.921875 487.699219 429.289062 491.332031 424.808594 491.332031 C 420.324219 491.332031 416.691406 487.699219 416.691406 483.21875 C 416.691406 478.734375 420.324219 475.101562 424.808594 475.101562 C 429.289062 475.101562 432.921875 478.734375 432.921875 483.21875 " />
</g><g id="e-commerce_shopping_d3LDEJP-28"><path style=" stroke:none;fill-rule:nonzero;fill:rgb(73.72549%,74.901961%,96.470588%);fill-opacity:1;" d="M 439.433594 477.503906 L 477.796875 477.503906 C 478.910156 477.503906 479.8125 478.617188 479.8125 479.519531 L 479.8125 479.714844 C 479.8125 480.828125 478.910156 481.730469 477.796875 481.730469 L 439.433594 481.730469 C 438.320312 481.730469 437.417969 480.617188 437.417969 479.714844 L 437.417969 479.519531 C 437.417969 478.40625 438.320312 477.503906 439.433594 477.503906 Z M 439.433594 477.503906 " />
</g><g id="e-commerce_shopping_d3LDEJP-29"><path style=" stroke:none;fill-rule:nonzero;fill:rgb(73.72549%,74.901961%,96.470588%);fill-opacity:1;" d="M 439.53125 484.703125 L 458.589844 484.703125 C 459.757812 484.703125 460.703125 485.871094 460.703125 486.816406 C 460.703125 487.984375 459.757812 488.929688 458.589844 488.929688 L 439.53125 488.929688 C 438.363281 488.929688 437.417969 487.761719 437.417969 486.816406 C 437.417969 485.648438 438.363281 484.703125 439.53125 484.703125 Z M 439.53125 484.703125 " />
</g><g id="e-commerce_shopping_d3LDEJP-30"><path style=" stroke:none;fill-rule:nonzero;fill:rgb(95.294118%,95.686275%,99.607843%);fill-opacity:1;" d="M 552.824219 195.644531 L 627.210938 195.644531 C 631.949219 195.644531 635.789062 200.382812 635.789062 204.222656 L 635.789062 305.824219 C 635.789062 310.5625 631.949219 314.402344 627.210938 314.402344 L 552.824219 314.402344 C 548.085938 314.402344 544.246094 309.664062 544.246094 305.824219 L 544.246094 204.222656 C 544.246094 199.484375 548.085938 195.644531 552.824219 195.644531 Z M 552.824219 195.644531 " />
</g><g id="e-commerce_shopping_d3LDEJP-31"><path style=" stroke:none;fill-rule:nonzero;fill:rgb(73.72549%,74.901961%,96.470588%);fill-opacity:1;" d="M 570.203125 328.199219 C 570.203125 332.683594 566.570312 336.316406 562.085938 336.316406 C 557.605469 336.316406 553.972656 332.683594 553.972656 328.199219 C 553.972656 323.71875 557.605469 320.085938 562.085938 320.085938 C 566.570312 320.085938 570.203125 323.71875 570.203125 328.199219 " />
</g><g id="e-commerce_shopping_d3LDEJP-32"><path style=" stroke:none;fill-rule:nonzero;fill:rgb(73.72549%,74.901961%,96.470588%);fill-opacity:1;" d="M 576.710938 322.492188 L 615.074219 322.492188 C 616.1875 322.492188 617.089844 323.605469 617.089844 324.507812 L 617.089844 324.703125 C 617.089844 325.816406 616.1875 326.71875 615.074219 326.71875 L 576.710938 326.71875 C 575.597656 326.71875 574.695312 325.605469 574.695312 324.703125 L 574.695312 324.507812 C 574.695312 323.394531 575.597656 322.492188 576.710938 322.492188 Z M 576.710938 322.492188 " />
</g><g id="e-commerce_shopping_d3LDEJP-33"><path style=" stroke:none;fill-rule:nonzero;fill:rgb(73.72549%,74.901961%,96.470588%);fill-opacity:1;" d="M 576.808594 329.683594 L 595.867188 329.683594 C 597.035156 329.683594 597.980469 330.851562 597.980469 331.796875 C 597.980469 332.964844 597.035156 333.910156 595.867188 333.910156 L 576.808594 333.910156 C 575.640625 333.910156 574.695312 332.742188 574.695312 331.796875 C 574.695312 330.628906 575.640625 329.683594 576.808594 329.683594 Z M 576.808594 329.683594 " />
</g><g id="e-commerce_shopping_d3LDEJP-34"><path style=" stroke:none;fill-rule:nonzero;fill:rgb(95.294118%,95.686275%,99.607843%);fill-opacity:1;" d="M 552.824219 350.65625 L 627.210938 350.65625 C 631.949219 350.65625 635.789062 355.394531 635.789062 359.234375 L 635.789062 460.835938 C 635.789062 465.574219 631.949219 469.414062 627.210938 469.414062 L 552.824219 469.414062 C 548.085938 469.414062 544.246094 464.675781 544.246094 460.835938 L 544.246094 359.234375 C 544.246094 354.496094 548.085938 350.65625 552.824219 350.65625 Z M 552.824219 350.65625 " />
</g><g id="e-commerce_shopping_d3LDEJP-35"><path style=" stroke:none;fill-rule:nonzero;fill:rgb(73.72549%,74.901961%,96.470588%);fill-opacity:1;" d="M 570.203125 483.21875 C 570.203125 487.699219 566.570312 491.332031 562.085938 491.332031 C 557.605469 491.332031 553.972656 487.699219 553.972656 483.21875 C 553.972656 478.734375 557.605469 475.101562 562.085938 475.101562 C 566.570312 475.101562 570.203125 478.734375 570.203125 483.21875 " />
</g><g id="e-commerce_shopping_d3LDEJP-36"><path style=" stroke:none;fill-rule:nonzero;fill:rgb(73.72549%,74.901961%,96.470588%);fill-opacity:1;" d="M 576.710938 477.503906 L 615.074219 477.503906 C 616.1875 477.503906 617.089844 478.617188 617.089844 479.519531 L 617.089844 479.714844 C 617.089844 480.828125 616.1875 481.730469 615.074219 481.730469 L 576.710938 481.730469 C 575.597656 481.730469 574.695312 480.617188 574.695312 479.714844 L 574.695312 479.519531 C 574.695312 478.40625 575.597656 477.503906 576.710938 477.503906 Z M 576.710938 477.503906 " />
</g><g id="e-commerce_shopping_d3LDEJP-37"><path style=" stroke:none;fill-rule:nonzero;fill:rgb(73.72549%,74.901961%,96.470588%);fill-opacity:1;" d="M 576.808594 484.703125 L 595.867188 484.703125 C 597.035156 484.703125 597.980469 485.871094 597.980469 486.816406 C 597.980469 487.984375 597.035156 488.929688 595.867188 488.929688 L 576.808594 488.929688 C 575.640625 488.929688 574.695312 487.761719 574.695312 486.816406 C 574.695312 485.648438 575.640625 484.703125 576.808594 484.703125 Z M 576.808594 484.703125 " />
</g><g id="e-commerce_shopping_d3LDEJP-38"><path style=" stroke:none;fill-rule:nonzero;fill:rgb(73.72549%,74.901961%,96.470588%);fill-opacity:1;" d="M 210.058594 457.5 L 189.75 460.371094 C 189.054688 460.476562 188.34375 460.296875 187.777344 459.875 C 187.214844 459.453125 186.84375 458.820312 186.75 458.121094 L 178.183594 397.289062 L 169.609375 458.121094 L 169.613281 458.121094 C 169.519531 458.820312 169.148438 459.453125 168.582031 459.875 C 168.019531 460.296875 167.308594 460.476562 166.613281 460.371094 L 146.289062 457.5 C 144.867188 457.300781 143.863281 456 144.039062 454.574219 L 154.785156 367.917969 L 154.785156 367.921875 C 154.949219 366.636719 156.039062 365.671875 157.335938 365.671875 L 198.824219 365.671875 C 200.15625 365.664062 201.269531 366.683594 201.382812 368.011719 C 202.546875 381.675781 210.523438 441.371094 212.296875 454.5625 L 212.296875 454.558594 C 212.484375 455.988281 211.488281 457.300781 210.058594 457.5 Z M 210.058594 457.5 " />
</g><g id="e-commerce_shopping_d3LDEJP-39"><path style=" stroke:none;fill-rule:nonzero;fill:rgb(73.72549%,74.901961%,96.470588%);fill-opacity:1;" d="M 159 252.277344 L 159 281.460938 C 158.898438 286.769531 160.933594 291.898438 164.652344 295.6875 C 168.371094 299.480469 173.457031 301.613281 178.765625 301.613281 C 184.078125 301.613281 189.164062 299.480469 192.882812 295.6875 C 196.597656 291.898438 198.636719 286.769531 198.53125 281.460938 L 198.53125 252.277344 Z M 159 252.277344 " />
</g><g id="e-commerce_shopping_d3LDEJP-40"><path style=" stroke:none;fill-rule:nonzero;fill:rgb(73.72549%,74.901961%,96.470588%);fill-opacity:1;" d="M 148.273438 247.253906 L 148.273438 248.332031 C 148.273438 252.15625 149.792969 255.824219 152.5 258.53125 C 155.203125 261.234375 158.871094 262.753906 162.699219 262.753906 L 193.652344 262.753906 L 193.648438 262.753906 C 197.476562 262.753906 201.144531 261.234375 203.847656 258.53125 C 206.554688 255.824219 208.074219 252.15625 208.074219 248.332031 L 208.074219 247.253906 C 208.089844 238.621094 204.355469 230.410156 197.835938 224.753906 C 197.003906 224.023438 196.132812 223.339844 195.226562 222.710938 C 194.753906 222.382812 194.273438 222.066406 193.777344 221.757812 L 193.777344 221.761719 C 192.410156 220.914062 190.972656 220.183594 189.480469 219.578125 C 182.429688 216.710938 174.550781 216.628906 167.445312 219.351562 C 165.75 220.003906 164.117188 220.808594 162.570312 221.761719 C 162.351562 221.886719 162.132812 222.023438 161.917969 222.167969 L 161.917969 222.164062 C 160.722656 222.941406 159.585938 223.800781 158.511719 224.738281 C 158 225.179688 157.507812 225.644531 157.011719 226.117188 C 151.398438 231.722656 148.246094 239.328125 148.253906 247.261719 Z M 148.273438 247.253906 " />
</g><g id="e-commerce_shopping_d3LDEJP-41"><path style=" stroke:none;fill-rule:nonzero;fill:rgb(73.72549%,74.901961%,96.470588%);fill-opacity:1;" d="M 195.757812 208.816406 C 197.273438 208.816406 198.503906 210.332031 198.503906 211.5625 L 198.503906 228.460938 C 198.503906 229.976562 197.273438 231.207031 195.757812 231.207031 C 194.242188 231.207031 193.011719 229.691406 193.011719 228.460938 L 193.011719 211.5625 C 193.011719 210.046875 194.242188 208.816406 195.757812 208.816406 Z M 195.757812 208.816406 " />
</g><g id="e-commerce_shopping_d3LDEJP-42"><path style=" stroke:none;fill-rule:nonzero;fill:rgb(73.72549%,74.901961%,96.470588%);fill-opacity:1;" d="M 158.96875 208.816406 C 160.484375 208.816406 161.714844 210.332031 161.714844 211.5625 L 161.714844 228.460938 C 161.714844 229.976562 160.484375 231.207031 158.96875 231.207031 C 157.453125 231.207031 156.222656 229.691406 156.222656 228.460938 L 156.222656 211.5625 C 156.222656 210.046875 157.453125 208.816406 158.96875 208.816406 Z M 158.96875 208.816406 " />
</g><g id="e-commerce_shopping_d3LDEJP-43"><path style=" stroke:none;fill-rule:nonzero;fill:rgb(73.72549%,74.901961%,96.470588%);fill-opacity:1;" d="M 609.097656 238.996094 L 609.097656 303.496094 C 609.097656 304.121094 608.847656 304.722656 608.40625 305.164062 C 607.960938 305.609375 607.363281 305.859375 606.734375 305.859375 L 578.585938 305.859375 C 577.285156 305.851562 576.234375 304.796875 576.234375 303.496094 L 576.234375 238.996094 Z M 609.097656 238.996094 " />
</g><g id="e-commerce_shopping_d3LDEJP-44"><path style=" stroke:none;fill-rule:nonzero;fill:rgb(73.72549%,74.901961%,96.470588%);fill-opacity:1;" d="M 613.035156 235.5 L 613.035156 236.25 C 613.035156 238.910156 611.980469 241.460938 610.097656 243.34375 C 608.214844 245.222656 605.660156 246.277344 603 246.269531 L 581.527344 246.269531 C 578.867188 246.273438 576.316406 245.21875 574.433594 243.339844 C 572.554688 241.460938 571.496094 238.910156 571.5 236.25 L 571.5 235.5 C 571.5 231.25 572.808594 227.105469 575.25 223.628906 C 575.945312 222.621094 576.734375 221.683594 577.605469 220.824219 C 577.929688 220.488281 578.273438 220.171875 578.625 219.855469 C 579.371094 219.207031 580.164062 218.609375 580.996094 218.078125 C 581.144531 217.972656 581.296875 217.882812 581.445312 217.792969 C 581.671875 217.652344 581.910156 217.527344 582.148438 217.410156 C 583.796875 216.535156 585.839844 217.121094 586.769531 218.738281 C 587.933594 220.84375 590.128906 222.167969 592.535156 222.21875 C 594.9375 222.269531 597.1875 221.039062 598.441406 218.984375 C 598.894531 218.207031 599.640625 217.640625 600.515625 217.414062 C 601.386719 217.1875 602.3125 217.320312 603.089844 217.777344 C 603.425781 217.988281 603.765625 218.203125 604.085938 218.4375 C 604.71875 218.875 605.324219 219.347656 605.902344 219.855469 C 610.441406 223.785156 613.046875 229.496094 613.035156 235.5 Z M 613.035156 235.5 " />
</g><g id="e-commerce_shopping_d3LDEJP-45"><path style=" stroke:none;fill-rule:nonzero;fill:rgb(73.72549%,74.901961%,96.470588%);fill-opacity:1;" d="M 600.863281 208.816406 C 601.914062 208.816406 602.769531 209.867188 602.769531 210.722656 L 602.769531 222.453125 C 602.769531 223.503906 601.917969 224.359375 600.863281 224.359375 C 599.8125 224.359375 598.957031 223.308594 598.957031 222.453125 L 598.957031 210.722656 C 598.957031 209.671875 599.808594 208.816406 600.863281 208.816406 Z M 600.863281 208.816406 " />
</g><g id="e-commerce_shopping_d3LDEJP-46"><path style=" stroke:none;fill-rule:nonzero;fill:rgb(73.72549%,74.901961%,96.470588%);fill-opacity:1;" d="M 584.691406 208.816406 C 585.742188 208.816406 586.597656 209.867188 586.597656 210.722656 L 586.597656 222.453125 C 586.597656 223.503906 585.746094 224.359375 584.691406 224.359375 C 583.640625 224.359375 582.785156 223.308594 582.785156 222.453125 L 582.785156 210.722656 C 582.785156 209.671875 583.636719 208.816406 584.691406 208.816406 Z M 584.691406 208.816406 " />
</g><g id="e-commerce_shopping_d3LDEJP-47"><path style=" stroke:none;fill-rule:nonzero;fill:rgb(73.72549%,74.901961%,96.470588%);fill-opacity:1;" d="M 351.234375 417.058594 L 351.234375 428.59375 C 351.234375 429.664062 350.8125 430.6875 350.054688 431.445312 C 349.300781 432.199219 348.273438 432.625 347.203125 432.621094 L 283.699219 432.621094 L 283.703125 432.621094 C 282.632812 432.625 281.609375 432.199219 280.851562 431.445312 C 280.097656 430.6875 279.671875 429.664062 279.675781 428.59375 L 279.675781 417.058594 C 279.671875 412.863281 281.335938 408.835938 284.304688 405.871094 C 287.277344 402.90625 291.304688 401.242188 295.5 401.25 L 295.980469 401.25 C 299.847656 401.21875 303.453125 403.207031 305.484375 406.5 C 307.320312 409.570312 310.640625 411.453125 314.21875 411.453125 C 317.800781 411.453125 321.117188 409.570312 322.957031 406.5 C 324.988281 403.207031 328.589844 401.214844 332.460938 401.25 L 335.460938 401.25 C 339.648438 401.257812 343.660156 402.925781 346.621094 405.890625 C 349.578125 408.855469 351.238281 412.871094 351.234375 417.058594 Z M 351.234375 417.058594 " />
</g><g id="e-commerce_shopping_d3LDEJP-48"><path style=" stroke:none;fill-rule:nonzero;fill:rgb(73.72549%,74.901961%,96.470588%);fill-opacity:1;" d="M 334.183594 378.796875 C 336.238281 378.796875 337.902344 380.851562 337.902344 382.515625 L 337.902344 406.425781 C 337.902344 408.480469 336.238281 410.144531 334.183594 410.144531 C 332.128906 410.144531 330.464844 408.089844 330.464844 406.425781 L 330.464844 382.515625 C 330.464844 380.460938 332.128906 378.796875 334.183594 378.796875 Z M 334.183594 378.796875 " />
</g><g id="e-commerce_shopping_d3LDEJP-49"><path style=" stroke:none;fill-rule:nonzero;fill:rgb(73.72549%,74.901961%,96.470588%);fill-opacity:1;" d="M 296.453125 378.796875 C 298.507812 378.796875 300.171875 380.851562 300.171875 382.515625 L 300.171875 406.425781 C 300.171875 408.480469 298.507812 410.144531 296.453125 410.144531 C 294.398438 410.144531 292.734375 408.089844 292.734375 406.425781 L 292.734375 382.515625 C 292.734375 380.460938 294.398438 378.796875 296.453125 378.796875 Z M 296.453125 378.796875 " />
</g><g id="e-commerce_shopping_d3LDEJP-50"><path style=" stroke:none;fill-rule:nonzero;fill:rgb(73.72549%,74.901961%,96.470588%);fill-opacity:1;" d="M 490.148438 246.414062 L 490.148438 293.730469 C 490.148438 296.886719 487.589844 299.445312 484.433594 299.445312 L 424.304688 299.445312 C 421.148438 299.445312 418.589844 296.886719 418.589844 293.730469 L 418.589844 246.414062 C 418.589844 242.222656 420.253906 238.207031 423.214844 235.242188 C 426.179688 232.28125 430.195312 230.617188 434.386719 230.617188 L 434.867188 230.617188 L 434.863281 230.617188 C 438.734375 230.585938 442.335938 232.578125 444.367188 235.867188 C 446.207031 238.9375 449.523438 240.820312 453.105469 240.820312 C 456.683594 240.820312 460.003906 238.9375 461.84375 235.867188 C 463.871094 232.574219 467.476562 230.582031 471.34375 230.617188 L 474.34375 230.617188 C 478.535156 230.617188 482.554688 232.277344 485.519531 235.242188 C 488.480469 238.203125 490.148438 242.222656 490.148438 246.414062 Z M 490.148438 246.414062 " />
</g><g id="e-commerce_shopping_d3LDEJP-51"><path style=" stroke:none;fill-rule:nonzero;fill:rgb(73.72549%,74.901961%,96.470588%);fill-opacity:1;" d="M 473.101562 208.148438 C 475.15625 208.148438 476.820312 210.203125 476.820312 211.867188 L 476.820312 235.777344 C 476.820312 237.832031 475.15625 239.496094 473.101562 239.496094 C 471.046875 239.496094 469.382812 237.441406 469.382812 235.777344 L 469.382812 211.867188 C 469.382812 209.8125 471.046875 208.148438 473.101562 208.148438 Z M 473.101562 208.148438 " />
</g><g id="e-commerce_shopping_d3LDEJP-52"><path style=" stroke:none;fill-rule:nonzero;fill:rgb(73.72549%,74.901961%,96.470588%);fill-opacity:1;" d="M 435.367188 208.148438 C 437.421875 208.148438 439.085938 210.203125 439.085938 211.867188 L 439.085938 235.777344 C 439.085938 237.832031 437.421875 239.496094 435.367188 239.496094 C 433.3125 239.496094 431.648438 237.441406 431.648438 235.777344 L 431.648438 211.867188 C 431.648438 209.8125 433.3125 208.148438 435.367188 208.148438 Z M 435.367188 208.148438 " />
</g><g id="e-commerce_shopping_d3LDEJP-53"><path style=" stroke:none;fill-rule:nonzero;fill:rgb(73.72549%,74.901961%,96.470588%);fill-opacity:1;" d="M 428.054688 375 L 477.417969 375 L 477.417969 448.328125 L 477.421875 448.328125 C 477.421875 450.304688 475.816406 451.90625 473.84375 451.90625 L 431.625 451.90625 C 429.648438 451.90625 428.046875 450.304688 428.046875 448.328125 L 428.046875 375 Z M 428.054688 375 " />
</g><g id="e-commerce_shopping_d3LDEJP-54"><path style=" stroke:none;fill-rule:nonzero;fill:rgb(73.72549%,74.901961%,96.470588%);fill-opacity:1;" d="M 427.050781 375 L 478.410156 375 C 480.167969 375 481.589844 376.753906 481.589844 378.175781 C 481.589844 379.929688 480.167969 381.351562 478.410156 381.351562 L 427.050781 381.351562 C 425.292969 381.351562 423.871094 379.597656 423.871094 378.175781 C 423.871094 376.421875 425.292969 375 427.050781 375 Z M 427.050781 375 " />
</g><g id="e-commerce_shopping_d3LDEJP-55"><path style=" stroke:none;fill-rule:nonzero;fill:rgb(73.72549%,74.901961%,96.470588%);fill-opacity:1;" d="M 349.5 279.613281 L 281.4375 279.613281 C 280.074219 279.605469 278.789062 278.976562 277.941406 277.90625 C 277.097656 276.835938 276.78125 275.4375 277.085938 274.109375 L 290.773438 216.570312 L 340.136719 216.570312 L 353.816406 274.109375 L 353.820312 274.109375 C 354.125 275.433594 353.8125 276.824219 352.972656 277.894531 C 352.136719 278.960938 350.859375 279.59375 349.5 279.613281 Z M 349.5 279.613281 " />
</g><g id="e-commerce_shopping_d3LDEJP-56"><path style=" stroke:none;fill-rule:nonzero;fill:rgb(73.72549%,74.901961%,96.470588%);fill-opacity:1;" d="M 289.769531 216.570312 L 341.128906 216.570312 C 342.886719 216.570312 344.308594 218.324219 344.308594 219.746094 C 344.308594 221.5 342.886719 222.921875 341.128906 222.921875 L 289.769531 222.921875 C 288.011719 222.921875 286.589844 221.167969 286.589844 219.746094 C 286.589844 217.992188 288.011719 216.570312 289.769531 216.570312 Z M 289.769531 216.570312 " />
</g><g id="e-commerce_shopping_d3LDEJP-57"><path style=" stroke:none;fill-rule:nonzero;fill:rgb(73.72549%,74.901961%,96.470588%);fill-opacity:1;" d="M 627.136719 457.140625 L 601.636719 460.742188 L 592.703125 397.308594 L 583.761719 460.742188 L 558.261719 457.140625 L 569.332031 367.890625 C 569.492188 366.605469 570.582031 365.640625 571.875 365.640625 L 613.363281 365.640625 C 614.695312 365.640625 615.800781 366.65625 615.914062 367.980469 C 617.179688 383.402344 627.132812 457.140625 627.132812 457.140625 Z M 627.136719 457.140625 " />
</g><g id="e-commerce_shopping_d3LDEJP-58"><path style=" stroke:none;fill-rule:nonzero;fill:rgb(73.72549%,74.901961%,96.470588%);fill-opacity:1;" d="M 599.222656 456.355469 L 627.453125 451.46875 C 628.433594 451.300781 629.394531 452.140625 629.535156 452.933594 L 629.992188 455.570312 C 630.160156 456.550781 629.503906 457.480469 628.527344 457.652344 L 600.296875 462.539062 C 599.316406 462.707031 598.355469 461.867188 598.214844 461.074219 L 597.757812 458.4375 C 597.589844 457.457031 598.246094 456.527344 599.222656 456.355469 Z M 599.222656 456.355469 " />
</g><g id="e-commerce_shopping_d3LDEJP-59"><path style=" stroke:none;fill-rule:nonzero;fill:rgb(73.72549%,74.901961%,96.470588%);fill-opacity:1;" d="M 584.863281 462.144531 L 556.511719 458.015625 C 555.527344 457.871094 554.875 456.773438 554.988281 455.976562 L 555.375 453.328125 C 555.519531 452.34375 556.433594 451.664062 557.414062 451.804688 L 585.765625 455.933594 C 586.75 456.078125 587.402344 457.175781 587.289062 457.972656 L 586.902344 460.621094 C 586.757812 461.605469 585.84375 462.285156 584.863281 462.144531 Z M 584.863281 462.144531 " />
</g><g id="e-commerce_shopping_d3LDEJP-60"><path style=" stroke:none;fill-rule:nonzero;fill:rgb(97.647059%,62.745098%,70.588235%);fill-opacity:1;" d="M 539.339844 437.84375 C 539.339844 441.527344 536.351562 444.515625 532.664062 444.515625 C 528.976562 444.515625 525.988281 441.527344 525.988281 437.84375 C 525.988281 434.15625 528.976562 431.167969 532.664062 431.167969 C 536.351562 431.167969 539.339844 434.15625 539.339844 437.84375 " />
</g><g id="e-commerce_shopping_d3LDEJP-61"><path style=" stroke:none;fill-rule:nonzero;fill:rgb(31.372549%,31.372549%,84.705882%);fill-opacity:1;" d="M 456.015625 604.328125 L 463.082031 617.851562 L 473.867188 617.851562 L 473.867188 604.328125 Z M 456.015625 604.328125 " />
</g><g id="e-commerce_shopping_d3LDEJP-62"><path style=" stroke:none;fill-rule:nonzero;fill:rgb(31.372549%,31.372549%,84.705882%);fill-opacity:1;" d="M 343.972656 604.328125 L 351.039062 617.851562 L 361.816406 617.851562 L 361.816406 604.328125 Z M 343.972656 604.328125 " />
</g><g id="e-commerce_shopping_d3LDEJP-63"><path style=" stroke:none;fill-rule:nonzero;fill:rgb(40%,37.254902%,94.901961%);fill-opacity:1;" d="M 479.773438 561.699219 L 345.15625 550.179688 L 345.15625 550.175781 C 343.132812 550.003906 341.445312 548.554688 340.964844 546.578125 L 322.5 470.957031 L 322.5 470.953125 C 322.15625 469.542969 322.476562 468.050781 323.375 466.90625 C 324.269531 465.765625 325.644531 465.097656 327.097656 465.097656 L 493.597656 465.097656 Z M 347.171875 543.570312 L 473.996094 554.421875 L 485.792969 471.847656 L 329.664062 471.847656 Z M 347.171875 543.570312 " />
</g><g id="e-commerce_shopping_d3LDEJP-64"><path style=" stroke:none;fill-rule:nonzero;fill:rgb(40%,37.254902%,94.901961%);fill-opacity:1;" d="M 493.574219 607.703125 L 312.375 607.703125 C 311.480469 607.703125 310.621094 607.347656 309.984375 606.714844 C 309.351562 606.082031 308.996094 605.222656 309 604.328125 C 309 602.464844 310.511719 600.953125 312.375 600.953125 L 489.609375 600.953125 C 491.34375 600.953125 493.007812 600.261719 494.238281 599.035156 C 495.464844 597.808594 496.15625 596.140625 496.15625 594.40625 L 496.15625 583.449219 C 496.152344 578.238281 493.5625 573.367188 489.238281 570.457031 L 474.988281 560.855469 L 478.738281 555.261719 L 495.988281 566.863281 C 500.3125 569.777344 502.902344 574.644531 502.90625 579.855469 L 502.90625 598.378906 C 502.90625 600.855469 501.921875 603.226562 500.171875 604.976562 C 498.421875 606.722656 496.046875 607.703125 493.574219 607.703125 Z M 493.574219 607.703125 " />
</g><g id="e-commerce_shopping_d3LDEJP-65"><path style=" stroke:none;fill-rule:nonzero;fill:rgb(40%,37.254902%,94.901961%);fill-opacity:1;" d="M 492.246094 473.8125 L 490.25 473.429688 L 490.253906 473.429688 C 489.019531 473.195312 487.929688 472.480469 487.226562 471.441406 C 486.523438 470.402344 486.261719 469.125 486.503906 467.894531 L 488.117188 459.585938 L 488.113281 459.585938 C 488.875 455.640625 491.542969 452.332031 495.234375 450.75 L 531.152344 435.253906 L 531.148438 435.253906 C 532.859375 434.519531 534.84375 435.308594 535.582031 437.015625 C 535.941406 437.839844 535.957031 438.769531 535.625 439.605469 C 535.292969 440.4375 534.644531 441.105469 533.820312 441.457031 L 500.421875 455.863281 C 497.21875 457.253906 494.90625 460.136719 494.25 463.566406 Z M 492.246094 473.8125 " />
</g><g id="e-commerce_shopping_d3LDEJP-66"><path style=" stroke:none;fill-rule:nonzero;fill:rgb(40%,37.254902%,94.901961%);fill-opacity:1;" d="M 477.246094 623.101562 C 477.246094 628.417969 472.9375 632.730469 467.617188 632.730469 C 462.300781 632.730469 457.988281 628.417969 457.988281 623.101562 C 457.988281 617.78125 462.300781 613.46875 467.617188 613.46875 C 472.9375 613.46875 477.246094 617.78125 477.246094 623.101562 " />
</g><g id="e-commerce_shopping_d3LDEJP-67"><path style=" stroke:none;fill-rule:nonzero;fill:rgb(31.372549%,31.372549%,84.705882%);fill-opacity:1;" d="M 473.796875 623.101562 C 473.796875 626.511719 471.03125 629.28125 467.617188 629.28125 C 464.203125 629.28125 461.4375 626.511719 461.4375 623.101562 C 461.4375 619.6875 464.203125 616.921875 467.617188 616.921875 C 471.03125 616.921875 473.796875 619.6875 473.796875 623.101562 " />
</g><g id="e-commerce_shopping_d3LDEJP-68"><path style=" stroke:none;fill-rule:nonzero;fill:rgb(40%,37.254902%,94.901961%);fill-opacity:1;" d="M 365.199219 623.101562 C 365.199219 628.417969 360.886719 632.730469 355.566406 632.730469 C 350.25 632.730469 345.9375 628.417969 345.9375 623.101562 C 345.9375 617.78125 350.25 613.46875 355.566406 613.46875 C 360.886719 613.46875 365.199219 617.78125 365.199219 623.101562 " />
</g><g id="e-commerce_shopping_d3LDEJP-69"><path style=" stroke:none;fill-rule:nonzero;fill:rgb(40%,37.254902%,94.901961%);fill-opacity:1;" d="M 398.03125 468.472656 L 404.78125 468.472656 L 404.78125 551.714844 L 398.03125 551.714844 Z M 398.03125 468.472656 " />
</g><g id="e-commerce_shopping_d3LDEJP-70"><path style=" stroke:none;fill-rule:nonzero;fill:rgb(40%,37.254902%,94.901961%);fill-opacity:1;" d="M 371.917969 468.472656 L 378.667969 468.472656 L 378.667969 549.367188 L 371.917969 549.367188 Z M 371.917969 468.472656 " />
</g><g id="e-commerce_shopping_d3LDEJP-71"><path style=" stroke:none;fill-rule:nonzero;fill:rgb(40%,37.254902%,94.901961%);fill-opacity:1;" d="M 347.835938 468.472656 L 354.585938 468.472656 L 354.585938 546.90625 L 347.835938 546.90625 Z M 347.835938 468.472656 " />
</g><g id="e-commerce_shopping_d3LDEJP-72"><path style=" stroke:none;fill-rule:nonzero;fill:rgb(40%,37.254902%,94.901961%);fill-opacity:1;" d="M 428.714844 468.472656 L 435.464844 468.472656 L 435.464844 554.226562 L 428.714844 554.226562 Z M 428.714844 468.472656 " />
</g><g id="e-commerce_shopping_d3LDEJP-73"><path style=" stroke:none;fill-rule:nonzero;fill:rgb(40%,37.254902%,94.901961%);fill-opacity:1;" d="M 456.9375 468.472656 L 463.6875 468.472656 L 463.6875 556.644531 L 456.9375 556.644531 Z M 456.9375 468.472656 " />
</g><g id="e-commerce_shopping_d3LDEJP-74"><path style=" stroke:none;fill-rule:nonzero;fill:rgb(40%,37.254902%,94.901961%);fill-opacity:1;" d="M 331.597656 489.21875 L 486.238281 489.21875 L 486.238281 495.96875 L 331.597656 495.96875 Z M 331.597656 489.21875 " />
</g><g id="e-commerce_shopping_d3LDEJP-75"><path style=" stroke:none;fill-rule:nonzero;fill:rgb(40%,37.254902%,94.901961%);fill-opacity:1;" d="M 339.839844 524.386719 L 481.207031 524.386719 L 481.207031 531.136719 L 339.839844 531.136719 Z M 339.839844 524.386719 " />
</g><g id="e-commerce_shopping_d3LDEJP-76"><path style=" stroke:none;fill-rule:nonzero;fill:rgb(31.372549%,31.372549%,84.705882%);fill-opacity:1;" d="M 361.746094 623.101562 C 361.746094 626.511719 358.980469 629.28125 355.566406 629.28125 C 352.15625 629.28125 349.386719 626.511719 349.386719 623.101562 C 349.386719 619.6875 352.15625 616.921875 355.566406 616.921875 C 358.980469 616.921875 361.746094 619.6875 361.746094 623.101562 " />
</g><g id="e-commerce_shopping_d3LDEJP-77"><path style=" stroke:none;fill-rule:nonzero;fill:rgb(38.431373%,12.941176%,22.352941%);fill-opacity:1;" d="M 620.445312 390.644531 C 620.445312 405.78125 608.175781 418.050781 593.039062 418.050781 C 577.90625 418.050781 565.636719 405.78125 565.636719 390.644531 C 565.636719 375.507812 577.90625 363.238281 593.039062 363.238281 C 608.175781 363.238281 620.445312 375.507812 620.445312 390.644531 " />
</g><g id="e-commerce_shopping_d3LDEJP-78"><path style=" stroke:none;fill-rule:nonzero;fill:rgb(38.431373%,12.941176%,22.352941%);fill-opacity:1;" d="M 590.070312 319.042969 C 594.210938 319.042969 598.179688 320.6875 601.105469 323.613281 C 604.03125 326.539062 605.675781 330.511719 605.675781 334.648438 L 605.675781 384.898438 C 605.675781 389.871094 603.703125 394.640625 600.1875 398.160156 C 596.667969 401.675781 591.898438 403.648438 586.925781 403.648438 C 581.953125 403.648438 577.1875 401.675781 573.667969 398.160156 C 570.152344 394.640625 568.175781 389.871094 568.175781 384.898438 L 568.175781 340.902344 L 568.175781 340.90625 C 568.175781 335.105469 570.480469 329.546875 574.582031 325.445312 C 578.679688 321.347656 584.242188 319.042969 590.039062 319.042969 Z M 590.070312 319.042969 " />
</g><g id="e-commerce_shopping_d3LDEJP-79"><path style=" stroke:none;fill-rule:nonzero;fill:rgb(97.647059%,62.745098%,70.588235%);fill-opacity:1;" d="M 635.558594 402 C 635.40625 405.734375 633.253906 409.09375 629.921875 410.789062 C 626.589844 412.480469 622.605469 412.242188 619.5 410.160156 L 610.800781 404.25 L 607.386719 402 L 591 390.863281 C 590.125 390.265625 589.34375 389.539062 588.683594 388.710938 C 585.910156 385.179688 585.738281 380.257812 588.261719 376.546875 C 589.429688 374.808594 591.105469 373.476562 593.0625 372.726562 C 596.214844 371.496094 599.773438 371.898438 602.574219 373.800781 L 619.988281 385.613281 L 621.144531 386.402344 L 631.015625 393.09375 L 631.011719 393.089844 C 633.960938 395.078125 635.679688 398.445312 635.558594 402 Z M 635.558594 402 " />
</g><g id="e-commerce_shopping_d3LDEJP-80"><path style=" stroke:none;fill-rule:nonzero;fill:rgb(100%,69.803922%,74.901961%);fill-opacity:1;" d="M 615.367188 404.113281 C 616.273438 407.546875 618.878906 410.273438 622.269531 411.332031 C 625.65625 412.390625 629.351562 411.628906 632.046875 409.320312 L 632.347656 409.050781 L 632.625 408.773438 C 632.667969 408.738281 632.703125 408.699219 632.738281 408.660156 L 632.917969 408.472656 C 633.058594 408.316406 633.210938 408.15625 633.339844 407.984375 C 633.46875 407.8125 633.527344 407.75 633.617188 407.632812 L 633.613281 407.632812 C 633.890625 407.25 634.140625 406.851562 634.363281 406.441406 C 634.421875 406.328125 634.484375 406.214844 634.535156 406.097656 C 634.585938 405.976562 634.65625 405.859375 634.714844 405.738281 C 634.835938 405.476562 634.941406 405.207031 635.039062 404.929688 L 645.351562 375.753906 L 646.507812 372.507812 C 646.636719 372.125 646.746094 371.757812 646.835938 371.351562 L 646.835938 371.347656 C 647.992188 366.25 645.148438 361.09375 640.222656 359.347656 C 639.230469 358.996094 638.191406 358.796875 637.140625 358.761719 C 632.644531 358.609375 628.566406 361.390625 627.066406 365.632812 L 615.613281 398.039062 C 614.914062 399.992188 614.828125 402.113281 615.367188 404.113281 Z M 615.367188 404.113281 " />
</g><g id="e-commerce_shopping_d3LDEJP-81"><path style=" stroke:none;fill-rule:nonzero;fill:rgb(100%,69.803922%,74.901961%);fill-opacity:1;" d="M 653.414062 361.167969 C 655.527344 366.808594 651.4375 373.554688 644.28125 376.234375 C 637.125 378.917969 629.613281 376.519531 627.5 370.878906 C 625.386719 365.238281 629.472656 358.492188 636.628906 355.8125 C 643.785156 353.128906 651.300781 355.527344 653.414062 361.167969 " />
</g><g id="e-commerce_shopping_d3LDEJP-82"><path style=" stroke:none;fill-rule:nonzero;fill:rgb(99.215686%,76.470588%,80.392157%);fill-opacity:1;" d="M 620.011719 385.613281 L 621.167969 386.402344 L 627.117188 369.578125 L 627.492188 368.503906 L 627.488281 368.503906 C 627.597656 368.1875 627.722656 367.878906 627.871094 367.574219 C 629.078125 363.890625 632.371094 360.507812 636.871094 358.761719 L 637.042969 358.703125 C 644.199219 356.019531 651.714844 358.417969 653.828125 364.058594 C 653.875 364.179688 653.917969 364.296875 653.957031 364.417969 L 653.953125 364.417969 C 653.972656 363.320312 653.785156 362.234375 653.398438 361.207031 C 651.285156 355.558594 643.777344 353.160156 636.621094 355.835938 C 631.992188 357.574219 628.648438 361.003906 627.433594 364.738281 C 627.296875 365.03125 627.179688 365.339844 627.066406 365.644531 Z M 620.011719 385.613281 " />
</g><g id="e-commerce_shopping_d3LDEJP-83"><path style=" stroke:none;fill-rule:nonzero;fill:rgb(97.647059%,62.745098%,70.588235%);fill-opacity:1;" d="M 630.683594 408.878906 C 630.789062 408.792969 630.886719 408.703125 630.984375 408.609375 C 631.082031 408.523438 631.179688 408.433594 631.265625 408.335938 L 631.378906 408.222656 L 631.558594 408.035156 C 631.699219 407.878906 631.84375 407.710938 631.980469 407.546875 C 632.117188 407.382812 632.167969 407.308594 632.257812 407.1875 L 632.257812 407.191406 C 632.535156 406.8125 632.785156 406.417969 633.007812 406.003906 C 633.074219 405.894531 633.136719 405.777344 633.1875 405.660156 C 633.25 405.542969 633.308594 405.421875 633.359375 405.300781 C 633.480469 405.039062 633.59375 404.761719 633.6875 404.484375 L 643.574219 376.5 L 643.972656 375.382812 C 644.613281 375.097656 645.234375 374.769531 645.832031 374.40625 C 651.128906 371.195312 653.847656 365.5625 652.042969 360.75 C 651 358.140625 648.875 356.113281 646.222656 355.191406 C 649.582031 356.070312 652.269531 358.191406 653.398438 361.191406 C 655.410156 366.546875 651.824219 372.890625 645.328125 375.816406 L 635.054688 404.910156 C 634.957031 405.1875 634.851562 405.457031 634.730469 405.71875 C 634.671875 405.847656 634.617188 405.964844 634.550781 406.085938 L 634.378906 406.429688 L 634.378906 406.433594 C 634.15625 406.84375 633.902344 407.238281 633.628906 407.617188 L 633.351562 407.976562 C 633.222656 408.140625 633.074219 408.300781 632.929688 408.457031 L 632.75 408.652344 L 632.636719 408.765625 L 632.359375 409.035156 L 632.058594 409.304688 L 632.0625 409.304688 C 629.261719 411.703125 625.390625 412.421875 621.914062 411.195312 C 621.785156 411.152344 621.65625 411.101562 621.53125 411.046875 C 624.753906 411.839844 628.160156 411.03125 630.683594 408.878906 Z M 630.683594 408.878906 " />
</g><g id="e-commerce_shopping_d3LDEJP-84"><path style=" stroke:none;fill-rule:nonzero;fill:rgb(92.54902%,25.490196%,52.54902%);fill-opacity:1;" d="M 640.964844 388.460938 L 619.960938 380.042969 C 618.945312 379.636719 618.53125 378.292969 618.859375 377.46875 C 619.265625 376.453125 620.417969 375.960938 621.433594 376.367188 L 642.4375 384.785156 C 643.453125 385.191406 643.867188 386.535156 643.539062 387.359375 C 643.132812 388.375 641.980469 388.867188 640.964844 388.460938 Z M 640.964844 388.460938 " />
</g><g id="e-commerce_shopping_d3LDEJP-85"><path style=" stroke:none;fill-rule:nonzero;fill:rgb(92.54902%,25.490196%,52.54902%);fill-opacity:1;" d="M 642.007812 383.09375 L 623.894531 375.832031 C 622.878906 375.425781 622.464844 374.082031 622.792969 373.257812 C 623.199219 372.242188 624.351562 371.75 625.367188 372.15625 L 643.480469 379.417969 C 644.496094 379.824219 644.910156 381.167969 644.582031 381.992188 C 644.175781 383.007812 643.023438 383.5 642.007812 383.09375 Z M 642.007812 383.09375 " />
</g><g id="e-commerce_shopping_d3LDEJP-86"><path style=" stroke:none;fill-rule:nonzero;fill:rgb(97.647059%,62.745098%,70.588235%);fill-opacity:1;" d="M 551.128906 419.378906 C 553.144531 422.535156 556.710938 424.355469 560.453125 424.128906 C 564.191406 423.902344 567.515625 421.664062 569.128906 418.28125 L 573.628906 408.832031 L 575.40625 405.082031 L 583.902344 387.230469 L 583.90625 387.234375 C 584.355469 386.28125 584.664062 385.273438 584.820312 384.234375 C 585.4375 379.777344 583.101562 375.4375 579.046875 373.5 C 577.15625 372.589844 575.035156 372.289062 572.96875 372.636719 C 569.628906 373.167969 566.765625 375.3125 565.3125 378.367188 L 556.261719 397.363281 L 555.660156 398.628906 L 550.5 409.40625 L 550.5 409.410156 C 548.984375 412.621094 549.222656 416.382812 551.128906 419.378906 Z M 551.128906 419.378906 " />
</g><g id="e-commerce_shopping_d3LDEJP-87"><path style=" stroke:none;fill-rule:nonzero;fill:rgb(99.215686%,76.470588%,80.392157%);fill-opacity:1;" d="M 580.351562 374.25 C 578.53125 373.429688 576.511719 373.167969 574.546875 373.5 C 571.203125 374.035156 568.339844 376.175781 566.886719 379.230469 L 557.835938 398.25 L 557.234375 399.515625 L 554.308594 405.65625 L 553.402344 407.5625 L 550.875 408.695312 L 551.78125 406.789062 L 555.667969 398.652344 L 556.261719 397.386719 L 565.3125 378.390625 C 566.769531 375.324219 569.648438 373.179688 573 372.652344 C 575.5625 372.238281 578.191406 372.808594 580.351562 374.25 Z M 580.351562 374.25 " />
</g><g id="e-commerce_shopping_d3LDEJP-88"><path style=" stroke:none;fill-rule:nonzero;fill:rgb(97.647059%,62.745098%,70.588235%);fill-opacity:1;" d="M 561.855469 404.25 C 565.351562 404.867188 568.28125 407.242188 569.613281 410.53125 C 570.949219 413.820312 570.496094 417.566406 568.417969 420.441406 L 568.171875 420.765625 C 568.089844 420.871094 568.015625 420.96875 567.925781 421.066406 L 567.921875 421.066406 C 567.894531 421.109375 567.863281 421.148438 567.824219 421.183594 L 567.644531 421.378906 C 567.503906 421.535156 567.351562 421.695312 567.195312 421.835938 L 566.867188 422.144531 L 566.863281 422.144531 C 566.507812 422.457031 566.132812 422.746094 565.738281 423.007812 L 565.414062 423.210938 C 565.300781 423.285156 565.179688 423.347656 565.0625 423.414062 L 565.066406 423.414062 C 564.820312 423.558594 564.570312 423.691406 564.316406 423.808594 L 536.109375 436.46875 L 532.960938 437.878906 L 532.957031 437.878906 C 532.59375 438.042969 532.21875 438.1875 531.839844 438.308594 C 526.851562 439.878906 521.476562 437.46875 519.328125 432.699219 C 518.90625 431.746094 518.625 430.734375 518.496094 429.699219 C 517.972656 425.230469 520.398438 420.9375 524.496094 419.085938 L 555.839844 405 C 557.722656 404.148438 559.820312 403.886719 561.855469 404.25 Z M 561.855469 404.25 " />
</g><g id="e-commerce_shopping_d3LDEJP-89"><path style=" stroke:none;fill-rule:nonzero;fill:rgb(97.647059%,62.745098%,70.588235%);fill-opacity:1;" d="M 529.785156 419.050781 C 535.578125 420.695312 538.585938 427.984375 536.503906 435.335938 C 534.421875 442.691406 528.035156 447.320312 522.238281 445.679688 C 516.445312 444.035156 513.4375 436.746094 515.519531 429.390625 C 517.601562 422.039062 523.988281 417.410156 529.785156 419.050781 " />
</g><g id="e-commerce_shopping_d3LDEJP-90"><path style=" stroke:none;fill-rule:nonzero;fill:rgb(99.215686%,76.470588%,80.392157%);fill-opacity:1;" d="M 554.308594 405.652344 L 553.402344 407.558594 L 550.875 408.691406 L 526.933594 419.4375 C 526.785156 419.511719 526.640625 419.59375 526.5 419.675781 C 523.949219 420.820312 521.8125 422.71875 520.371094 425.113281 C 519.546875 426.433594 518.910156 427.859375 518.476562 429.351562 C 518.476562 429.410156 518.476562 429.472656 518.425781 429.53125 C 516.339844 436.882812 519.355469 444.171875 525.175781 445.8125 L 525.542969 445.910156 L 525.539062 445.914062 C 524.449219 446.019531 523.347656 445.921875 522.292969 445.628906 C 516.496094 443.988281 513.488281 436.695312 515.542969 429.347656 C 516.894531 424.601562 520.042969 420.992188 523.636719 419.46875 L 524.035156 419.25 L 524.132812 419.203125 L 524.507812 419.015625 L 543.828125 410.34375 L 551.808594 406.757812 Z M 554.308594 405.652344 " />
</g><g id="e-commerce_shopping_d3LDEJP-91"><path style=" stroke:none;fill-rule:nonzero;fill:rgb(95.686275%,56.470588%,66.666667%);fill-opacity:1;" d="M 567.871094 419.09375 L 567.625 419.417969 L 567.378906 419.726562 L 567.28125 419.839844 L 567.101562 420.042969 C 566.960938 420.199219 566.808594 420.351562 566.652344 420.5 L 566.324219 420.808594 L 566.316406 420.800781 C 565.960938 421.109375 565.585938 421.394531 565.191406 421.65625 C 565.089844 421.730469 564.980469 421.800781 564.871094 421.859375 C 564.757812 421.933594 564.640625 422.003906 564.515625 422.0625 C 564.273438 422.207031 564.023438 422.339844 563.765625 422.460938 L 536.707031 434.601562 L 535.621094 435.089844 C 535.371094 435.753906 535.082031 436.398438 534.75 437.023438 C 531.988281 442.566406 526.605469 445.738281 521.65625 444.335938 C 518.976562 443.507812 516.789062 441.5625 515.65625 438.996094 C 516.804688 442.265625 519.113281 444.769531 522.226562 445.65625 C 527.722656 447.214844 533.761719 443.121094 536.140625 436.410156 L 564.289062 423.75 C 564.558594 423.628906 564.820312 423.496094 565.039062 423.351562 C 565.152344 423.285156 565.273438 423.222656 565.382812 423.148438 L 565.710938 422.945312 L 565.710938 422.949219 C 566.101562 422.683594 566.472656 422.394531 566.828125 422.085938 L 567.164062 421.777344 C 567.3125 421.636719 567.464844 421.476562 567.605469 421.320312 L 567.785156 421.125 L 567.789062 421.125 C 567.824219 421.089844 567.855469 421.046875 567.886719 421.003906 C 567.972656 420.910156 568.054688 420.808594 568.132812 420.703125 C 568.222656 420.597656 568.296875 420.484375 568.378906 420.378906 L 568.378906 420.382812 C 570.542969 417.394531 570.941406 413.480469 569.429688 410.113281 C 569.371094 409.992188 569.316406 409.867188 569.25 409.746094 C 570.324219 412.902344 569.8125 416.382812 567.871094 419.09375 Z M 567.871094 419.09375 " />
</g><g id="e-commerce_shopping_d3LDEJP-92"><path style=" stroke:none;fill-rule:nonzero;fill:rgb(100%,69.803922%,74.901961%);fill-opacity:1;" d="M 571.792969 520.199219 L 592.621094 520.199219 L 592.621094 627.195312 L 571.792969 627.195312 Z M 571.792969 520.199219 " />
</g><g id="e-commerce_shopping_d3LDEJP-93"><path style=" stroke:none;fill-rule:nonzero;fill:rgb(97.647059%,62.745098%,70.588235%);fill-opacity:1;" d="M 571.792969 520.199219 L 592.621094 520.199219 L 592.621094 548.332031 L 571.792969 548.332031 Z M 571.792969 520.199219 " />
</g><g id="e-commerce_shopping_d3LDEJP-94"><path style=" stroke:none;fill-rule:nonzero;fill:rgb(32.156863%,80%,78.823529%);fill-opacity:1;" d="M 557.371094 628.148438 L 582.210938 628.042969 C 582.179688 621.183594 576.597656 615.644531 569.738281 615.675781 C 562.878906 615.703125 557.339844 621.289062 557.371094 628.148438 Z M 557.371094 628.148438 " />
</g><g id="e-commerce_shopping_d3LDEJP-95"><path style=" stroke:none;fill-rule:nonzero;fill:rgb(40%,37.254902%,94.901961%);fill-opacity:1;" d="M 555.046875 628.5 C 555.050781 629.628906 555.5 630.710938 556.304688 631.503906 C 557.105469 632.300781 558.191406 632.742188 559.320312 632.738281 L 570.066406 632.6875 L 594.515625 632.582031 L 594.515625 632.578125 C 595.5625 632.570312 596.523438 631.996094 597.023438 631.078125 C 597.511719 630.214844 597.523438 629.164062 597.054688 628.289062 C 596.585938 627.414062 595.703125 626.839844 594.710938 626.765625 L 570.710938 625.011719 L 559.589844 624.203125 C 558.40625 624.121094 557.238281 624.539062 556.375 625.355469 C 555.511719 626.171875 555.03125 627.3125 555.046875 628.5 Z M 555.046875 628.5 " />
</g><g id="e-commerce_shopping_d3LDEJP-96"><path style=" stroke:none;fill-rule:nonzero;fill:rgb(40%,37.254902%,94.901961%);fill-opacity:1;" d="M 571.84375 616.191406 C 571.84375 620.601562 565.230469 620.601562 565.230469 616.191406 C 565.230469 611.78125 571.84375 611.78125 571.84375 616.191406 " />
</g><g id="e-commerce_shopping_d3LDEJP-97"><path style=" stroke:none;fill-rule:nonzero;fill:rgb(100%,69.803922%,74.901961%);fill-opacity:1;" d="M 597.398438 520.199219 L 618.226562 520.199219 L 618.226562 627.195312 L 597.398438 627.195312 Z M 597.398438 520.199219 " />
</g><g id="e-commerce_shopping_d3LDEJP-98"><path style=" stroke:none;fill-rule:nonzero;fill:rgb(97.647059%,62.745098%,70.588235%);fill-opacity:1;" d="M 597.398438 520.199219 L 618.226562 520.199219 L 618.226562 548.332031 L 597.398438 548.332031 Z M 597.398438 520.199219 " />
</g><g id="e-commerce_shopping_d3LDEJP-99"><path style=" stroke:none;fill-rule:nonzero;fill:rgb(51.764706%,95.686275%,94.509804%);fill-opacity:1;" d="M 582.976562 628.148438 L 607.816406 628.042969 C 607.785156 621.183594 602.203125 615.644531 595.34375 615.675781 C 588.484375 615.703125 582.945312 621.289062 582.976562 628.148438 Z M 582.976562 628.148438 " />
</g><g id="e-commerce_shopping_d3LDEJP-100"><path style=" stroke:none;fill-rule:nonzero;fill:rgb(49.019608%,43.137255%,96.862745%);fill-opacity:1;" d="M 580.648438 628.5 C 580.652344 629.628906 581.105469 630.710938 581.910156 631.503906 C 582.710938 632.300781 583.796875 632.742188 584.925781 632.738281 L 595.671875 632.6875 L 620.121094 632.582031 L 620.121094 632.578125 C 621.167969 632.570312 622.125 631.996094 622.628906 631.078125 C 623.117188 630.214844 623.128906 629.164062 622.660156 628.289062 C 622.191406 627.414062 621.308594 626.839844 620.316406 626.765625 L 596.316406 625.011719 L 585.195312 624.203125 C 584.007812 624.117188 582.84375 624.535156 581.976562 625.351562 C 581.113281 626.167969 580.632812 627.3125 580.648438 628.5 Z M 580.648438 628.5 " />
</g><g id="e-commerce_shopping_d3LDEJP-101"><path style=" stroke:none;fill-rule:nonzero;fill:rgb(49.019608%,43.137255%,96.862745%);fill-opacity:1;" d="M 597.449219 616.191406 C 597.449219 620.601562 590.835938 620.601562 590.835938 616.191406 C 590.835938 611.78125 597.449219 611.78125 597.449219 616.191406 " />
</g><g id="e-commerce_shopping_d3LDEJP-102"><path style=" stroke:none;fill-rule:nonzero;fill:rgb(38.823529%,89.411765%,89.411765%);fill-opacity:1;" d="M 605.730469 476.664062 C 595.785156 476.664062 586.246094 472.714844 579.214844 465.679688 C 572.179688 458.648438 568.230469 449.109375 568.230469 439.164062 L 568.230469 423.0625 L 605.730469 423.0625 Z M 605.730469 476.664062 " />
</g><g id="e-commerce_shopping_d3LDEJP-103"><path style=" stroke:none;fill-rule:nonzero;fill:rgb(32.156863%,80%,78.823529%);fill-opacity:1;" d="M 605.730469 429.035156 L 568.207031 429.035156 L 568.207031 423.019531 L 605.730469 423.019531 Z M 605.730469 429.035156 " />
</g><g id="e-commerce_shopping_d3LDEJP-104"><path style=" stroke:none;fill-rule:nonzero;fill:rgb(92.54902%,25.490196%,52.54902%);fill-opacity:1;" d="M 605.730469 423.019531 L 568.207031 423.019531 L 568.207031 395.855469 L 605.730469 395.855469 Z M 605.730469 423.019531 " />
</g><g id="e-commerce_shopping_d3LDEJP-105"><path style=" stroke:none;fill-rule:nonzero;fill:rgb(80.784314%,10.588235%,42.745098%);fill-opacity:1;" d="M 605.730469 395.851562 L 568.207031 395.851562 L 568.207031 408.285156 L 605.730469 405.046875 Z M 605.730469 395.851562 " />
</g><g id="e-commerce_shopping_d3LDEJP-106"><path style=" stroke:none;fill-rule:nonzero;fill:rgb(100%,69.803922%,74.901961%);fill-opacity:1;" d="M 595.550781 362.699219 L 594.980469 365.992188 L 593.757812 373.109375 L 593.761719 373.109375 C 593.214844 376.273438 590.203125 378.398438 587.039062 377.851562 C 583.875 377.304688 581.753906 374.292969 582.300781 371.128906 L 582.4375 370.378906 L 584.101562 360.75 C 584.507812 358.378906 586.332031 356.503906 588.691406 356.03125 C 589.070312 355.957031 589.457031 355.921875 589.84375 355.921875 C 591.550781 355.925781 593.167969 356.683594 594.269531 357.988281 C 595.367188 359.292969 595.835938 361.015625 595.550781 362.699219 Z M 595.550781 362.699219 " />
</g><g id="e-commerce_shopping_d3LDEJP-107"><path style=" stroke:none;fill-rule:nonzero;fill:rgb(95.686275%,56.470588%,66.666667%);fill-opacity:1;" d="M 614.414062 391.5 L 614.414062 391.851562 C 614.269531 396.199219 611.773438 400.125 607.898438 402.097656 L 607.386719 401.992188 L 591 390.863281 C 590.125 390.265625 589.34375 389.539062 588.683594 388.710938 C 590.796875 385.359375 592.996094 382.066406 593.019531 380.859375 L 603.78125 380.859375 C 606.605469 380.847656 609.316406 381.96875 611.3125 383.964844 C 613.308594 385.964844 614.425781 388.675781 614.414062 391.5 Z M 614.414062 391.5 " />
</g><g id="e-commerce_shopping_d3LDEJP-108"><path style=" stroke:none;fill-rule:nonzero;fill:rgb(100%,69.803922%,74.901961%);fill-opacity:1;" d="M 606.695312 391.246094 L 562.25 391.246094 L 562.253906 391.246094 C 562.253906 385.855469 564.394531 380.683594 568.207031 376.871094 C 572.015625 373.0625 577.1875 370.917969 582.578125 370.917969 L 586.375 370.917969 L 586.371094 370.917969 C 591.761719 370.917969 596.933594 373.0625 600.742188 376.871094 C 604.554688 380.683594 606.695312 385.855469 606.695312 391.246094 Z M 606.695312 391.246094 " />
</g><g id="e-commerce_shopping_d3LDEJP-109"><path style=" stroke:none;fill-rule:nonzero;fill:rgb(92.54902%,25.490196%,52.54902%);fill-opacity:1;" d="M 600.292969 402.433594 L 567.136719 402.433594 C 561.277344 402.433594 556.523438 396.574219 556.523438 391.820312 L 556.523438 391.46875 C 556.523438 385.609375 561.273438 380.855469 567.136719 380.855469 L 600.292969 380.855469 C 606.152344 380.855469 610.90625 386.714844 610.90625 391.46875 L 610.90625 391.820312 C 610.90625 397.679688 606.15625 402.433594 600.292969 402.433594 Z M 600.292969 402.433594 " />
</g><g id="e-commerce_shopping_d3LDEJP-110"><path style=" stroke:none;fill-rule:nonzero;fill:rgb(80.784314%,10.588235%,42.745098%);fill-opacity:1;" d="M 608.191406 398.910156 C 606.179688 401.15625 603.308594 402.4375 600.292969 402.433594 L 567.136719 402.433594 C 564.316406 402.4375 561.613281 401.324219 559.617188 399.332031 C 557.625 397.34375 556.503906 394.640625 556.5 391.824219 L 556.5 391.5 C 556.5 385.742188 561.09375 381.035156 566.851562 380.894531 C 565.101562 382.835938 564.136719 385.359375 564.140625 387.976562 L 564.140625 388.328125 C 564.140625 394.1875 568.894531 398.941406 574.753906 398.941406 L 608.167969 398.941406 Z M 608.191406 398.910156 " />
</g><g id="e-commerce_shopping_d3LDEJP-111"><path style=" stroke:none;fill-rule:nonzero;fill:rgb(38.823529%,89.411765%,89.411765%);fill-opacity:1;" d="M 620.445312 452.453125 C 620.445312 464.496094 610.679688 474.261719 598.636719 474.261719 C 586.589844 474.261719 576.824219 464.496094 576.824219 452.453125 C 576.824219 440.40625 586.589844 430.640625 598.636719 430.640625 C 610.679688 430.640625 620.445312 440.40625 620.445312 452.453125 " />
</g><g id="e-commerce_shopping_d3LDEJP-112"><path style=" stroke:none;fill-rule:nonzero;fill:rgb(97.647059%,62.745098%,70.588235%);fill-opacity:1;" d="M 595.550781 362.699219 L 594.980469 365.992188 L 594.984375 365.992188 C 591.445312 368.886719 587.003906 370.441406 582.433594 370.386719 L 584.097656 360.75 L 584.101562 360.75 C 584.507812 358.378906 586.332031 356.503906 588.691406 356.03125 C 589.070312 355.957031 589.457031 355.921875 589.84375 355.921875 C 591.550781 355.925781 593.167969 356.683594 594.269531 357.988281 C 595.367188 359.292969 595.835938 361.015625 595.550781 362.699219 Z M 595.550781 362.699219 " />
</g><g id="e-commerce_shopping_d3LDEJP-113"><path style=" stroke:none;fill-rule:nonzero;fill:rgb(100%,69.803922%,74.901961%);fill-opacity:1;" d="M 604.808594 337.164062 L 604.15625 349.855469 L 604.15625 349.851562 C 603.886719 355.027344 601.574219 359.886719 597.726562 363.359375 C 593.875 366.832031 588.804688 368.628906 583.628906 368.363281 C 579.640625 368.148438 575.898438 366.359375 573.226562 363.390625 C 570.554688 360.417969 569.171875 356.511719 569.378906 352.523438 L 569.925781 341.882812 L 569.925781 341.878906 C 569.929688 341.816406 569.929688 341.75 569.925781 341.683594 C 569.925781 341.390625 569.972656 341.105469 570 340.8125 L 570 340.816406 C 570.535156 335.707031 572.992188 330.992188 576.875 327.628906 C 580.753906 324.265625 585.769531 322.5 590.902344 322.695312 L 591.179688 322.695312 L 591.808594 322.734375 C 592.679688 322.777344 593.542969 322.902344 594.390625 323.109375 C 600.785156 324.6875 605.15625 330.585938 604.808594 337.164062 Z M 604.808594 337.164062 " />
</g><g id="e-commerce_shopping_d3LDEJP-114"><path style=" stroke:none;fill-rule:nonzero;fill:rgb(97.647059%,62.745098%,70.588235%);fill-opacity:1;" d="M 607.566406 346.191406 L 603.816406 338.355469 C 603.453125 337.601562 602.960938 336.914062 602.371094 336.324219 L 602.8125 336.234375 C 603.082031 335.488281 603.265625 334.714844 603.359375 333.929688 C 603.363281 333.894531 603.363281 333.855469 603.359375 333.816406 C 601.941406 329.171875 598.691406 325.308594 594.359375 323.113281 C 593.511719 322.910156 592.648438 322.785156 591.78125 322.738281 L 591.152344 322.699219 L 590.875 322.699219 L 590.871094 322.703125 C 585.746094 322.515625 580.742188 324.28125 576.867188 327.644531 C 572.992188 331.007812 570.539062 335.714844 570 340.816406 C 573.542969 342.035156 577.382812 342.097656 580.964844 341.003906 L 586.890625 339.714844 L 586.890625 339.710938 C 590.996094 338.8125 595.183594 340.855469 597 344.648438 C 598.773438 348.34375 603.203125 349.902344 606.898438 348.136719 C 607.601562 347.765625 607.894531 346.914062 607.566406 346.191406 Z M 607.566406 346.191406 " />
</g><g id="e-commerce_shopping_d3LDEJP-115"><path style=" stroke:none;fill-rule:nonzero;fill:rgb(38.431373%,12.941176%,22.352941%);fill-opacity:1;" d="M 596.445312 330.425781 L 598.5 330.425781 C 604.371094 330.425781 609.128906 335.1875 609.128906 341.054688 L 609.128906 347.054688 C 609.128906 348.207031 608.195312 349.140625 607.042969 349.140625 C 601.171875 349.140625 596.414062 344.382812 596.414062 338.511719 L 596.414062 330.425781 Z M 596.445312 330.425781 " />
</g><g id="e-commerce_shopping_d3LDEJP-116"><path style=" stroke:none;fill-rule:nonzero;fill:rgb(100%,69.803922%,74.901961%);fill-opacity:1;" d="M 609.734375 346.140625 C 609.734375 349.519531 606.996094 352.261719 603.613281 352.261719 C 600.234375 352.261719 597.496094 349.519531 597.496094 346.140625 C 597.496094 342.761719 600.234375 340.019531 603.613281 340.019531 C 606.996094 340.019531 609.734375 342.761719 609.734375 346.140625 " />
</g><g id="e-commerce_shopping_d3LDEJP-117"><path style=" stroke:none;fill-rule:nonzero;fill:rgb(97.647059%,62.745098%,70.588235%);fill-opacity:1;" d="M 605.683594 345.824219 C 605.503906 344.789062 604.71875 343.960938 603.691406 343.726562 C 603.445312 343.679688 603.195312 343.753906 603.019531 343.929688 C 602.84375 344.105469 602.765625 344.359375 602.8125 344.601562 L 603.398438 347.945312 L 603.398438 347.949219 C 603.4375 348.207031 603.609375 348.425781 603.851562 348.523438 C 604.09375 348.625 604.371094 348.589844 604.582031 348.433594 C 605.429688 347.855469 605.859375 346.835938 605.683594 345.824219 Z M 605.683594 345.824219 " />
</g><g id="e-commerce_shopping_d3LDEJP-118"><path style=" stroke:none;fill-rule:nonzero;fill:rgb(38.823529%,89.411765%,89.411765%);fill-opacity:1;" d="M 575.136719 423.015625 L 577.339844 423.015625 L 577.339844 429.03125 L 575.136719 429.03125 Z M 575.136719 423.015625 " />
</g><g id="e-commerce_shopping_d3LDEJP-119"><path style=" stroke:none;fill-rule:nonzero;fill:rgb(38.823529%,89.411765%,89.411765%);fill-opacity:1;" d="M 584.484375 423.015625 L 586.6875 423.015625 L 586.6875 429.03125 L 584.484375 429.03125 Z M 584.484375 423.015625 " />
</g><g id="e-commerce_shopping_d3LDEJP-120"><path style=" stroke:none;fill-rule:nonzero;fill:rgb(38.823529%,89.411765%,89.411765%);fill-opacity:1;" d="M 593.828125 423.015625 L 596.03125 423.015625 L 596.03125 429.03125 L 593.828125 429.03125 Z M 593.828125 423.015625 " />
</g><g id="e-commerce_shopping_d3LDEJP-121"><path style=" stroke:none;fill-rule:nonzero;fill:rgb(38.431373%,12.941176%,22.352941%);fill-opacity:1;" d="M 576.863281 343.710938 C 576.863281 345.648438 573.953125 345.648438 573.953125 343.710938 C 573.953125 341.769531 576.863281 341.769531 576.863281 343.710938 " />
</g><g id="e-commerce_shopping_d3LDEJP-122"><path style=" stroke:none;fill-rule:nonzero;fill:rgb(38.431373%,12.941176%,22.352941%);fill-opacity:1;" d="M 590.136719 343.710938 C 590.136719 345.648438 587.226562 345.648438 587.226562 343.710938 C 587.226562 341.769531 590.136719 341.769531 590.136719 343.710938 " />
</g><g id="e-commerce_shopping_d3LDEJP-123"><path style=" stroke:none;fill-rule:nonzero;fill:rgb(38.823529%,89.411765%,89.411765%);fill-opacity:1;" d="M 568.207031 441.082031 L 602.664062 441.082031 C 607.378906 441.082031 611.90625 442.957031 615.242188 446.292969 C 618.578125 449.628906 620.453125 454.15625 620.453125 458.871094 L 620.453125 534.882812 L 568.207031 534.882812 Z M 568.207031 441.082031 " />
</g><g id="e-commerce_shopping_d3LDEJP-124"><path style=" stroke:none;fill-rule:nonzero;fill:rgb(51.764706%,95.686275%,94.509804%);fill-opacity:1;" d="M 620.453125 452.453125 C 620.453125 447.925781 619.046875 443.515625 616.425781 439.824219 C 613.808594 436.136719 610.105469 433.351562 605.835938 431.859375 C 611.03125 435.175781 614.574219 440.542969 615.585938 446.625 C 615.789062 447.808594 615.886719 449.003906 615.886719 450.203125 C 615.886719 451.332031 615.796875 452.457031 615.621094 453.570312 C 615.796875 454.574219 615.886719 455.59375 615.886719 456.613281 L 615.886719 534.882812 L 620.484375 534.882812 L 620.484375 458.863281 C 620.480469 457.859375 620.394531 456.855469 620.21875 455.863281 C 620.386719 454.734375 620.464844 453.59375 620.453125 452.453125 Z M 620.453125 452.453125 " />
</g><g id="e-commerce_shopping_d3LDEJP-125"><path style=" stroke:none;fill-rule:nonzero;fill:rgb(38.431373%,12.941176%,22.352941%);fill-opacity:1;" d="M 607.230469 330.425781 C 607.230469 334.226562 605.132812 337.71875 601.777344 339.5 C 598.417969 341.277344 594.351562 341.054688 591.207031 338.921875 C 588.0625 336.785156 586.355469 333.089844 586.773438 329.3125 C 587.1875 325.535156 589.65625 322.296875 593.191406 320.894531 C 593.933594 320.605469 594.710938 320.398438 595.5 320.289062 C 595.996094 320.210938 596.496094 320.171875 597 320.175781 C 602.652344 320.1875 607.230469 324.773438 607.230469 330.425781 Z M 607.230469 330.425781 " />
</g><g id="e-commerce_shopping_d3LDEJP-126"><path style=" stroke:none;fill-rule:nonzero;fill:rgb(38.431373%,12.941176%,22.352941%);fill-opacity:1;" d="M 596.488281 324.703125 C 596.488281 330.367188 591.898438 334.957031 586.238281 334.957031 C 580.574219 334.957031 575.984375 330.367188 575.984375 324.703125 C 575.984375 319.042969 580.574219 314.453125 586.238281 314.453125 C 591.898438 314.453125 596.488281 319.042969 596.488281 324.703125 " />
</g><g id="e-commerce_shopping_d3LDEJP-127"><path style=" stroke:none;fill-rule:nonzero;fill:rgb(38.431373%,12.941176%,22.352941%);fill-opacity:1;" d="M 582.066406 330.425781 C 582.066406 336.089844 577.476562 340.679688 571.816406 340.679688 C 566.152344 340.679688 561.5625 336.089844 561.5625 330.425781 C 561.5625 324.765625 566.152344 320.175781 571.816406 320.175781 C 577.476562 320.175781 582.066406 324.765625 582.066406 330.425781 " />
</g><g id="e-commerce_shopping_d3LDEJP-128"><path style=" stroke:none;fill-rule:nonzero;fill:rgb(47.843137%,19.215686%,30.196078%);fill-opacity:1;" d="M 595.5 320.289062 C 594.710938 320.398438 593.933594 320.605469 593.191406 320.894531 C 590.648438 318.550781 587.097656 317.644531 583.746094 318.488281 C 580.394531 319.328125 577.691406 321.800781 576.554688 325.066406 C 576.367188 324.96875 576.179688 324.871094 575.984375 324.789062 C 573.117188 323.511719 569.820312 323.617188 567.042969 325.082031 C 564.261719 326.542969 562.308594 329.199219 561.734375 332.289062 C 561.023438 328.433594 562.570312 324.507812 565.722656 322.179688 C 568.875 319.847656 573.078125 319.519531 576.554688 321.328125 C 577.921875 317.402344 581.523438 314.691406 585.675781 314.460938 C 589.828125 314.230469 593.707031 316.527344 595.5 320.28125 Z M 595.5 320.289062 " />
</g><g id="e-commerce_shopping_d3LDEJP-129"><path style=" stroke:none;fill-rule:nonzero;fill:rgb(47.843137%,19.215686%,30.196078%);fill-opacity:1;" d="M 602.796875 329.683594 C 602.796875 333.167969 599.972656 335.992188 596.488281 335.992188 C 593.007812 335.992188 590.183594 333.167969 590.183594 329.683594 C 590.183594 326.203125 593.007812 323.378906 596.488281 323.378906 C 599.972656 323.378906 602.796875 326.203125 602.796875 329.683594 " />
</g><g id="e-commerce_shopping_d3LDEJP-130"><path style=" stroke:none;fill-rule:nonzero;fill:rgb(58.823529%,18.431373%,29.019608%);fill-opacity:1;" d="M 576.75 355.253906 C 576.722656 356.59375 577.234375 357.894531 578.175781 358.851562 C 578.289062 358.972656 578.40625 359.085938 578.535156 359.191406 C 579.4375 359.957031 580.582031 360.390625 581.765625 360.414062 L 582 360.414062 C 583.070312 360.429688 584.121094 360.113281 585 359.503906 C 586.21875 358.679688 587.011719 357.355469 587.167969 355.890625 C 587.179688 355.753906 587.179688 355.613281 587.167969 355.476562 C 587.175781 355.214844 587.074219 354.964844 586.890625 354.78125 C 586.710938 354.589844 586.460938 354.480469 586.199219 354.472656 L 577.722656 354.292969 L 577.726562 354.292969 C 577.195312 354.296875 576.761719 354.722656 576.75 355.253906 Z M 576.75 355.253906 " />
</g><g id="e-commerce_shopping_d3LDEJP-131"><path style=" stroke:none;fill-rule:nonzero;fill:rgb(88.235294%,38.039216%,49.803922%);fill-opacity:1;" d="M 581.878906 359.640625 C 581.875 359.890625 581.894531 360.140625 581.941406 360.390625 C 584.578125 360.460938 586.832031 358.507812 587.136719 355.890625 C 586.773438 355.777344 586.394531 355.714844 586.011719 355.710938 C 583.785156 355.65625 581.9375 357.414062 581.878906 359.640625 Z M 581.878906 359.640625 " />
</g><g id="e-commerce_shopping_d3LDEJP-132"><path style=" stroke:none;fill-rule:nonzero;fill:rgb(100%,100%,100%);fill-opacity:1;" d="M 577.949219 354.308594 C 577.949219 355.296875 579.496094 356.125 581.398438 356.160156 C 583.304688 356.199219 584.871094 355.449219 584.929688 354.457031 Z M 577.949219 354.308594 " />
</g><g id="e-commerce_shopping_d3LDEJP-133"><path style=" stroke:none;fill-rule:nonzero;fill:rgb(100%,100%,100%);fill-opacity:1;" d="M 578.527344 359.191406 C 579.429688 359.960938 580.574219 360.394531 581.761719 360.414062 L 582 360.414062 C 583.070312 360.429688 584.117188 360.109375 585 359.503906 C 584.34375 358.328125 583.089844 357.613281 581.746094 357.652344 C 580.480469 357.574219 579.261719 358.15625 578.527344 359.191406 Z M 578.527344 359.191406 " />
</g><g id="e-commerce_shopping_d3LDEJP-134"><path style=" stroke:none;fill-rule:nonzero;fill:rgb(73.72549%,74.901961%,96.470588%);fill-opacity:1;" d="M 139.191406 632.371094 L 115.625 632.371094 L 115.628906 632.371094 C 111.46875 632.371094 107.972656 629.25 107.503906 625.117188 L 102.6875 582.921875 L 152.136719 582.921875 L 147.320312 625.117188 L 147.324219 625.117188 C 146.851562 629.25 143.351562 632.371094 139.191406 632.371094 Z M 139.191406 632.371094 " />
</g><g id="e-commerce_shopping_d3LDEJP-135"><path style=" stroke:none;fill-rule:nonzero;fill:rgb(73.72549%,74.901961%,96.470588%);fill-opacity:1;" d="M 151.550781 588.046875 L 150.378906 598.300781 L 147.3125 625.128906 L 147.316406 625.125 C 146.84375 629.253906 143.347656 632.375 139.191406 632.378906 L 115.625 632.378906 L 115.628906 632.378906 C 111.472656 632.375 107.976562 629.253906 107.503906 625.125 L 104.4375 598.296875 L 103.265625 588.042969 Z M 151.550781 588.046875 " />
</g><g id="e-commerce_shopping_d3LDEJP-136"><path style=" stroke:none;fill-rule:nonzero;fill:rgb(82.352941%,83.921569%,98.039216%);fill-opacity:1;" d="M 127.410156 535.328125 C 134.984375 535.328125 141.128906 541.46875 141.128906 549.046875 L 141.128906 593.175781 L 113.695312 593.175781 L 113.695312 549.039062 L 113.691406 549.039062 C 113.695312 541.464844 119.835938 535.328125 127.410156 535.328125 Z M 127.410156 535.328125 " />
</g><g id="e-commerce_shopping_d3LDEJP-137"><path style=" stroke:none;fill-rule:nonzero;fill:rgb(70.980392%,73.333333%,95.686275%);fill-opacity:1;" d="M 151.550781 588.046875 L 150.378906 598.300781 L 104.433594 598.300781 L 103.261719 588.046875 Z M 151.550781 588.046875 " />
</g><g id="e-commerce_shopping_d3LDEJP-138"><path style=" stroke:none;fill-rule:nonzero;fill:rgb(73.72549%,74.901961%,96.470588%);fill-opacity:1;" d="M 99.195312 582.921875 L 155.625 582.921875 C 157.941406 582.921875 159.816406 585.238281 159.816406 587.113281 L 159.816406 588.972656 C 159.816406 591.289062 157.9375 593.164062 155.625 593.164062 L 99.195312 593.164062 C 96.878906 593.164062 95.003906 590.847656 95.003906 588.972656 L 95.003906 587.113281 C 95.003906 584.796875 96.882812 582.921875 99.195312 582.921875 Z M 99.195312 582.921875 " />
</g><g id="e-commerce_shopping_d3LDEJP-139"><path style=" stroke:none;fill-rule:nonzero;fill:rgb(73.72549%,74.901961%,96.470588%);fill-opacity:1;" d="M 143.203125 559.175781 C 143.203125 562.378906 138.40625 562.378906 138.40625 559.175781 C 138.40625 555.976562 143.203125 555.976562 143.203125 559.175781 " />
</g><g id="e-commerce_shopping_d3LDEJP-140"><path style=" stroke:none;fill-rule:nonzero;fill:rgb(73.72549%,74.901961%,96.470588%);fill-opacity:1;" d="M 140.804688 541.109375 C 140.804688 544.308594 136.003906 544.308594 136.003906 541.109375 C 136.003906 537.910156 140.804688 537.910156 140.804688 541.109375 " />
</g><g id="e-commerce_shopping_d3LDEJP-141"><path style=" stroke:none;fill-rule:nonzero;fill:rgb(73.72549%,74.901961%,96.470588%);fill-opacity:1;" d="M 129.808594 535.328125 C 129.808594 538.527344 125.011719 538.527344 125.011719 535.328125 C 125.011719 532.128906 129.808594 532.128906 129.808594 535.328125 " />
</g><g id="e-commerce_shopping_d3LDEJP-142"><path style=" stroke:none;fill-rule:nonzero;fill:rgb(73.72549%,74.901961%,96.470588%);fill-opacity:1;" d="M 136.003906 550.28125 C 136.003906 553.484375 131.203125 553.484375 131.203125 550.28125 C 131.203125 547.082031 136.003906 547.082031 136.003906 550.28125 " />
</g><g id="e-commerce_shopping_d3LDEJP-143"><path style=" stroke:none;fill-rule:nonzero;fill:rgb(73.72549%,74.901961%,96.470588%);fill-opacity:1;" d="M 124.28125 551.378906 C 124.28125 554.578125 119.484375 554.578125 119.484375 551.378906 C 119.484375 548.175781 124.28125 548.175781 124.28125 551.378906 " />
</g><g id="e-commerce_shopping_d3LDEJP-144"><path style=" stroke:none;fill-rule:nonzero;fill:rgb(73.72549%,74.901961%,96.470588%);fill-opacity:1;" d="M 129.644531 565.28125 C 129.644531 568.484375 124.84375 568.484375 124.84375 565.28125 C 124.84375 562.082031 129.644531 562.082031 129.644531 565.28125 " />
</g><g id="e-commerce_shopping_d3LDEJP-145"><path style=" stroke:none;fill-rule:nonzero;fill:rgb(73.72549%,74.901961%,96.470588%);fill-opacity:1;" d="M 136.003906 578.421875 C 136.003906 581.621094 131.203125 581.621094 131.203125 578.421875 C 131.203125 575.222656 136.003906 575.222656 136.003906 578.421875 " />
</g><g id="e-commerce_shopping_d3LDEJP-146"><path style=" stroke:none;fill-rule:nonzero;fill:rgb(73.72549%,74.901961%,96.470588%);fill-opacity:1;" d="M 122.316406 578.421875 C 122.316406 581.621094 117.515625 581.621094 117.515625 578.421875 C 117.515625 575.222656 122.316406 575.222656 122.316406 578.421875 " />
</g><g id="e-commerce_shopping_d3LDEJP-147"><path style=" stroke:none;fill-rule:nonzero;fill:rgb(73.72549%,74.901961%,96.470588%);fill-opacity:1;" d="M 118.613281 541.109375 C 118.613281 544.308594 113.8125 544.308594 113.8125 541.109375 C 113.8125 537.910156 118.613281 537.910156 118.613281 541.109375 " />
</g><g id="e-commerce_shopping_d3LDEJP-148"><path style=" stroke:none;fill-rule:nonzero;fill:rgb(73.72549%,74.901961%,96.470588%);fill-opacity:1;" d="M 116.09375 559.175781 C 116.09375 562.378906 111.292969 562.378906 111.292969 559.175781 C 111.292969 555.976562 116.09375 555.976562 116.09375 559.175781 " />
</g><g id="e-commerce_shopping_d3LDEJP-149"><path style=" stroke:none;fill-rule:nonzero;fill:rgb(73.72549%,74.901961%,96.470588%);fill-opacity:1;" d="M 143.203125 572.25 C 143.203125 575.449219 138.40625 575.449219 138.40625 572.25 C 138.40625 569.050781 143.203125 569.050781 143.203125 572.25 " />
</g><g id="e-commerce_shopping_d3LDEJP-150"><path style=" stroke:none;fill-rule:nonzero;fill:rgb(73.72549%,74.901961%,96.470588%);fill-opacity:1;" d="M 116.09375 572.25 C 116.09375 575.449219 111.292969 575.449219 111.292969 572.25 C 111.292969 569.050781 116.09375 569.050781 116.09375 572.25 " />
</g></g>
</svg>