<svg xmlns="http://www.w3.org/2000/svg" width="384pt" height="384pt" viewBox="0 0 384 384" version="1.1" class="iconadda">
<g>
<g id="Event_free_icon_G0Fau0q-0"><path style=" stroke:none;fill-rule:nonzero;fill:#eceffa;fill-opacity:1;" d="M 18.050781 77.25 L 18.050781 278.976562 C 18.050781 292.699219 29.175781 303.824219 42.898438 303.824219 L 316.25 303.824219 L 316.25 77.25 Z M 18.050781 77.25 " />
</g><g id="Event_free_icon_G0Fau0q-1"><path style=" stroke:none;fill-rule:nonzero;fill:#d7e4e0;fill-opacity:1;" d="M 316.25 77.25 L 299 77.25 L 299 303.824219 L 316.25 303.824219 Z M 316.25 77.25 " />
</g><g id="Event_free_icon_G0Fau0q-2"><path style=" stroke:none;fill-rule:nonzero;fill:#4c9cd7;fill-opacity:1;" d="M 365.949219 303.824219 C 365.949219 344.996094 332.570312 378.375 291.398438 378.375 C 250.226562 378.375 216.847656 344.996094 216.847656 303.824219 C 216.847656 262.652344 250.226562 229.273438 291.398438 229.273438 C 332.570312 229.277344 365.949219 262.652344 365.949219 303.824219 " />
</g><g id="Event_free_icon_G0Fau0q-3"><path style=" stroke:none;fill-rule:nonzero;fill:#595a67;fill-opacity:1;" d="M 144.371094 142.300781 L 119.519531 142.300781 C 116.089844 142.300781 113.308594 139.519531 113.308594 136.089844 L 113.308594 111.238281 C 113.308594 107.808594 116.089844 105.027344 119.519531 105.027344 L 144.371094 105.027344 C 147.800781 105.027344 150.582031 107.808594 150.582031 111.238281 L 150.582031 136.089844 C 150.582031 139.519531 147.800781 142.300781 144.371094 142.300781 " />
</g><g id="Event_free_icon_G0Fau0q-4"><path style=" stroke:none;fill-rule:nonzero;fill:#595a67;fill-opacity:1;" d="M 214.777344 142.300781 L 189.925781 142.300781 L 189.929688 142.300781 C 186.496094 142.300781 183.714844 139.519531 183.714844 136.089844 L 183.714844 111.238281 C 183.714844 107.808594 186.496094 105.027344 189.929688 105.027344 L 214.777344 105.027344 C 218.210938 105.027344 220.992188 107.808594 220.992188 111.238281 L 220.992188 136.089844 C 220.992188 139.519531 218.210938 142.300781 214.777344 142.300781 " />
</g><g id="Event_free_icon_G0Fau0q-5"><path style=" stroke:none;fill-rule:nonzero;fill:#595a67;fill-opacity:1;" d="M 285.1875 142.300781 L 260.335938 142.300781 C 256.90625 142.300781 254.125 139.519531 254.125 136.089844 L 254.125 111.238281 C 254.125 107.808594 256.90625 105.027344 260.335938 105.027344 L 285.1875 105.027344 C 288.617188 105.027344 291.398438 107.808594 291.398438 111.238281 L 291.398438 136.089844 C 291.398438 139.519531 288.617188 142.300781 285.1875 142.300781 " />
</g><g id="Event_free_icon_G0Fau0q-6"><path style=" stroke:none;fill-rule:nonzero;fill:#595a67;fill-opacity:1;" d="M 74.175781 204.425781 L 48.898438 204.425781 C 45.585938 204.425781 42.898438 201.738281 42.898438 198.425781 L 42.898438 173.152344 C 42.898438 171.558594 43.53125 170.035156 44.65625 168.910156 C 45.78125 167.78125 47.308594 167.152344 48.898438 167.152344 L 74.175781 167.152344 C 75.765625 167.152344 77.292969 167.78125 78.417969 168.910156 C 79.542969 170.035156 80.175781 171.558594 80.175781 173.152344 L 80.175781 198.425781 C 80.175781 200.015625 79.542969 201.542969 78.417969 202.667969 C 77.292969 203.792969 75.765625 204.425781 74.175781 204.425781 " />
</g><g id="Event_free_icon_G0Fau0q-7"><path style=" stroke:none;fill-rule:nonzero;fill:#ef4c4e;fill-opacity:1;" d="M 144.582031 204.425781 L 119.308594 204.425781 C 115.996094 204.425781 113.308594 201.738281 113.308594 198.425781 L 113.308594 173.152344 C 113.308594 171.558594 113.941406 170.035156 115.066406 168.910156 C 116.191406 167.78125 117.71875 167.152344 119.308594 167.152344 L 144.582031 167.152344 C 146.175781 167.152344 147.699219 167.78125 148.824219 168.910156 C 149.949219 170.035156 150.582031 171.558594 150.582031 173.152344 L 150.582031 198.425781 C 150.582031 200.015625 149.949219 201.542969 148.824219 202.667969 C 147.699219 203.792969 146.175781 204.425781 144.582031 204.425781 " />
</g><g id="Event_free_icon_G0Fau0q-8"><path style=" stroke:none;fill-rule:nonzero;fill:#595a67;fill-opacity:1;" d="M 214.992188 204.425781 L 189.714844 204.425781 C 186.402344 204.425781 183.714844 201.738281 183.714844 198.425781 L 183.714844 173.152344 C 183.714844 171.558594 184.347656 170.035156 185.472656 168.910156 C 186.597656 167.78125 188.125 167.152344 189.714844 167.152344 L 214.992188 167.152344 C 216.582031 167.152344 218.109375 167.78125 219.234375 168.910156 C 220.359375 170.035156 220.992188 171.558594 220.992188 173.152344 L 220.992188 198.425781 C 220.992188 200.015625 220.359375 201.542969 219.234375 202.667969 C 218.109375 203.792969 216.582031 204.425781 214.992188 204.425781 " />
</g><g id="Event_free_icon_G0Fau0q-9"><path style=" stroke:none;fill-rule:nonzero;fill:#595a67;fill-opacity:1;" d="M 144.582031 266.550781 L 119.308594 266.550781 C 115.996094 266.550781 113.308594 263.863281 113.308594 260.550781 L 113.308594 235.277344 C 113.308594 233.683594 113.941406 232.15625 115.066406 231.03125 C 116.191406 229.90625 117.71875 229.277344 119.308594 229.277344 L 144.582031 229.277344 C 146.175781 229.277344 147.699219 229.90625 148.824219 231.03125 C 149.949219 232.15625 150.582031 233.683594 150.582031 235.277344 L 150.582031 260.550781 C 150.582031 262.140625 149.949219 263.667969 148.824219 264.792969 C 147.699219 265.917969 146.175781 266.550781 144.582031 266.550781 " />
</g><g id="Event_free_icon_G0Fau0q-10"><path style=" stroke:none;fill-rule:nonzero;fill:#595a67;fill-opacity:1;" d="M 285.398438 204.425781 L 260.125 204.425781 C 256.808594 204.425781 254.125 201.738281 254.125 198.425781 L 254.125 173.152344 C 254.125 171.558594 254.757812 170.035156 255.882812 168.910156 C 257.007812 167.78125 258.53125 167.152344 260.125 167.152344 L 285.398438 167.152344 C 286.988281 167.152344 288.515625 167.78125 289.640625 168.910156 C 290.765625 170.035156 291.398438 171.558594 291.398438 173.152344 L 291.398438 198.425781 C 291.398438 200.015625 290.765625 201.542969 289.640625 202.667969 C 288.515625 203.792969 286.988281 204.425781 285.398438 204.425781 " />
</g><g id="Event_free_icon_G0Fau0q-11"><path style=" stroke:none;fill-rule:nonzero;fill:#595a67;fill-opacity:1;" d="M 74.175781 266.550781 L 48.898438 266.550781 C 45.585938 266.550781 42.898438 263.863281 42.898438 260.550781 L 42.898438 235.277344 C 42.898438 233.683594 43.53125 232.15625 44.65625 231.03125 C 45.78125 229.90625 47.308594 229.277344 48.898438 229.277344 L 74.175781 229.277344 C 75.765625 229.277344 77.292969 229.90625 78.417969 231.03125 C 79.542969 232.15625 80.175781 233.683594 80.175781 235.277344 L 80.175781 260.550781 C 80.175781 262.140625 79.542969 263.667969 78.417969 264.792969 C 77.292969 265.917969 75.765625 266.550781 74.175781 266.550781 " />
</g><g id="Event_free_icon_G0Fau0q-12"><path style=" stroke:none;fill-rule:nonzero;fill:#ef4c4e;fill-opacity:1;" d="M 316.25 80.175781 L 316.25 42.902344 C 316.25 29.179688 305.125 18.054688 291.398438 18.054688 L 42.898438 18.054688 C 29.175781 18.054688 18.046875 29.179688 18.046875 42.902344 L 18.050781 80.175781 Z M 316.25 80.175781 " />
</g><g id="Event_free_icon_G0Fau0q-13"><path style=" stroke:none;fill-rule:nonzero;fill:#eceffa;fill-opacity:1;" d="M 67.75 42.902344 C 67.75 49.765625 73.3125 55.328125 80.175781 55.328125 C 87.039062 55.328125 92.601562 49.765625 92.601562 42.902344 L 92.601562 18.050781 C 92.601562 11.1875 87.039062 5.625 80.175781 5.625 C 73.3125 5.625 67.75 11.1875 67.75 18.050781 Z M 67.75 42.902344 " />
</g><g id="Event_free_icon_G0Fau0q-14"><path style=" stroke:none;fill-rule:nonzero;fill:#eceffa;fill-opacity:1;" d="M 154.722656 42.902344 C 154.722656 49.765625 160.285156 55.328125 167.148438 55.328125 C 174.011719 55.328125 179.574219 49.765625 179.574219 42.902344 L 179.574219 18.050781 C 179.574219 11.1875 174.011719 5.625 167.148438 5.625 C 160.289062 5.625 154.722656 11.1875 154.722656 18.050781 Z M 154.722656 42.902344 " />
</g><g id="Event_free_icon_G0Fau0q-15"><path style=" stroke:none;fill-rule:nonzero;fill:#eceffa;fill-opacity:1;" d="M 241.699219 42.902344 C 241.699219 49.765625 247.261719 55.328125 254.125 55.328125 C 260.988281 55.328125 266.550781 49.765625 266.550781 42.902344 L 266.550781 18.050781 C 266.550781 11.1875 260.988281 5.625 254.125 5.625 C 247.261719 5.625 241.699219 11.1875 241.699219 18.050781 Z M 241.699219 42.902344 " />
</g><g id="Event_free_icon_G0Fau0q-16"><path style=" stroke:none;fill-rule:nonzero;fill:#db343f;fill-opacity:1;" d="M 316.25 42.902344 C 316.25 29.179688 305.125 18.054688 291.402344 18.054688 L 274.152344 18.054688 C 287.875 18.050781 299 29.175781 299 42.902344 L 299 80.175781 L 316.25 80.175781 Z M 316.25 42.902344 " />
</g><g id="Event_free_icon_G0Fau0q-17"><path style=" stroke:none;fill-rule:nonzero;fill:#4c9cd7;fill-opacity:1;" d="M 365.949219 303.824219 C 365.949219 344.996094 332.570312 378.375 291.398438 378.375 C 250.226562 378.375 216.847656 344.996094 216.847656 303.824219 C 216.847656 262.652344 250.226562 229.273438 291.398438 229.273438 C 332.570312 229.277344 365.949219 262.652344 365.949219 303.824219 " />
</g><g id="Event_free_icon_G0Fau0q-18"><path style=" stroke:none;fill-rule:nonzero;fill:#3688c9;fill-opacity:1;" d="M 291.398438 229.277344 C 288.480469 229.277344 285.605469 229.449219 282.773438 229.777344 C 319.882812 234.054688 348.699219 265.574219 348.699219 303.828125 C 348.699219 342.082031 319.882812 373.601562 282.773438 377.878906 C 285.605469 378.203125 288.480469 378.378906 291.398438 378.378906 C 332.570312 378.378906 365.949219 345 365.949219 303.828125 C 365.949219 262.652344 332.570312 229.277344 291.398438 229.277344 " />
</g><g id="Event_free_icon_G0Fau0q-19"><path style=" stroke:none;fill-rule:nonzero;fill:#eceffa;fill-opacity:1;" d="M 341.097656 303.824219 C 341.097656 331.273438 318.847656 353.523438 291.398438 353.523438 C 263.949219 353.523438 241.699219 331.273438 241.699219 303.824219 C 241.699219 276.375 263.949219 254.125 291.398438 254.125 C 318.847656 254.125 341.097656 276.375 341.097656 303.824219 " />
</g><g id="Event_free_icon_G0Fau0q-20"><path style=" stroke:none;fill-rule:nonzero;fill:#d7e4e0;fill-opacity:1;" d="M 291.398438 254.125 C 288.457031 254.125 285.578125 254.394531 282.773438 254.886719 C 306.109375 258.972656 323.847656 279.320312 323.847656 303.824219 C 323.847656 328.328125 306.109375 348.679688 282.773438 352.765625 C 285.621094 353.265625 288.507812 353.523438 291.398438 353.523438 C 318.847656 353.523438 341.097656 331.273438 341.097656 303.824219 C 341.097656 276.375 318.847656 254.125 291.398438 254.125 " />
</g><g id="Event_free_icon_G0Fau0q-21"><path style="fill:none;stroke-width:15;stroke-linecap:round;stroke-linejoin:round;stroke:rgb(0%,0%,0%);stroke-opacity:1;stroke-miterlimit:10;" d="M -0.00176594 0.00136112 C -0.00176594 -36.597707 -29.668521 -66.264462 -66.267589 -66.264462 C -102.866657 -66.264462 -132.533412 -36.597707 -132.533412 0.00136112 C -132.533412 36.600429 -102.866657 66.267184 -66.267589 66.267184 C -29.668521 66.267184 -0.00176594 36.600429 -0.00176594 0.00136112 Z M -0.00176594 0.00136112 " transform="matrix(0.749998,0,0,-0.749998,341.098981,303.82524)" />
</g><g id="Event_free_icon_G0Fau0q-22"><path style="fill:none;stroke-width:15;stroke-linecap:round;stroke-linejoin:round;stroke:rgb(0%,0%,0%);stroke-opacity:1;stroke-miterlimit:10;" d="M -0.0015783 0.000976833 C -12.137031 16.480193 -19.308928 36.844837 -19.308928 58.881361 C -19.308928 113.777358 25.196414 158.2827 80.092411 158.2827 C 134.988408 158.2827 179.49375 113.777358 179.49375 58.881361 C 179.49375 3.985364 134.988408 -40.519978 80.092411 -40.519978 C 57.634011 -40.519978 36.915199 -33.072039 20.269316 -20.509501 " transform="matrix(0.749998,0,0,-0.749998,231.329309,347.985108)" />
</g><g id="Event_free_icon_G0Fau0q-23"><path style="fill:none;stroke-width:15;stroke-linecap:round;stroke-linejoin:round;stroke:rgb(0%,0%,0%);stroke-opacity:1;stroke-miterlimit:10;" d="M -0.000588956 -0.00133155 L -0.000588956 -33.136847 L 33.134927 -33.136847 " transform="matrix(0.749998,0,0,-0.749998,291.398879,278.975564)" />
</g><g id="Event_free_icon_G0Fau0q-24"><path style="fill:none;stroke-width:15;stroke-linecap:round;stroke-linejoin:round;stroke:rgb(0%,0%,0%);stroke-opacity:1;stroke-miterlimit:10;" d="M 0.00210371 0.000749749 L 33.137619 0.000749749 C 51.434549 0.000749749 66.273135 -14.832628 66.273135 -33.129558 L 66.273135 -286.250106 " transform="matrix(0.749998,0,0,-0.749998,266.549203,18.051344)" />
</g><g id="Event_free_icon_G0Fau0q-25"><path style="fill:none;stroke-width:15;stroke-linecap:round;stroke-linejoin:round;stroke:rgb(0%,0%,0%);stroke-opacity:1;stroke-miterlimit:10;" d="M 0.00000715948 0.000749749 L 82.833588 0.000749749 " transform="matrix(0.749998,0,0,-0.749998,179.574213,18.051344)" />
</g><g id="Event_free_icon_G0Fau0q-26"><path style="fill:none;stroke-width:15;stroke-linecap:round;stroke-linejoin:round;stroke:rgb(0%,0%,0%);stroke-opacity:1;stroke-miterlimit:10;" d="M 0.00211896 0.000749749 L 82.8357 0.000749749 " transform="matrix(0.749998,0,0,-0.749998,92.599973,18.051344)" />
</g><g id="Event_free_icon_G0Fau0q-27"><path style="fill:none;stroke-width:15;stroke-linecap:round;stroke-linejoin:round;stroke:rgb(0%,0%,0%);stroke-opacity:1;stroke-miterlimit:10;" d="M -0.000364135 0.00136112 L -57.984912 0.00136112 C -76.281842 0.00136112 -91.120428 14.834739 -91.120428 33.136877 L -91.120428 347.903442 C -91.120428 366.200372 -76.28705 381.03375 -57.984912 381.03375 L -24.849397 381.03375 " transform="matrix(0.749998,0,0,-0.749998,86.386992,303.82524)" />
</g><g id="Event_free_icon_G0Fau0q-28"><path style="fill:none;stroke-width:15;stroke-linecap:round;stroke-linejoin:round;stroke:rgb(0%,0%,0%);stroke-opacity:1;stroke-miterlimit:10;" d="M 0.00181926 0.00136112 L -142.910066 0.00136112 " transform="matrix(0.749998,0,0,-0.749998,216.072854,303.82524)" />
</g><g id="Event_free_icon_G0Fau0q-29"><path style="fill:none;stroke-width:15;stroke-linecap:round;stroke-linejoin:round;stroke:rgb(0%,0%,0%);stroke-opacity:1;stroke-miterlimit:10;" d="M -0.000396725 -0.00176594 C -0.000396725 -9.152835 7.416292 -16.569524 16.567361 -16.569524 C 25.71843 -16.569524 33.135119 -9.152835 33.135119 -0.00176594 L 33.135119 33.13375 C 33.135119 42.284819 25.71843 49.701508 16.567361 49.701508 C 7.416292 49.701508 -0.000396725 42.284819 -0.000396725 33.13375 Z M -0.000396725 -0.00176594 " transform="matrix(0.749998,0,0,-0.749998,67.750298,42.901019)" />
</g><g id="Event_free_icon_G0Fau0q-30"><path style="fill:none;stroke-width:15;stroke-linecap:round;stroke-linejoin:round;stroke:rgb(0%,0%,0%);stroke-opacity:1;stroke-miterlimit:10;" d="M -0.000411977 -0.00176594 C -0.000411977 -9.152835 7.416277 -16.569524 16.567346 -16.569524 C 25.718415 -16.569524 33.135104 -9.152835 33.135104 -0.00176594 L 33.135104 33.13375 C 33.135104 42.284819 25.718415 49.701508 16.567346 49.701508 C 7.416277 49.701508 -0.000411977 42.284819 -0.000411977 33.13375 Z M -0.000411977 -0.00176594 " transform="matrix(0.749998,0,0,-0.749998,241.699528,42.901019)" />
</g><g id="Event_free_icon_G0Fau0q-31"><path style="fill:none;stroke-width:15;stroke-linecap:round;stroke-linejoin:round;stroke:rgb(0%,0%,0%);stroke-opacity:1;stroke-miterlimit:10;" d="M -0.00250853 -0.00176594 C -0.00250853 -9.152835 7.41418 -16.569524 16.565249 -16.569524 C 25.716318 -16.569524 33.133007 -9.152835 33.133007 -0.00176594 L 33.133007 33.13375 C 33.133007 42.284819 25.716318 49.701508 16.565249 49.701508 C 7.419389 49.701508 -0.00250853 42.284819 -0.00250853 33.13375 Z M -0.00250853 -0.00176594 " transform="matrix(0.749998,0,0,-0.749998,154.724538,42.901019)" />
</g><g id="Event_free_icon_G0Fau0q-32"><path style="fill:none;stroke-width:15;stroke-linecap:round;stroke-linejoin:round;stroke:rgb(0%,0%,0%);stroke-opacity:1;stroke-miterlimit:10;" d="M 0.000780255 0.000168886 L 397.600927 0.000168886 " transform="matrix(0.749998,0,0,-0.749998,18.050196,80.175908)" />
</g><g id="Event_free_icon_G0Fau0q-33"><path style="fill:none;stroke-width:15;stroke-linecap:round;stroke-linejoin:round;stroke:rgb(0%,0%,0%);stroke-opacity:1;stroke-miterlimit:10;" d="M 0.000366897 -0.000411977 L -33.135149 -0.000411977 C -37.708079 -0.000411977 -41.416424 3.707932 -41.416424 8.280863 L -41.416424 41.416378 C -41.416424 45.989309 -37.708079 49.697653 -33.135149 49.697653 L 0.000366897 49.697653 C 4.573297 49.697653 8.281642 45.989309 8.281642 41.416378 L 8.281642 8.280863 C 8.281642 3.707932 4.573297 -0.000411977 0.000366897 -0.000411977 Z M 0.000366897 -0.000411977 " transform="matrix(0.749998,0,0,-0.749998,144.370819,142.300472)" />
</g><g id="Event_free_icon_G0Fau0q-34"><path style="fill:none;stroke-width:15;stroke-linecap:round;stroke-linejoin:round;stroke:rgb(0%,0%,0%);stroke-opacity:1;stroke-miterlimit:10;" d="M -0.00135258 -0.000411977 L -33.136868 -0.000411977 L -33.13166 -0.000411977 C -37.709799 -0.000411977 -41.418143 3.707932 -41.418143 8.280863 L -41.418143 41.416378 C -41.418143 45.989309 -37.709799 49.697653 -33.13166 49.697653 L -0.00135258 49.697653 C 4.576786 49.697653 8.285131 45.989309 8.285131 41.416378 L 8.285131 8.280863 C 8.285131 3.707932 4.576786 -0.000411977 -0.00135258 -0.000411977 Z M -0.00135258 -0.000411977 " transform="matrix(0.749998,0,0,-0.749998,214.778358,142.300472)" />
</g><g id="Event_free_icon_G0Fau0q-35"><path style="fill:none;stroke-width:15;stroke-linecap:round;stroke-linejoin:round;stroke:rgb(0%,0%,0%);stroke-opacity:1;stroke-miterlimit:10;" d="M 0.0011363 -0.000411977 L -33.134379 -0.000411977 C -37.70731 -0.000411977 -41.415654 3.707932 -41.415654 8.280863 L -41.415654 41.416378 C -41.415654 45.989309 -37.70731 49.697653 -33.134379 49.697653 L 0.0011363 49.697653 C 4.574067 49.697653 8.282411 45.989309 8.282411 41.416378 L 8.282411 8.280863 C 8.282411 3.707932 4.574067 -0.000411977 0.0011363 -0.000411977 Z M 0.0011363 -0.000411977 " transform="matrix(0.749998,0,0,-0.749998,285.186648,142.300472)" />
</g><g id="Event_free_icon_G0Fau0q-36"><path style="fill:none;stroke-width:15;stroke-linecap:round;stroke-linejoin:round;stroke:rgb(0%,0%,0%);stroke-opacity:1;stroke-miterlimit:10;" d="M 0.00133721 -0.000992841 L -33.701889 -0.000992841 C -38.118568 -0.000992841 -41.701912 3.582351 -41.701912 7.999031 L -41.701912 41.697048 C -41.701912 43.822055 -40.85816 45.853311 -39.358155 47.353315 C -37.858151 48.858528 -35.821687 49.697072 -33.701889 49.697072 L 0.00133721 49.697072 C 2.121135 49.697072 4.1576 48.858528 5.657604 47.353315 C 7.157609 45.853311 8.001361 43.822055 8.001361 41.697048 L 8.001361 7.999031 C 8.001361 5.879233 7.157609 3.842769 5.657604 2.342764 C 4.1576 0.84276 2.121135 -0.000992841 0.00133721 -0.000992841 Z M 0.00133721 -0.000992841 " transform="matrix(0.749998,0,0,-0.749998,74.174778,204.425037)" />
</g><g id="Event_free_icon_G0Fau0q-37"><path style="fill:none;stroke-width:15;stroke-linecap:round;stroke-linejoin:round;stroke:rgb(0%,0%,0%);stroke-opacity:1;stroke-miterlimit:10;" d="M -0.00138226 -0.000992841 L -33.6994 -0.000992841 C -38.116079 -0.000992841 -41.699424 3.582351 -41.699424 7.999031 L -41.699424 41.697048 C -41.699424 43.822055 -40.855671 45.853311 -39.355667 47.353315 C -37.855662 48.858528 -35.819198 49.697072 -33.6994 49.697072 L -0.00138226 49.697072 C 2.123624 49.697072 4.15488 48.858528 5.654885 47.353315 C 7.154889 45.853311 7.998642 43.822055 7.998642 41.697048 L 7.998642 7.999031 C 7.998642 5.879233 7.154889 3.842769 5.654885 2.342764 C 4.15488 0.84276 2.123624 -0.000992841 -0.00138226 -0.000992841 Z M -0.00138226 -0.000992841 " transform="matrix(0.749998,0,0,-0.749998,144.583068,204.425037)" />
</g><g id="Event_free_icon_G0Fau0q-38"><path style="fill:none;stroke-width:15;stroke-linecap:round;stroke-linejoin:round;stroke:rgb(0%,0%,0%);stroke-opacity:1;stroke-miterlimit:10;" d="M 0.00110661 -0.000992841 L -33.702119 -0.000992841 C -38.118799 -0.000992841 -41.702143 3.582351 -41.702143 7.999031 L -41.702143 41.697048 C -41.702143 43.822055 -40.85839 45.853311 -39.358386 47.353315 C -37.858382 48.858528 -35.821917 49.697072 -33.702119 49.697072 L 0.00110661 49.697072 C 2.120905 49.697072 4.157369 48.858528 5.657374 47.353315 C 7.157378 45.853311 8.001131 43.822055 8.001131 41.697048 L 8.001131 7.999031 C 8.001131 5.879233 7.157378 3.842769 5.657374 2.342764 C 4.157369 0.84276 2.120905 -0.000992841 0.00110661 -0.000992841 Z M 0.00110661 -0.000992841 " transform="matrix(0.749998,0,0,-0.749998,214.991358,204.425037)" />
</g><g id="Event_free_icon_G0Fau0q-39"><path style="fill:none;stroke-width:15;stroke-linecap:round;stroke-linejoin:round;stroke:rgb(0%,0%,0%);stroke-opacity:1;stroke-miterlimit:10;" d="M -0.00138226 -0.000573704 L -33.6994 -0.000573704 C -38.116079 -0.000573704 -41.699424 3.58277 -41.699424 7.99945 L -41.699424 41.697468 C -41.699424 43.822474 -40.855671 45.858938 -39.355667 47.358943 C -37.855662 48.858947 -35.819198 49.697491 -33.6994 49.697491 L -0.00138226 49.697491 C 2.123624 49.697491 4.15488 48.858947 5.654885 47.358943 C 7.154889 45.858938 7.998642 43.822474 7.998642 41.697468 L 7.998642 7.99945 C 7.998642 5.879652 7.154889 3.843188 5.654885 2.343183 C 4.15488 0.843179 2.123624 -0.000573704 -0.00138226 -0.000573704 Z M -0.00138226 -0.000573704 " transform="matrix(0.749998,0,0,-0.749998,144.583068,266.550351)" />
</g><g id="Event_free_icon_G0Fau0q-40"><path style="fill:none;stroke-width:15;stroke-linecap:round;stroke-linejoin:round;stroke:rgb(0%,0%,0%);stroke-opacity:1;stroke-miterlimit:10;" d="M -0.000612863 -0.000992841 L -33.69863 -0.000992841 C -38.120518 -0.000992841 -41.698654 3.582351 -41.698654 7.999031 L -41.698654 41.697048 C -41.698654 43.822055 -40.854902 45.853311 -39.354897 47.353315 C -37.854893 48.858528 -35.823637 49.697072 -33.69863 49.697072 L -0.000612863 49.697072 C 2.119185 49.697072 4.15565 48.858528 5.655654 47.353315 C 7.155659 45.853311 7.999411 43.822055 7.999411 41.697048 L 7.999411 7.999031 C 7.999411 5.879233 7.155659 3.842769 5.655654 2.342764 C 4.15565 0.84276 2.119185 -0.000992841 -0.000612863 -0.000992841 Z M -0.000612863 -0.000992841 " transform="matrix(0.749998,0,0,-0.749998,285.398897,204.425037)" />
</g><g id="Event_free_icon_G0Fau0q-41"><path style="fill:none;stroke-width:15;stroke-linecap:round;stroke-linejoin:round;stroke:rgb(0%,0%,0%);stroke-opacity:1;stroke-miterlimit:10;" d="M 0.00133721 -0.000573704 L -33.701889 -0.000573704 C -38.118568 -0.000573704 -41.701912 3.58277 -41.701912 7.99945 L -41.701912 41.697468 C -41.701912 43.822474 -40.85816 45.858938 -39.358155 47.358943 C -37.858151 48.858947 -35.821687 49.697491 -33.701889 49.697491 L 0.00133721 49.697491 C 2.121135 49.697491 4.1576 48.858947 5.657604 47.358943 C 7.157609 45.858938 8.001361 43.822474 8.001361 41.697468 L 8.001361 7.99945 C 8.001361 5.879652 7.157609 3.843188 5.657604 2.343183 C 4.1576 0.843179 2.121135 -0.000573704 0.00133721 -0.000573704 Z M 0.00133721 -0.000573704 " transform="matrix(0.749998,0,0,-0.749998,74.174778,266.550351)" />
</g></g>
</svg>