<svg xmlns="http://www.w3.org/2000/svg" width="384pt" height="384pt" viewBox="0 0 384 384" version="1.1" class="iconadda">
<g id="surface475389">
<g id="Like_free_icon_CfVy6NW-0"><path style=" stroke:none;fill-rule:nonzero;fill:rgb(100%,28.627451%,28.627451%);fill-opacity:1;" d="M 273.375 0 C 243.402344 0 213.808594 12.097656 192.003906 32.839844 C 170.195312 12.097656 140.601562 0 110.625 0 C 48.59375 0 0 48.59375 0 110.625 C 0 183.128906 83.578125 262.941406 184.550781 352.226562 C 186.605469 354.046875 189.257812 355.050781 192.003906 355.046875 C 194.667969 355.046875 197.328125 354.105469 199.457031 352.226562 C 300.421875 262.933594 384 183.121094 384 110.625 C 384 48.59375 335.40625 0 273.375 0 Z M 273.375 0 " />
</g><g id="Like_free_icon_CfVy6NW-1"><path style=" stroke:none;fill-rule:nonzero;fill:rgb(95.294118%,0%,31.764706%);fill-opacity:1;" d="M 273.375 0 C 243.402344 0 213.808594 12.097656 192.003906 32.839844 L 191.992188 32.828125 L 191.992188 355.050781 L 192.003906 355.050781 C 194.667969 355.050781 197.328125 354.109375 199.457031 352.226562 C 300.421875 262.933594 384 183.121094 384 110.625 C 384 48.59375 335.40625 0 273.375 0 Z M 273.375 0 " />
</g></g>
</svg>