<svg xmlns="http://www.w3.org/2000/svg" width="384pt" height="384pt" viewBox="0 0 384 384" version="1.1">
<g id="surface222095">
<g id="Order-free-icon-0"><g id="Order_free_icon_haXUE8J-0"><path style=" stroke:none;fill-rule:nonzero;fill:rgb(100%,74.509804%,23.137255%);fill-opacity:1;" d="M 68.210938 61.375 L 245.324219 61.375 L 245.324219 307.15625 L 68.210938 307.15625 Z M 68.210938 61.375 " />
</g></g><g id="Order-free-icon-1"><g id="Order_free_icon_haXUE8J-1"><path style=" stroke:none;fill-rule:nonzero;fill:rgb(86.666667%,86.666667%,86.666667%);fill-opacity:1;" d="M 91.359375 84.519531 L 222.179688 84.519531 L 222.179688 284.003906 L 91.359375 284.003906 Z M 91.359375 84.519531 " />
</g></g><g id="Order-free-icon-2"><g id="Order_free_icon_haXUE8J-2"><path style=" stroke:none;fill-rule:nonzero;fill:rgb(67.843137%,67.843137%,67.843137%);fill-opacity:1;" d="M 184.390625 35.789062 L 129.148438 35.789062 C 123.941406 35.789062 119.722656 40.011719 119.722656 45.214844 L 119.722656 65.425781 L 193.824219 65.425781 L 193.824219 45.214844 L 193.820312 45.214844 C 193.820312 42.714844 192.828125 40.316406 191.058594 38.546875 C 189.289062 36.78125 186.890625 35.789062 184.390625 35.789062 Z M 184.390625 35.789062 " />
</g></g><g id="Order-free-icon-3"><g id="Order_free_icon_haXUE8J-3"><path style=" stroke:none;fill-rule:nonzero;fill:rgb(37.647059%,37.647059%,37.647059%);fill-opacity:1;" d="M 114.433594 50.894531 L 199.101562 50.894531 C 204.996094 50.894531 209.773438 56.789062 209.773438 61.566406 L 209.773438 84.679688 C 209.773438 90.574219 204.996094 95.351562 199.101562 95.351562 L 114.433594 95.351562 C 108.539062 95.351562 103.761719 89.457031 103.761719 84.679688 L 103.761719 61.566406 C 103.761719 55.671875 108.539062 50.894531 114.433594 50.894531 Z M 114.433594 50.894531 " />
</g></g><g id="Order-free-icon-4"><g id="Order_free_icon_haXUE8J-4"><path style=" stroke:none;fill-rule:nonzero;fill:rgb(80%,77.647059%,77.647059%);fill-opacity:1;" d="M 195.652344 138.84375 C 198.550781 138.84375 200.902344 136.492188 200.902344 133.59375 C 200.902344 130.695312 198.550781 128.34375 195.652344 128.34375 L 117.898438 128.34375 C 115 128.34375 112.648438 130.695312 112.648438 133.59375 C 112.648438 136.492188 115 138.84375 117.898438 138.84375 Z M 195.652344 167.914062 C 198.550781 167.914062 200.902344 165.5625 200.902344 162.664062 C 200.902344 159.761719 198.550781 157.414062 195.652344 157.414062 L 117.898438 157.414062 C 115 157.414062 112.648438 159.761719 112.648438 162.664062 C 112.648438 165.5625 115 167.914062 117.898438 167.914062 Z M 195.652344 196.980469 C 198.550781 196.980469 200.902344 194.628906 200.902344 191.730469 C 200.902344 188.832031 198.550781 186.480469 195.652344 186.480469 L 117.898438 186.480469 C 115 186.480469 112.648438 188.832031 112.648438 191.730469 C 112.648438 194.628906 115 196.980469 117.898438 196.980469 Z M 167.425781 226.050781 C 170.324219 226.050781 172.675781 223.699219 172.675781 220.800781 C 172.675781 217.902344 170.324219 215.550781 167.425781 215.550781 L 117.898438 215.550781 C 115 215.550781 112.648438 217.902344 112.648438 220.800781 C 112.648438 223.699219 115 226.050781 117.898438 226.050781 Z M 151.832031 255.117188 C 154.734375 255.117188 157.082031 252.765625 157.082031 249.867188 C 157.082031 246.96875 154.734375 244.617188 151.832031 244.617188 L 117.898438 244.617188 C 115 244.617188 112.648438 246.96875 112.648438 249.867188 C 112.648438 252.765625 115 255.117188 117.898438 255.117188 Z M 151.832031 255.117188 " />
</g></g><g id="Order-free-icon-5"><g id="Order_free_icon_haXUE8J-5"><path style=" stroke:none;fill-rule:nonzero;fill:rgb(43.529412%,81.960784%,18.823529%);fill-opacity:1;" d="M 315.789062 277.746094 C 315.789062 316.664062 284.242188 348.210938 245.324219 348.210938 C 206.410156 348.210938 174.859375 316.664062 174.859375 277.746094 C 174.859375 238.828125 206.410156 207.28125 245.324219 207.28125 C 284.242188 207.28125 315.789062 238.828125 315.789062 277.746094 " />
</g></g><g id="Order-free-icon-6"><g id="Order_free_icon_haXUE8J-6"><path style=" stroke:none;fill-rule:nonzero;fill:rgb(93.72549%,93.72549%,93.72549%);fill-opacity:1;" d="M 241.410156 307.734375 L 290.417969 258.722656 C 293.445312 255.695312 293.445312 250.785156 290.417969 247.757812 C 287.390625 244.730469 282.480469 244.730469 279.453125 247.757812 L 235.925781 291.300781 L 211.199219 266.554688 C 208.171875 263.527344 203.261719 263.527344 200.234375 266.554688 C 197.207031 269.582031 197.207031 274.492188 200.234375 277.519531 L 230.445312 307.734375 C 233.472656 310.761719 238.382812 310.761719 241.410156 307.734375 Z M 241.410156 307.734375 " />
</g></g></g>
</svg>