<svg xmlns="http://www.w3.org/2000/svg" width="150pt" height="150pt" viewBox="0 0 150 150" version="1.1" class="iconadda">
<g>
<g id="Pin_Drop_NKqJPVM-0"><path style="fill:none;stroke-width:2;stroke-linecap:round;stroke-linejoin:round;stroke:rgb(17.254902%,66.27451%,73.72549%);stroke-opacity:1;stroke-miterlimit:4;" d="M 12 8 L 12 8 " transform="matrix(6.25,0,0,6.25,0,0)" />
</g><g id="Pin_Drop_NKqJPVM-1"><path style="fill:none;stroke-width:2;stroke-linecap:round;stroke-linejoin:round;stroke:rgb(17.254902%,66.27451%,73.72549%);stroke-opacity:1;stroke-miterlimit:4;" d="M 15.93 18.64 C 15.9775 18.754375 16.00125 18.87625 16 19 C 16 20.1 14.21 21 12 21 C 9.79 21 8 20.1 8 19 C 7.99875 18.87625 8.0225 18.754375 8.07 18.64 " transform="matrix(6.25,0,0,6.25,0,0)" />
</g><g id="Pin_Drop_NKqJPVM-2"><path style="fill:none;stroke-width:2;stroke-linecap:round;stroke-linejoin:round;stroke:rgb(0%,0%,0%);stroke-opacity:1;stroke-miterlimit:4;" d="M 17 8 C 17 6.21375 16.046875 4.563125 14.5 3.67 C 12.953125 2.776875 11.046875 2.776875 9.5 3.67 C 7.953125 4.563125 7 6.21375 7 8 C 7 12 12 17 12 17 C 12 17 17 12 17 8 Z M 17 8 " transform="matrix(6.25,0,0,6.25,0,0)" />
</g></g>
</svg>