<svg xmlns="http://www.w3.org/2000/svg" width="150pt" height="150pt" viewBox="0 0 150 150" version="1.1" class="iconadda">
<g>
<g id="Search_VBlur2H-0"><path style=" stroke:none;fill-rule:evenodd;fill:#080341;fill-opacity:1;" d="M 93.75 65.625 C 93.75 81.15625 81.15625 93.75 65.625 93.75 C 50.09375 93.75 37.5 81.15625 37.5 65.625 C 37.5 50.09375 50.09375 37.5 65.625 37.5 C 81.15625 37.5 93.75 50.09375 93.75 65.625 Z M 88.621094 95.25 C 82.269531 100.1875 74.289062 103.125 65.625 103.125 C 44.914062 103.125 28.125 86.335938 28.125 65.625 C 28.125 44.914062 44.914062 28.125 65.625 28.125 C 86.335938 28.125 103.125 44.914062 103.125 65.625 C 103.125 74.289062 100.1875 82.269531 95.25 88.621094 L 125.191406 118.5625 L 118.5625 125.1875 Z M 88.621094 95.25 " />
</g></g>
</svg>