<svg xmlns="http://www.w3.org/2000/svg" width="384pt" height="384pt" viewBox="0 0 384 384" version="1.1" class="iconadda">
<g>
<g id="Search_free_icon_YzmEkho-0"><path style=" stroke:none;fill-rule:nonzero;fill:#e54c3d;fill-opacity:1;" d="M 274.570312 242.429688 L 292.109375 258.539062 L 375.769531 335.863281 C 380.699219 340.394531 383.824219 346.554688 384.566406 353.210938 C 385.304688 359.867188 383.609375 366.566406 379.796875 372.070312 C 375.980469 377.574219 370.300781 381.511719 363.808594 383.152344 C 358.964844 384.378906 353.875 384.273438 349.085938 382.84375 C 344.296875 381.414062 339.984375 378.714844 336.601562 375.03125 L 259.277344 291.371094 L 243.167969 273.835938 " />
</g><g id="Search_free_icon_YzmEkho-1"><path style=" stroke:none;fill-rule:nonzero;fill:#d0d4d1;fill-opacity:1;" d="M 292.121094 258.546875 C 290.324219 266.570312 286.285156 273.917969 280.46875 279.734375 C 274.652344 285.546875 267.304688 289.589844 259.28125 291.386719 L 243.191406 273.839844 L 243.125 273.773438 L 243.128906 273.769531 C 255.117188 264.960938 265.699219 254.378906 274.511719 242.390625 L 274.578125 242.457031 Z M 292.121094 258.546875 " />
</g><g id="Search_free_icon_YzmEkho-2"><path style=" stroke:none;fill-rule:nonzero;fill:#e5e6e8;fill-opacity:1;" d="M 259.996094 44.484375 C 319.304688 103.792969 319.304688 199.949219 259.996094 259.257812 C 200.6875 318.566406 104.527344 318.566406 45.21875 259.257812 C -14.089844 199.949219 -14.089844 103.789062 45.21875 44.480469 C 104.527344 -14.828125 200.6875 -14.828125 259.996094 44.480469 Z M 259.996094 44.484375 " />
</g><g id="Search_free_icon_YzmEkho-3"><path style=" stroke:none;fill-rule:nonzero;fill:#8fb9e1;fill-opacity:1;" d="M 278.019531 151.882812 C 278.042969 202.304688 247.847656 247.832031 201.390625 267.425781 C 154.929688 287.023438 101.25 276.871094 65.160156 241.660156 C 64.761719 241.328125 64.367188 240.929688 63.96875 240.535156 C 29.730469 206.261719 18.285156 155.335938 34.574219 109.710938 C 50.863281 64.085938 91.96875 31.921875 140.171875 27.078125 C 144.308594 26.679688 148.464844 26.480469 152.621094 26.484375 C 185.890625 26.445312 217.808594 39.644531 241.332031 63.167969 C 264.859375 86.695312 278.058594 118.613281 278.015625 151.882812 Z M 278.019531 151.882812 " />
</g><g id="Search_free_icon_YzmEkho-4"><path style=" stroke:none;fill-rule:nonzero;fill:#b0d2e0;fill-opacity:1;" d="M 271.925781 113.148438 C 149.773438 123.144531 91.046875 194.253906 65.160156 241.660156 C 64.761719 241.328125 64.367188 240.929688 63.96875 240.535156 C 29.730469 206.261719 18.285156 155.335938 34.574219 109.710938 C 50.863281 64.085938 91.96875 31.921875 140.171875 27.078125 C 144.308594 26.679688 148.464844 26.480469 152.621094 26.484375 C 206.945312 26.542969 255.078125 61.507812 271.925781 113.152344 Z M 271.925781 113.148438 " />
</g><g id="Search_free_icon_YzmEkho-5"><path style=" stroke:none;fill-rule:nonzero;fill:#35495e;fill-opacity:1;" d="M 245.707031 219.976562 L 245.707031 234.050781 C 243.785156 236.441406 241.734375 238.6875 239.550781 240.957031 C 220.160156 261.125 194.375 273.949219 166.589844 277.25 L 166.257812 274.65625 L 160.429688 220.800781 L 145.597656 220.800781 L 139.769531 274.65625 L 139.4375 277.304688 L 139.441406 277.300781 C 111.363281 274.1875 85.261719 261.324219 65.6875 240.945312 C 63.832031 239.023438 62.039062 237.039062 60.324219 234.988281 L 60.324219 219.976562 C 60.121094 207.488281 64.890625 195.429688 73.585938 186.457031 C 82.277344 177.484375 94.179688 172.332031 106.671875 172.140625 L 117.597656 172.140625 C 119.101562 172.140625 120.554688 172.671875 121.703125 173.644531 L 144.742188 192.667969 L 144.738281 192.667969 C 145.785156 193.542969 146.972656 194.238281 148.25 194.71875 L 158.511719 194.375 C 159.515625 193.9375 160.449219 193.363281 161.292969 192.667969 L 184.332031 173.671875 C 185.476562 172.691406 186.929688 172.148438 188.4375 172.140625 L 199.363281 172.140625 C 211.855469 172.332031 223.757812 177.484375 232.449219 186.457031 C 241.144531 195.425781 245.914062 207.488281 245.707031 219.976562 Z M 245.707031 219.976562 " />
</g><g id="Search_free_icon_YzmEkho-6"><path style=" stroke:none;fill-rule:nonzero;fill:#fcd6ad;fill-opacity:1;" d="M 199.363281 105.933594 C 199.363281 131.527344 178.613281 152.28125 153.015625 152.28125 C 127.421875 152.28125 106.667969 131.53125 106.667969 105.933594 C 106.667969 80.335938 127.417969 59.585938 153.015625 59.585938 C 178.613281 59.585938 199.363281 80.335938 199.363281 105.933594 Z M 199.363281 105.933594 " />
</g><g id="Search_free_icon_YzmEkho-7"><path style=" stroke:none;fill-rule:nonzero;fill:#c0392b;fill-opacity:1;" d="M 166.589844 277.25 C 157.574219 278.328125 148.464844 278.351562 139.441406 277.3125 L 139.773438 274.664062 L 145.601562 220.8125 L 160.433594 220.8125 L 166.261719 274.652344 Z M 166.589844 277.25 " />
</g><g id="Search_free_icon_YzmEkho-8"><path style=" stroke:none;fill-rule:nonzero;fill:#e54c3d;fill-opacity:1;" d="M 138.972656 203.300781 L 148.335938 193.941406 C 149.578125 192.699219 151.261719 192 153.015625 192 C 154.769531 192 156.453125 192.699219 157.695312 193.941406 L 167.058594 203.300781 C 169.644531 205.886719 169.644531 210.082031 167.058594 212.664062 L 157.695312 222.027344 C 156.457031 223.269531 154.773438 223.96875 153.015625 223.96875 C 151.261719 223.96875 149.578125 223.269531 148.335938 222.027344 L 138.972656 212.664062 C 136.386719 210.082031 136.386719 205.886719 138.972656 203.300781 Z M 138.972656 203.300781 " />
</g></g>
</svg>