<svg xmlns="http://www.w3.org/2000/svg" width="384pt" height="384pt" viewBox="0 0 384 384" version="1.1" class="iconadda">
<g>
<g id="Shopping_Cart_free_icon_3_dhrum39-0"><path style=" stroke:none;fill-rule:nonzero;fill:#e0e0e4;fill-opacity:1;" d="M 59.492188 115.953125 L 358.949219 115.953125 L 313.335938 254.851562 L 59.492188 254.851562 Z M 59.492188 115.953125 " />
</g><g id="Shopping_Cart_free_icon_3_dhrum39-1"><path style=" stroke:none;fill-rule:nonzero;fill:#d8d8dc;fill-opacity:1;" d="M 294.144531 212.808594 C 306.296875 212.808594 317.992188 210.867188 328.949219 207.296875 L 358.945312 115.949219 L 182.988281 115.953125 C 190.472656 170.660156 237.382812 212.8125 294.144531 212.8125 Z M 294.144531 212.808594 " />
</g><g id="Shopping_Cart_free_icon_3_dhrum39-2"><path style=" stroke:none;fill-rule:nonzero;fill:#adacb3;fill-opacity:1;" d="M 344.472656 156.496094 L 296.238281 156.496094 L 309.960938 117.878906 L 309.964844 117.882812 C 310.984375 114.894531 309.414062 111.644531 306.4375 110.585938 C 303.464844 109.527344 300.191406 111.058594 299.097656 114.019531 L 284 156.496094 L 239.128906 156.496094 L 252.851562 117.878906 L 252.855469 117.882812 C 253.875 114.894531 252.304688 111.640625 249.332031 110.585938 C 246.355469 109.527344 243.085938 111.058594 241.992188 114.019531 L 226.894531 156.496094 L 182.023438 156.496094 L 195.746094 117.878906 L 195.75 117.882812 C 196.769531 114.894531 195.199219 111.640625 192.222656 110.585938 C 189.25 109.527344 185.976562 111.058594 184.882812 114.019531 L 169.785156 156.496094 L 124.914062 156.496094 L 138.636719 117.878906 L 138.640625 117.878906 C 139.660156 114.894531 138.089844 111.640625 135.117188 110.582031 C 132.140625 109.527344 128.871094 111.058594 127.777344 114.019531 L 112.679688 156.496094 L 59.492188 156.496094 C 56.308594 156.496094 53.726562 159.078125 53.726562 162.261719 C 53.726562 165.445312 56.308594 168.027344 59.492188 168.027344 L 108.582031 168.027344 L 96.21875 202.808594 L 59.492188 202.804688 C 56.308594 202.804688 53.726562 205.386719 53.726562 208.570312 C 53.726562 211.753906 56.308594 214.335938 59.492188 214.335938 L 92.121094 214.335938 L 78.398438 252.953125 L 78.398438 252.949219 C 77.390625 255.933594 78.964844 259.171875 81.929688 260.226562 C 84.894531 261.277344 88.15625 259.761719 89.261719 256.8125 L 104.359375 214.335938 L 149.230469 214.335938 L 135.507812 252.953125 L 135.503906 252.953125 C 134.5 255.933594 136.070312 259.171875 139.039062 260.226562 C 142.003906 261.28125 145.265625 259.761719 146.367188 256.8125 L 161.464844 214.335938 L 206.335938 214.335938 L 192.613281 252.953125 L 192.609375 252.953125 C 191.605469 255.933594 193.179688 259.171875 196.144531 260.226562 C 199.109375 261.28125 202.371094 259.761719 203.476562 256.8125 L 218.574219 214.335938 L 263.445312 214.335938 L 249.722656 252.953125 L 249.71875 252.953125 C 248.714844 255.9375 250.285156 259.171875 253.25 260.226562 C 256.21875 261.28125 259.480469 259.761719 260.582031 256.816406 L 275.679688 214.339844 L 330.21875 214.339844 C 333.40625 214.339844 335.984375 211.757812 335.984375 208.574219 C 335.984375 205.390625 333.40625 202.808594 330.21875 202.808594 L 279.777344 202.808594 L 292.140625 168.027344 L 344.472656 168.027344 C 347.65625 168.027344 350.238281 165.449219 350.238281 162.261719 C 350.238281 160.734375 349.628906 159.269531 348.550781 158.1875 C 347.46875 157.105469 346.003906 156.496094 344.472656 156.496094 Z M 108.457031 202.808594 L 120.820312 168.027344 L 165.691406 168.027344 L 153.328125 202.808594 Z M 165.566406 202.808594 L 177.929688 168.027344 L 222.800781 168.027344 L 210.4375 202.808594 Z M 267.542969 202.808594 L 222.671875 202.808594 L 235.035156 168.027344 L 279.90625 168.027344 Z M 267.542969 202.808594 " />
</g><g id="Shopping_Cart_free_icon_3_dhrum39-3"><path style=" stroke:none;fill-rule:nonzero;fill:#86858e;fill-opacity:1;" d="M 341.878906 168.027344 L 345.628906 156.605469 L 345.628906 156.609375 C 345.257812 156.535156 344.882812 156.5 344.503906 156.496094 L 296.273438 156.496094 L 309.996094 117.878906 C 310.222656 117.242188 310.324219 116.589844 310.324219 115.949219 L 298.445312 115.949219 L 284.035156 156.496094 L 239.164062 156.496094 L 252.886719 117.878906 C 253.113281 117.242188 253.214844 116.589844 253.214844 115.949219 L 241.335938 115.949219 L 226.925781 156.496094 L 196.871094 156.496094 C 199.171875 160.496094 201.71875 164.34375 204.496094 168.027344 L 222.828125 168.027344 L 217.636719 182.636719 C 220.636719 185.4375 223.785156 188.070312 227.070312 190.527344 L 235.066406 168.027344 L 279.9375 168.027344 L 267.574219 202.808594 L 247.824219 202.808594 C 261.953125 209.230469 277.648438 212.808594 294.179688 212.808594 C 306.332031 212.808594 318.027344 210.867188 328.984375 207.296875 L 330.457031 202.816406 C 330.390625 202.8125 330.324219 202.808594 330.257812 202.808594 L 279.816406 202.808594 L 292.179688 168.027344 L 341.882812 168.027344 Z M 183.375 118.351562 C 184.460938 125.171875 186.171875 131.875 188.496094 138.375 L 195.78125 117.882812 C 196.007812 117.246094 196.109375 116.59375 196.109375 115.953125 L 184.230469 115.953125 L 183.378906 118.351562 Z M 183.375 118.351562 " />
</g><g id="Shopping_Cart_free_icon_3_dhrum39-4"><path style=" stroke:none;fill-rule:nonzero;fill:#4b5be6;fill-opacity:1;" d="M 59.332031 292.453125 C 56.144531 292.453125 53.566406 289.875 53.566406 286.691406 L 53.566406 75.894531 C 53.566406 65.625 45.210938 57.269531 34.941406 57.269531 L 5.765625 57.269531 L 5.765625 57.273438 C 2.605469 57.238281 0.0664062 54.667969 0.0664062 51.507812 C 0.0664062 48.347656 2.605469 45.777344 5.765625 45.742188 L 34.941406 45.742188 C 51.570312 45.742188 65.097656 59.269531 65.097656 75.898438 L 65.097656 286.691406 L 65.09375 286.691406 C 65.09375 288.21875 64.488281 289.683594 63.40625 290.765625 C 62.324219 291.847656 60.859375 292.457031 59.332031 292.453125 Z M 59.332031 292.453125 " />
</g><g id="Shopping_Cart_free_icon_3_dhrum39-5"><path style=" stroke:none;fill-rule:nonzero;fill:#56545c;fill-opacity:1;" d="M 368.574219 117.882812 C 369.203125 116.117188 368.933594 114.15625 367.851562 112.628906 C 366.773438 111.097656 365.015625 110.1875 363.140625 110.1875 L 59.332031 110.1875 C 56.144531 110.1875 53.566406 112.765625 53.566406 115.953125 L 53.566406 254.886719 C 53.566406 258.070312 56.144531 260.652344 59.332031 260.652344 L 303.609375 260.652344 C 294.320312 273.195312 279.425781 280.925781 263.507812 280.925781 L 59.519531 280.921875 C 39.160156 280.921875 22.597656 297.484375 22.597656 317.84375 L 22.597656 318.300781 C 22.597656 338.660156 39.160156 355.222656 59.519531 355.222656 L 271.914062 355.222656 L 271.914062 355.226562 C 275.097656 355.226562 277.679688 352.644531 277.679688 349.460938 C 277.679688 346.277344 275.097656 343.695312 271.914062 343.695312 L 59.519531 343.695312 C 45.519531 343.695312 34.128906 332.304688 34.128906 318.304688 L 34.128906 317.847656 C 34.128906 303.847656 45.519531 292.457031 59.519531 292.457031 L 263.507812 292.457031 C 287.101562 292.457031 308.875 278.679688 318.976562 257.355469 C 319.058594 257.179688 319.132812 257.003906 319.195312 256.824219 L 319.199219 256.820312 L 319.199219 256.816406 L 319.203125 256.804688 L 368.578125 117.882812 Z M 65.09375 121.71875 L 354.972656 121.71875 L 309.691406 249.121094 L 65.09375 249.121094 Z M 65.09375 121.71875 " />
</g><g id="Shopping_Cart_free_icon_3_dhrum39-6"><path style=" stroke:none;fill-rule:nonzero;fill:#0087ff;fill-opacity:1;" d="M 296.183594 349.460938 C 296.183594 362.867188 285.316406 373.734375 271.914062 373.734375 C 258.507812 373.734375 247.640625 362.867188 247.640625 349.460938 C 247.640625 336.058594 258.507812 325.191406 271.914062 325.191406 C 285.316406 325.191406 296.183594 336.058594 296.183594 349.460938 " />
</g><g id="Shopping_Cart_free_icon_3_dhrum39-7"><path style=" stroke:none;fill-rule:nonzero;fill:#0087ff;fill-opacity:1;" d="M 127.832031 349.460938 C 127.832031 362.867188 116.964844 373.734375 103.558594 373.734375 C 90.15625 373.734375 79.289062 362.867188 79.289062 349.460938 C 79.289062 336.058594 90.15625 325.191406 103.558594 325.191406 C 116.964844 325.191406 127.832031 336.058594 127.832031 349.460938 " />
</g><g id="Shopping_Cart_free_icon_3_dhrum39-8"><path style=" stroke:none;fill-rule:nonzero;fill:#006ef5;fill-opacity:1;" d="M 283.496094 349.460938 C 283.496094 355.859375 278.308594 361.046875 271.914062 361.046875 C 265.515625 361.046875 260.328125 355.859375 260.328125 349.460938 C 260.328125 343.0625 265.515625 337.878906 271.914062 337.878906 C 278.308594 337.878906 283.496094 343.0625 283.496094 349.460938 " />
</g><g id="Shopping_Cart_free_icon_3_dhrum39-9"><path style=" stroke:none;fill-rule:nonzero;fill:#006ef5;fill-opacity:1;" d="M 115.144531 349.460938 C 115.144531 355.859375 109.957031 361.046875 103.558594 361.046875 C 97.160156 361.046875 91.976562 355.859375 91.976562 349.460938 C 91.976562 343.0625 97.160156 337.878906 103.558594 337.878906 C 109.957031 337.878906 115.144531 343.0625 115.144531 349.460938 " />
</g><g id="Shopping_Cart_free_icon_3_dhrum39-10"><path style=" stroke:none;fill-rule:nonzero;fill:#3c3b41;fill-opacity:1;" d="M 363.140625 110.1875 L 182.351562 110.1875 C 182.675781 114.054688 183.203125 117.90625 183.929688 121.71875 L 354.972656 121.71875 L 324.03125 208.78125 C 328.789062 207.46875 333.457031 205.84375 337.996094 203.914062 L 368.574219 117.882812 C 369.203125 116.117188 368.933594 114.160156 367.851562 112.628906 C 366.773438 111.097656 365.015625 110.1875 363.140625 110.1875 Z M 363.140625 110.1875 " />
</g><g id="Shopping_Cart_free_icon_3_dhrum39-11"><path style=" stroke:none;fill-rule:nonzero;fill:#4b5be6;fill-opacity:1;" d="M 384 100.605469 C 384 150.496094 343.554688 190.941406 293.664062 190.941406 C 243.769531 190.941406 203.324219 150.496094 203.324219 100.605469 C 203.324219 50.710938 243.769531 10.265625 293.664062 10.265625 C 343.554688 10.265625 384 50.710938 384 100.605469 " />
</g><g id="Shopping_Cart_free_icon_3_dhrum39-12"><path style=" stroke:none;fill-rule:nonzero;fill:#394ce4;fill-opacity:1;" d="M 293.664062 10.265625 C 288.472656 10.265625 283.386719 10.710938 278.433594 11.550781 C 321.074219 18.789062 353.542969 55.902344 353.542969 100.601562 C 353.542969 145.304688 321.074219 182.414062 278.433594 189.65625 C 283.464844 190.507812 288.558594 190.941406 293.664062 190.941406 C 343.554688 190.941406 384 150.496094 384 100.601562 C 384 50.710938 343.554688 10.265625 293.664062 10.265625 Z M 293.664062 10.265625 " />
</g><g id="Shopping_Cart_free_icon_3_dhrum39-13"><path style=" stroke:none;fill-rule:nonzero;fill:#fe72a0;fill-opacity:1;" d="M 351.128906 53.234375 L 314.921875 53.234375 C 314.921875 53.328125 314.929688 53.421875 314.929688 53.515625 C 314.929688 62.972656 307.265625 70.636719 297.808594 70.636719 C 288.351562 70.636719 280.6875 62.972656 280.6875 53.515625 C 280.6875 53.421875 280.695312 53.328125 280.695312 53.234375 L 244.484375 53.234375 C 243.085938 53.234375 241.949219 54.367188 241.949219 55.765625 L 241.949219 77.085938 C 241.949219 78.484375 243.085938 79.617188 244.484375 79.617188 L 256.035156 79.617188 L 256.03125 79.617188 C 257.808594 79.617188 259.507812 80.324219 260.761719 81.578125 C 262.015625 82.832031 262.722656 84.53125 262.722656 86.308594 L 262.722656 151.683594 C 262.722656 154.046875 264.640625 155.964844 267.003906 155.964844 L 328.609375 155.964844 C 330.976562 155.964844 332.894531 154.046875 332.894531 151.683594 L 332.894531 86.308594 C 332.894531 82.613281 335.886719 79.617188 339.582031 79.617188 L 351.132812 79.617188 C 352.53125 79.617188 353.664062 78.484375 353.664062 77.085938 L 353.664062 55.765625 C 353.664062 54.367188 352.527344 53.234375 351.128906 53.234375 Z M 351.128906 53.234375 " />
</g></g>
</svg>