<svg xmlns="http://www.w3.org/2000/svg" width="384pt" height="384pt" viewBox="0 0 384 384" version="1.1" class="iconadda">
<g>
<g id="Shirt_free_icon_XrJovK5-0"><path style=" stroke:none;fill-rule:nonzero;fill:#80b823;fill-opacity:1;" d="M 247.210938 30.953125 L 192 43.222656 L 136.789062 30.953125 L 151.105469 0 L 232.898438 0 Z M 247.210938 30.953125 " />
</g><g id="Shirt_free_icon_XrJovK5-1"><path style=" stroke:none;fill-rule:nonzero;fill:#a2e52f;fill-opacity:1;" d="M 380.046875 160.253906 L 365.75 128.3125 L 357.699219 128.113281 L 343.550781 100.167969 L 334.1875 74.265625 L 337.417969 65.496094 C 335.375 62.21875 332.371094 59.621094 328.769531 58.117188 L 265.792969 31.769531 L 265.792969 31.765625 C 264.507812 31.226562 263.132812 30.953125 261.742188 30.953125 L 122.261719 30.953125 C 120.871094 30.953125 119.492188 31.230469 118.210938 31.765625 L 55.230469 58.113281 C 51.628906 59.621094 48.625 62.214844 46.582031 65.492188 L 53.261719 76.445312 L 34.046875 118.785156 L 18.253906 128.308594 L 3.957031 160.25 C 1.792969 165.082031 4.0625 170.742188 8.964844 172.746094 L 63.933594 195.203125 L 70.441406 184.558594 L 74.382812 192.160156 L 87.671875 204.867188 C 87.703125 205.144531 75.183594 250.09375 75.183594 250.09375 L 75.183594 374.992188 C 75.183594 379.960938 79.214844 383.992188 84.183594 383.992188 L 186.375 384 L 192 377.574219 L 197.625 384 L 215.160156 384 L 225.714844 374.898438 L 294.695312 377.011719 L 308.816406 371.511719 L 308.820312 204.835938 L 308.9375 201.683594 L 311.453125 189.632812 L 308.820312 178.761719 L 320.070312 195.210938 L 375.039062 172.753906 C 379.941406 170.75 382.210938 165.089844 380.046875 160.257812 Z M 380.046875 160.253906 " />
</g><g id="Shirt_free_icon_XrJovK5-2"><path style=" stroke:none;fill-rule:nonzero;fill:#80b823;fill-opacity:1;" d="M 186.375 79.402344 L 197.625 79.402344 L 197.625 384 L 186.375 384 Z M 186.375 79.402344 " />
</g><g id="Shirt_free_icon_XrJovK5-3"><path style=" stroke:none;fill-rule:nonzero;fill:#fee078;fill-opacity:1;" d="M 88.816406 255.71875 C 93.90625 255.722656 98.785156 253.703125 102.378906 250.101562 C 107.285156 250.101562 112.195312 248.230469 115.941406 244.484375 C 119.6875 240.738281 121.558594 235.832031 121.558594 230.921875 C 125.027344 227.453125 127.175781 222.65625 127.175781 217.359375 C 127.175781 212.0625 125.027344 207.269531 121.558594 203.796875 L 121.554688 203.800781 C 121.5625 198.714844 119.542969 193.835938 115.941406 190.242188 C 112.347656 186.640625 107.464844 184.617188 102.378906 184.625 C 98.910156 181.15625 94.113281 179.007812 88.816406 179.007812 C 83.519531 179.007812 78.726562 181.15625 75.253906 184.625 C 75.226562 184.625 68.460938 181.292969 68.460938 181.292969 L 75.140625 202.921875 L 75.175781 204.835938 L 75.175781 250.097656 C 75.203125 250.097656 75.226562 250.101562 75.253906 250.101562 L 75.257812 250.101562 C 78.851562 253.703125 83.730469 255.722656 88.816406 255.71875 Z M 88.816406 255.71875 " />
</g><g id="Shirt_free_icon_XrJovK5-4"><path style=" stroke:none;fill-rule:nonzero;fill:#f37c7d;fill-opacity:1;" d="M 100.15625 217.363281 C 100.15625 224.257812 94.566406 229.851562 87.667969 229.851562 C 80.773438 229.851562 75.179688 224.257812 75.179688 217.363281 C 75.179688 210.464844 80.773438 204.875 87.667969 204.875 C 94.566406 204.875 100.15625 210.464844 100.15625 217.363281 " />
</g><g id="Shirt_free_icon_XrJovK5-5"><path style=" stroke:none;fill-rule:nonzero;fill:#96d629;fill-opacity:1;" d="M 380.046875 160.253906 L 365.75 128.3125 L 357.699219 128.113281 L 343.550781 100.167969 L 334.1875 74.265625 L 337.417969 65.496094 C 335.375 62.21875 332.371094 59.621094 328.769531 58.117188 L 309.5625 50.078125 C 309.984375 50.769531 310.375 51.480469 310.710938 52.226562 L 354.148438 149.277344 C 356.417969 154.347656 354.039062 160.285156 348.894531 162.386719 L 308.816406 178.761719 L 320.066406 195.210938 L 375.035156 172.753906 C 379.9375 170.75 382.207031 165.089844 380.042969 160.257812 Z M 380.046875 160.253906 " />
</g><g id="Shirt_free_icon_XrJovK5-6"><path style=" stroke:none;fill-rule:nonzero;fill:#796c79;fill-opacity:1;" d="M 144.289062 30.953125 L 144.289062 65.496094 L 191.3125 105.738281 C 191.746094 105.757812 192.179688 105.757812 192.613281 105.742188 L 231.28125 68.644531 L 239.714844 30.957031 L 144.289062 30.949219 Z M 144.289062 30.953125 " />
</g><g id="Shirt_free_icon_XrJovK5-7"><path style=" stroke:none;fill-rule:nonzero;fill:#d0f19e;fill-opacity:1;" d="M 187.992188 105.210938 C 189.183594 105.542969 190.40625 105.714844 191.632812 105.746094 L 147.589844 36.171875 C 145.476562 32.828125 144.765625 28.785156 145.617188 24.921875 L 151.105469 0 L 122.363281 28.742188 C 120.949219 30.15625 120.15625 32.078125 120.164062 34.078125 L 120.539062 123.203125 C 120.554688 127.273438 125.402344 129.386719 128.394531 126.628906 L 158.140625 99.230469 C 159.332031 98.132812 161.003906 97.730469 162.5625 98.160156 Z M 261.636719 28.742188 L 232.894531 0 L 238.382812 24.921875 C 239.234375 28.785156 238.523438 32.828125 236.410156 36.171875 L 192.367188 105.746094 C 193.59375 105.714844 194.816406 105.542969 196.007812 105.210938 L 221.4375 98.160156 L 221.433594 98.160156 C 222.996094 97.730469 224.667969 98.132812 225.859375 99.230469 L 255.605469 126.628906 C 258.597656 129.386719 263.445312 127.273438 263.460938 123.203125 L 263.835938 34.078125 L 263.832031 34.078125 C 263.84375 32.078125 263.050781 30.15625 261.636719 28.742188 Z M 261.636719 28.742188 " />
</g><g id="Shirt_free_icon_XrJovK5-8"><path style=" stroke:none;fill-rule:nonzero;fill:#fee078;fill-opacity:1;" d="M 295.105469 338.398438 C 290.535156 333.828125 284.539062 331.539062 278.546875 331.539062 C 274.308594 327.300781 268.457031 324.679688 261.988281 324.679688 C 255.523438 324.679688 249.667969 327.300781 245.433594 331.539062 C 239.441406 331.539062 233.449219 333.824219 228.875 338.398438 C 224.304688 342.96875 222.015625 348.964844 222.015625 354.953125 C 217.777344 359.191406 215.15625 365.042969 215.15625 371.511719 L 215.15625 384 L 299.816406 384 C 304.785156 384 308.816406 379.96875 308.816406 375 L 308.816406 371.515625 C 308.816406 365.050781 306.195312 359.195312 301.957031 354.957031 C 301.957031 348.964844 299.671875 342.972656 295.101562 338.402344 Z M 273.0625 198.09375 C 273.0625 194.699219 271.765625 191.300781 269.175781 188.710938 C 266.691406 186.21875 263.3125 184.820312 259.792969 184.824219 C 257.390625 182.421875 254.074219 180.9375 250.410156 180.9375 C 246.746094 180.9375 243.429688 182.421875 241.027344 184.824219 L 241.03125 184.824219 C 237.511719 184.820312 234.132812 186.21875 231.648438 188.710938 C 229.15625 191.199219 227.757812 194.574219 227.761719 198.09375 C 225.359375 200.496094 223.875 203.8125 223.875 207.476562 C 223.875 211.140625 225.359375 214.457031 227.761719 216.859375 C 227.761719 220.253906 229.058594 223.652344 231.648438 226.242188 L 231.648438 226.238281 C 234.132812 228.730469 237.511719 230.128906 241.03125 230.125 C 243.433594 232.527344 246.75 234.011719 250.414062 234.011719 C 254.078125 234.011719 257.394531 232.527344 259.796875 230.125 C 263.191406 230.125 266.589844 228.828125 269.179688 226.238281 L 269.175781 226.238281 C 271.667969 223.753906 273.066406 220.378906 273.0625 216.855469 C 275.554688 214.371094 276.953125 210.996094 276.949219 207.476562 C 276.953125 203.957031 275.554688 200.578125 273.0625 198.09375 Z M 155.316406 315.300781 C 155.316406 311.90625 154.019531 308.507812 151.429688 305.917969 C 148.945312 303.425781 145.570312 302.027344 142.050781 302.03125 C 139.648438 299.628906 136.332031 298.144531 132.667969 298.144531 C 129.003906 298.144531 125.6875 299.628906 123.285156 302.03125 C 119.765625 302.027344 116.390625 303.425781 113.902344 305.917969 C 111.410156 308.40625 110.011719 311.78125 110.015625 315.300781 C 107.613281 317.703125 106.128906 321.019531 106.128906 324.683594 C 106.128906 328.347656 107.613281 331.664062 110.015625 334.066406 C 110.015625 337.460938 111.3125 340.859375 113.902344 343.449219 L 113.902344 343.445312 C 116.390625 345.9375 119.765625 347.335938 123.285156 347.332031 C 125.6875 349.734375 129.003906 351.21875 132.667969 351.21875 C 136.332031 351.21875 139.648438 349.734375 142.050781 347.332031 C 145.445312 347.332031 148.84375 346.035156 151.433594 343.445312 L 151.429688 343.445312 C 153.921875 340.960938 155.320312 337.585938 155.316406 334.0625 C 157.808594 331.578125 159.207031 328.203125 159.203125 324.683594 C 159.207031 321.164062 157.808594 317.785156 155.316406 315.300781 Z M 155.316406 315.300781 " />
</g><g id="Shirt_free_icon_XrJovK5-9"><path style=" stroke:none;fill-rule:nonzero;fill:#f37c7d;fill-opacity:1;" d="M 274.476562 371.511719 C 274.476562 378.410156 268.886719 384 261.988281 384 C 255.09375 384 249.503906 378.410156 249.503906 371.511719 C 249.503906 364.617188 255.09375 359.023438 261.988281 359.023438 C 268.886719 359.023438 274.476562 364.617188 274.476562 371.511719 " />
</g><g id="Shirt_free_icon_XrJovK5-10"><path style=" stroke:none;fill-rule:nonzero;fill:#fee078;fill-opacity:1;" d="M 30.761719 133.265625 C 34.082031 136.585938 38.664062 138.636719 43.730469 138.636719 C 48.796875 138.636719 53.378906 136.582031 56.699219 133.265625 C 61.394531 133.265625 66.085938 131.476562 69.667969 127.894531 C 73.25 124.3125 75.039062 119.617188 75.039062 114.925781 C 78.359375 111.605469 80.410156 107.023438 80.410156 101.957031 C 80.410156 96.890625 78.355469 92.308594 75.039062 88.988281 L 75.042969 88.984375 C 75.046875 84.117188 73.113281 79.449219 69.667969 76.015625 C 66.234375 72.570312 61.566406 70.636719 56.699219 70.640625 C 53.957031 67.894531 50.414062 66.09375 46.582031 65.492188 C 46.132812 66.214844 45.710938 66.957031 45.363281 67.742188 L 18.253906 128.308594 C 21.640625 131.492188 26.113281 133.265625 30.761719 133.265625 Z M 30.761719 133.265625 " />
</g><g id="Shirt_free_icon_XrJovK5-11"><path style=" stroke:none;fill-rule:nonzero;fill:#f37c7d;fill-opacity:1;" d="M 56.21875 101.953125 C 56.21875 108.851562 50.625 114.441406 43.730469 114.441406 C 36.832031 114.441406 31.242188 108.851562 31.242188 101.953125 C 31.242188 95.058594 36.832031 89.464844 43.730469 89.464844 C 50.625 89.464844 56.21875 95.058594 56.21875 101.953125 " />
</g><g id="Shirt_free_icon_XrJovK5-12"><path style=" stroke:none;fill-rule:nonzero;fill:#fee078;fill-opacity:1;" d="M 353.238281 133.265625 C 349.917969 136.585938 345.335938 138.636719 340.269531 138.636719 C 335.203125 138.636719 330.621094 136.582031 327.300781 133.265625 C 322.605469 133.265625 317.914062 131.476562 314.332031 127.894531 C 310.75 124.3125 308.960938 119.617188 308.960938 114.925781 C 305.640625 111.605469 303.589844 107.023438 303.589844 101.957031 C 303.589844 96.890625 305.644531 92.308594 308.960938 88.988281 L 308.957031 88.984375 C 308.953125 84.117188 310.886719 79.449219 314.332031 76.015625 C 317.765625 72.570312 322.433594 70.636719 327.300781 70.640625 C 330.042969 67.894531 333.585938 66.09375 337.417969 65.492188 C 337.867188 66.214844 338.289062 66.957031 338.636719 67.742188 L 365.746094 128.308594 C 362.359375 131.492188 357.886719 133.265625 353.238281 133.265625 Z M 353.238281 133.265625 " />
</g><g id="Shirt_free_icon_XrJovK5-13"><path style=" stroke:none;fill-rule:nonzero;fill:#fed05c;fill-opacity:1;" d="M 338.636719 67.742188 C 338.285156 66.964844 337.875 66.214844 337.417969 65.492188 C 333.585938 66.09375 330.042969 67.898438 327.300781 70.644531 C 324.703125 70.644531 322.109375 71.214844 319.699219 72.3125 L 348.511719 136.683594 L 348.511719 136.679688 C 350.257812 135.800781 351.855469 134.648438 353.238281 133.265625 C 357.738281 133.265625 362.226562 131.601562 365.746094 128.308594 Z M 338.636719 67.742188 " />
</g><g id="Shirt_free_icon_XrJovK5-14"><path style=" stroke:none;fill-rule:nonzero;fill:#ed6162;fill-opacity:1;" d="M 352.757812 101.953125 C 352.757812 108.851562 347.167969 114.441406 340.269531 114.441406 C 333.375 114.441406 327.78125 108.851562 327.78125 101.953125 C 327.78125 95.058594 333.375 89.464844 340.269531 89.464844 C 347.167969 89.464844 352.757812 95.058594 352.757812 101.953125 " />
</g><g id="Shirt_free_icon_XrJovK5-15"><path style=" stroke:none;fill-rule:nonzero;fill:#80b823;fill-opacity:1;" d="M 75.179688 149.429688 C 75.179688 146.324219 72.660156 143.804688 69.554688 143.804688 C 66.449219 143.804688 63.929688 146.324219 63.929688 149.429688 L 63.929688 195.207031 L 70.515625 197.898438 C 73.335938 199.050781 75.175781 201.792969 75.179688 204.835938 Z M 308.820312 149.429688 C 308.820312 146.324219 311.339844 143.804688 314.445312 143.804688 C 317.550781 143.804688 320.070312 146.324219 320.070312 149.429688 L 320.070312 195.207031 L 313.484375 197.898438 C 310.664062 199.050781 308.824219 201.792969 308.820312 204.835938 Z M 308.820312 149.429688 " />
</g><g id="Shirt_free_icon_XrJovK5-16"><path style=" stroke:none;fill-rule:nonzero;fill:#f37c7d;fill-opacity:1;" d="M 256.035156 207.476562 C 256.035156 210.582031 253.519531 213.101562 250.410156 213.101562 C 247.304688 213.101562 244.785156 210.582031 244.785156 207.476562 C 244.785156 204.367188 247.304688 201.851562 250.410156 201.851562 C 253.519531 201.851562 256.035156 204.367188 256.035156 207.476562 " />
</g><g id="Shirt_free_icon_XrJovK5-17"><path style=" stroke:none;fill-rule:nonzero;fill:#f37c7d;fill-opacity:1;" d="M 138.292969 324.683594 C 138.292969 327.789062 135.773438 330.308594 132.667969 330.308594 C 129.558594 330.308594 127.042969 327.789062 127.042969 324.683594 C 127.042969 321.578125 129.558594 319.058594 132.667969 319.058594 C 135.773438 319.058594 138.292969 321.578125 138.292969 324.683594 " />
</g></g>
</svg>