<?xml version="1.0" encoding="utf-8"?>
<!-- Generator: Adobe Illustrator 19.0.0, SVG Export Plug-In . SVG Version: 6.00 Build 0)  -->
<svg version="1.1" id="Layer_1" xmlns="http://www.w3.org/2000/svg" xmlns:xlink="http://www.w3.org/1999/xlink" x="0px" y="0px"
	 viewBox="0 0 500 500" style="enable-background:new 0 0 500 500;" xml:space="preserve">
<style type="text/css">
	.st0{fill:url(#XMLID_2_);}
	.st1{fill:url(#XMLID_3_);}
</style>
<g>
	<path id="XMLID_16_" d="M141.1,67.5h98.1c62.3,0,113.6,47.3,119.8,107.9h-64.3c-5.5-27.6-28.8-48.8-57.4-51.2L280.1,230
		c7-8,12.1-17.8,14.4-28.6h64.4c-6.7,60.1-57.8,106.9-119.7,106.9h-98.1V67.5z"/>
	
		<linearGradient id="XMLID_2_" gradientUnits="userSpaceOnUse" x1="-3.9487" y1="499.3011" x2="-3.2852" y2="499.3011" gradientTransform="matrix(188.9503 -52.2206 52.2206 188.9503 -25177.0098 -94348.1094)">
		<stop  offset="0" style="stop-color:#999999"/>
		<stop  offset="0.2663" style="stop-color:#969696"/>
		<stop  offset="0.4823" style="stop-color:#8C8C8C"/>
		<stop  offset="0.6807" style="stop-color:#7B7B7B"/>
		<stop  offset="0.8673" style="stop-color:#636363"/>
		<stop  offset="1" style="stop-color:#4D4D4D"/>
	</linearGradient>
	<path id="XMLID_17_" class="st0" d="M141.1,67.5h65.5c4.7,0,8.9,3.3,10.3,6.5l20.3,50.3L280,230.1l22.5,55.6
		c0.7,1.8,0.8,4.2-1.1,5.5c-18.2,11-39.5,17.3-62.2,17.3h-98.1V67.5z"/>
	
		<linearGradient id="XMLID_3_" gradientUnits="userSpaceOnUse" x1="-6.2789" y1="498.2268" x2="-5.6155" y2="498.2268" gradientTransform="matrix(114.9504 -43.7074 43.7074 114.9504 -20871.4785 -57336.7617)">
		<stop  offset="0" style="stop-color:#CCCCCC"/>
		<stop  offset="0.4483" style="stop-color:#CCCCCC"/>
		<stop  offset="0.8227" style="stop-color:#FFFFFF"/>
		<stop  offset="1" style="stop-color:#F2F2F2"/>
	</linearGradient>
	<path id="XMLID_18_" class="st1" d="M217,74c5.2,12.8-21.4,51.5-31.8,79.3l0,0c-4.6,11.2-7.2,23.4-7.2,36.2
		c0,50.3,39.3,91.4,88.8,94.4l0,0c14.4,1.1,20.1-0.1,29.3-1.1c3.1-0.3,5.5,0.6,6.4,2.9C274,215.1,245.5,144.5,217,74z"/>
	<g>
		<path d="M159.2,338.7L159.2,338.7l-16.9,0.1v38.9h16.9c10.8,0,19.5-8.7,19.5-19.5S170,338.7,159.2,338.7z M159.2,370.1
			c-0.2,0-0.4,0-0.6,0h-7.3v-23.6h7.9v0c5.8,0,10.6,5.3,10.6,11.8S165.1,370.1,159.2,370.1z"/>
		<path id="XMLID_23_" d="M202.7,338.1c5.8,0,11.1,2.5,14.7,6.4l-5.1,6.1c-2.3-3-6-5-9.7-5c-6.3,0-11.4,5.6-11.4,12.5
			s5.1,12.5,11.4,12.5c3.8,0,7.5-2,9.8-5.2l5.5,5.7c-3.7,4.3-9.2,7.1-15.3,7.1c-11.1,0-20.1-9-20.1-20.1
			C182.6,347.1,191.6,338.1,202.7,338.1z"/>
		<path d="M199.1,392.2c-11.1,0-20.1,9-20.1,20.1c0,11.1,9,20.1,20.1,20.1c11.1,0,20.1-9,20.1-20.1
			C219.2,401.2,210.2,392.2,199.1,392.2z M199.1,424.6c-6.4,0-11.5-5.5-11.5-12.3s5.2-12.3,11.5-12.3c6.4,0,11.5,5.5,11.5,12.3
			S205.4,424.6,199.1,424.6z"/>
		<path id="XMLID_29_" d="M161.1,392.3c5.8,0,11.1,2.5,14.8,6.4l-5.1,6.1c-2.3-3-6-5-9.7-5c-6.3,0-11.4,5.6-11.4,12.5
			s5.1,12.5,11.4,12.5c3.8,0,7.5-2,9.8-5.2l5.5,5.7c-3.7,4.3-9.2,7.1-15.3,7.1c-11.1,0-20.1-9-20.1-20.1
			C141,401.3,150,392.3,161.1,392.3z"/>
		<rect id="XMLID_30_" x="272.9" y="392.9" width="8.8" height="38.9"/>
		<polygon id="XMLID_31_" points="225.7,392.9 234.5,392.9 245.2,408.8 255.9,392.9 264.7,392.9 264.7,431.9 255.9,431.9 
			255.9,407.2 250,415.9 245.2,423.1 234.5,407.2 234.5,431.9 225.7,431.9 		"/>
		<path id="XMLID_32_" d="M308,392.3c5.8,0,11.1,2.5,14.7,6.4l-5.1,6.1c-2.3-3-6-5-9.7-5c-6.3,0-11.4,5.6-11.4,12.5
			s5.1,12.5,11.4,12.5c3.8,0,7.5-2,9.8-5.2l5.5,5.7c-3.7,4.3-9.2,7.1-15.3,7.1c-11.1,0-20.1-9-20.1-20.1
			C287.9,401.3,296.9,392.3,308,392.3z"/>
		<path id="XMLID_33_" d="M351.9,403.4l4.5-6.4c-3.7-3.1-9.4-4.7-14.5-4.7c-8.3,0-13.4,5.9-13.4,11.9c0,14.4,20.8,9.8,20.8,16.8
			c0,2.4-3.5,4.1-5.9,4.1c-4.4,0-8.3-2.3-11.4-4.9l-5.1,5.8c4,3.9,10.5,6.6,16.4,6.6c8.6,0,14.2-6.1,14.2-12.4
			c0-14.2-20.6-10.2-20.6-16.7c0-2.9,3.1-3.8,5.2-3.8C345.6,399.6,349,401.2,351.9,403.4z"/>
	</g>
</g>
</svg>
